<?xml version="1.0" encoding="utf-8" standalone="no"?>
<!DOCTYPE svg PUBLIC "-//W3C//DTD SVG 1.1//EN"
  "http://www.w3.org/Graphics/SVG/1.1/DTD/svg11.dtd">
<svg xmlns:xlink="http://www.w3.org/1999/xlink" width="633.996562pt" height="347.751375pt" viewBox="0 0 633.996562 347.751375" xmlns="http://www.w3.org/2000/svg" version="1.1">
 <metadata>
  <rdf:RDF xmlns:dc="http://purl.org/dc/elements/1.1/" xmlns:cc="http://creativecommons.org/ns#" xmlns:rdf="http://www.w3.org/1999/02/22-rdf-syntax-ns#">
   <cc:Work>
    <dc:type rdf:resource="http://purl.org/dc/dcmitype/StillImage"/>
    <dc:date>2026-06-09T20:14:45.937865</dc:date>
    <dc:format>image/svg+xml</dc:format>
    <dc:creator>
     <cc:Agent>
      <dc:title>Matplotlib v3.7.0, https://matplotlib.org/</dc:title>
     </cc:Agent>
    </dc:creator>
   </cc:Work>
  </rdf:RDF>
 </metadata>
 <defs>
  <style type="text/css">*{stroke-linejoin: round; stroke-linecap: butt}</style>
 </defs>
 <g id="figure_1">
  <g id="patch_1">
   <path d="M 0 347.751375 
L 633.996562 347.751375 
L 633.996562 0 
L 0 0 
z
" style="fill: #ffffff"/>
  </g>
  <g id="axes_1">
   <g id="patch_2">
    <path d="M 46.476563 308.592 
L 310.258381 308.592 
L 310.258381 53.568 
L 46.476563 53.568 
z
" style="fill: #ffffff"/>
   </g>
   <g id="matplotlib.axis_1">
    <g id="xtick_1">
     <g id="line2d_1">
      <defs>
       <path id="mda32c58a23" d="M 0 0 
L 0 3.5 
" style="stroke: #000000; stroke-width: 0.8"/>
      </defs>
      <g>
       <use xlink:href="#mda32c58a23" x="108.657689" y="308.592" style="stroke: #000000; stroke-width: 0.8"/>
      </g>
     </g>
     <g id="text_1">
      <!-- 2000 -->
      <g transform="translate(96.929564 323.58575) scale(0.1 -0.1)">
       <defs>
        <path id="MicrosoftYaHei-32" d="M 2666 3572 
Q 2666 3963 2419 4186 
Q 2172 4409 1747 4409 
Q 1447 4409 1140 4256 
Q 834 4103 569 3819 
L 569 4413 
Q 806 4659 1107 4790 
Q 1409 4922 1816 4922 
Q 2472 4922 2872 4570 
Q 3272 4219 3272 3619 
Q 3272 3084 3026 2693 
Q 2781 2303 2188 1894 
Q 1581 1475 1376 1294 
Q 1172 1113 1090 947 
Q 1009 781 1009 544 
L 3416 544 
L 3416 0 
L 372 0 
L 372 241 
Q 372 659 486 951 
Q 600 1244 862 1520 
Q 1125 1797 1681 2184 
Q 2250 2584 2458 2886 
Q 2666 3188 2666 3572 
z
" transform="scale(0.015625)"/>
        <path id="MicrosoftYaHei-30" d="M 284 2325 
Q 284 3606 709 4264 
Q 1134 4922 1941 4922 
Q 3478 4922 3478 2441 
Q 3478 1216 3045 567 
Q 2613 -81 1831 -81 
Q 1094 -81 689 534 
Q 284 1150 284 2325 
z
M 909 2353 
Q 909 425 1888 425 
Q 2850 425 2850 2384 
Q 2850 4413 1906 4413 
Q 909 4413 909 2353 
z
" transform="scale(0.015625)"/>
       </defs>
       <use xlink:href="#MicrosoftYaHei-32"/>
       <use xlink:href="#MicrosoftYaHei-30" x="58.642578"/>
       <use xlink:href="#MicrosoftYaHei-30" x="117.285156"/>
       <use xlink:href="#MicrosoftYaHei-30" x="175.927734"/>
      </g>
     </g>
    </g>
    <g id="xtick_2">
     <g id="line2d_2">
      <g>
       <use xlink:href="#mda32c58a23" x="248.077254" y="308.592" style="stroke: #000000; stroke-width: 0.8"/>
      </g>
     </g>
     <g id="text_2">
      <!-- 3000 -->
      <g transform="translate(236.349129 323.58575) scale(0.1 -0.1)">
       <defs>
        <path id="MicrosoftYaHei-33" d="M 447 809 
Q 944 425 1569 425 
Q 2069 425 2361 670 
Q 2653 916 2653 1328 
Q 2653 2247 1338 2247 
L 934 2247 
L 934 2753 
L 1319 2753 
Q 2484 2753 2484 3616 
Q 2484 4413 1594 4413 
Q 1084 4413 634 4069 
L 634 4647 
Q 1109 4922 1744 4922 
Q 2363 4922 2738 4598 
Q 3113 4275 3113 3759 
Q 3113 2809 2144 2538 
L 2144 2525 
Q 2669 2469 2973 2155 
Q 3278 1841 3278 1372 
Q 3278 719 2808 319 
Q 2338 -81 1556 -81 
Q 869 -81 447 175 
L 447 809 
z
" transform="scale(0.015625)"/>
       </defs>
       <use xlink:href="#MicrosoftYaHei-33"/>
       <use xlink:href="#MicrosoftYaHei-30" x="58.642578"/>
       <use xlink:href="#MicrosoftYaHei-30" x="117.285156"/>
       <use xlink:href="#MicrosoftYaHei-30" x="175.927734"/>
      </g>
     </g>
    </g>
    <g id="text_3">
     <!-- 并发抢课请求数 (人) -->
     <g transform="translate(133.547159 338.065437) scale(0.1 -0.1)">
      <defs>
       <path id="MicrosoftYaHei-5e76" d="M 125 2172 
L 1778 2172 
Q 1781 2272 1781 3684 
L 394 3684 
L 394 4172 
L 2169 4172 
Q 1772 4697 1438 5059 
L 1813 5341 
Q 2325 4828 2619 4447 
L 2222 4172 
L 3784 4172 
Q 4178 4694 4581 5347 
L 5075 5041 
Q 4684 4538 4366 4172 
L 6006 4172 
L 6006 3684 
L 4681 3684 
L 4681 2172 
L 6275 2172 
L 6275 1684 
L 4681 1684 
L 4681 -816 
L 4169 -816 
L 4169 1684 
L 2266 1684 
Q 2188 28 744 -872 
Q 513 -566 394 -434 
Q 1713 403 1747 1684 
L 125 1684 
L 125 2172 
z
M 2291 2172 
L 4169 2172 
L 4169 3684 
L 2294 3684 
Q 2294 2384 2291 2172 
z
" transform="scale(0.015625)"/>
       <path id="MicrosoftYaHei-53d1" d="M 944 3909 
L 2266 3909 
Q 2419 4563 2525 5334 
L 3056 5266 
Q 2950 4556 2797 3909 
L 6250 3909 
L 6250 3447 
L 2678 3447 
Q 2566 3034 2431 2653 
L 5531 2653 
L 5531 2222 
Q 5119 1200 4247 456 
Q 5125 -75 6294 -291 
Q 6013 -603 5856 -816 
Q 4856 -484 3844 153 
Q 3031 -381 1519 -859 
Q 1344 -609 1144 -397 
Q 2681 3 3441 450 
Q 2619 1153 2269 2222 
Q 1584 509 406 -591 
Q 238 -353 75 -166 
Q 1484 1106 2147 3447 
L 413 3447 
L 413 3916 
Q 669 4509 881 5109 
L 1388 4972 
Q 1169 4422 944 3909 
z
M 4981 2222 
L 2722 2222 
Q 3003 1356 3838 731 
Q 4647 1400 4981 2222 
z
M 4019 4903 
L 4294 5253 
Q 4906 4866 5469 4447 
L 5131 4041 
Q 4588 4503 4019 4903 
z
" transform="scale(0.015625)"/>
       <path id="MicrosoftYaHei-62a2" d="M 2663 2959 
L 5506 2959 
Q 5456 2078 5394 1503 
Q 5294 709 4506 709 
Q 3963 709 3638 722 
Q 3600 928 3531 1247 
Q 4019 1203 4431 1203 
Q 4856 1203 4913 1603 
Q 4963 2022 4988 2509 
L 3163 2509 
L 3163 366 
Q 3163 -184 3744 -184 
L 5000 -184 
Q 5519 -184 5581 247 
Q 5656 641 5700 1066 
Q 5969 966 6194 897 
Q 6113 409 6019 16 
Q 5863 -659 5100 -659 
L 3619 -659 
Q 2663 -659 2663 259 
L 2663 2959 
z
M 88 1941 
Q 188 1959 981 2147 
L 981 3659 
L 163 3659 
L 163 4078 
L 981 4078 
L 981 5266 
L 1463 5266 
L 1463 4078 
L 2219 4078 
L 2219 3659 
L 1463 3659 
L 1463 2266 
Q 1800 2341 2225 2447 
Q 2219 2328 2219 1947 
Q 2125 1922 1463 1753 
L 1463 -47 
Q 1463 -734 825 -753 
Q 606 -759 256 -759 
Q 231 -522 175 -247 
Q 494 -272 681 -272 
Q 981 -278 981 34 
L 981 1628 
Q 613 1541 131 1422 
L 88 1941 
z
M 4481 5272 
Q 4444 5184 4406 5103 
Q 5144 3822 6319 3197 
Q 6113 2947 5975 2759 
Q 4844 3491 4150 4634 
Q 3531 3578 2300 2703 
Q 2181 2866 1975 3097 
Q 3313 3966 3956 5272 
L 4481 5272 
z
" transform="scale(0.015625)"/>
       <path id="MicrosoftYaHei-8bfe" d="M 6325 -3 
Q 6169 -241 6019 -472 
Q 4884 119 4188 1209 
L 4188 -816 
L 3738 -816 
L 3738 1191 
Q 2953 78 1975 -559 
Q 1794 -328 1613 -147 
Q 2766 469 3513 1409 
L 1819 1409 
L 1819 1822 
L 3738 1822 
L 3738 2503 
L 2575 2503 
L 2575 2303 
L 2138 2303 
L 2138 5053 
L 5788 5053 
L 5788 2303 
L 5350 2303 
L 5350 2503 
L 4188 2503 
L 4188 1822 
L 6150 1822 
L 6150 1409 
L 4413 1409 
Q 5184 425 6325 -3 
z
M 2088 747 
Q 1619 334 1275 -3 
Q 1100 -184 963 -353 
L 613 53 
Q 806 234 806 591 
L 806 2778 
L 113 2778 
L 113 3234 
L 1269 3234 
L 1269 634 
Q 1581 909 1969 1284 
Q 2019 1016 2088 747 
z
M 5350 4653 
L 4188 4653 
L 4188 3972 
L 5350 3972 
L 5350 4653 
z
M 4188 2903 
L 5350 2903 
L 5350 3584 
L 4188 3584 
L 4188 2903 
z
M 2575 3972 
L 3738 3972 
L 3738 4653 
L 2575 4653 
L 2575 3972 
z
M 2575 2903 
L 3738 2903 
L 3738 3584 
L 2575 3584 
L 2575 2903 
z
M 800 5178 
Q 1363 4634 1725 4184 
L 1338 3866 
Q 900 4428 469 4884 
L 800 5178 
z
" transform="scale(0.015625)"/>
       <path id="MicrosoftYaHei-8bf7" d="M 2788 -791 
L 2300 -791 
L 2300 2378 
L 5775 2378 
L 5775 -53 
Q 5775 -728 5081 -734 
Q 4713 -741 4138 -741 
Q 4106 -541 4044 -259 
Q 4588 -297 4931 -297 
Q 5288 -297 5288 28 
L 5288 341 
L 2788 341 
L 2788 -791 
z
M 1750 3153 
L 3769 3153 
L 3769 3584 
L 2169 3584 
L 2169 3978 
L 3769 3978 
L 3769 4397 
L 1950 4397 
L 1950 4791 
L 3769 4791 
L 3769 5353 
L 4275 5353 
L 4275 4791 
L 6181 4791 
L 6181 4397 
L 4275 4397 
L 4275 3978 
L 6019 3978 
L 6019 3584 
L 4275 3584 
L 4275 3153 
L 6306 3153 
L 6306 2759 
L 1750 2759 
L 1750 3153 
z
M 2056 753 
Q 2075 441 2100 209 
Q 1425 -241 956 -603 
L 669 -191 
Q 881 9 881 353 
L 881 2716 
L 119 2716 
L 119 3172 
L 1356 3172 
L 1356 259 
Q 1706 497 2056 753 
z
M 5288 1978 
L 2788 1978 
L 2788 1547 
L 5288 1547 
L 5288 1978 
z
M 2788 728 
L 5288 728 
L 5288 1159 
L 2788 1159 
L 2788 728 
z
M 825 5141 
Q 1338 4634 1731 4197 
L 1294 3834 
Q 863 4391 450 4822 
L 825 5141 
z
" transform="scale(0.015625)"/>
       <path id="MicrosoftYaHei-6c42" d="M 225 4178 
L 2969 4178 
L 2969 5309 
L 3494 5309 
L 3494 4178 
L 6225 4178 
L 6225 3728 
L 3494 3728 
L 3494 3341 
Q 3800 2641 4219 2066 
Q 4869 2628 5444 3316 
L 5888 2947 
Q 5119 2184 4525 1684 
Q 5275 809 6319 284 
Q 6088 16 5944 -203 
Q 4331 741 3494 2322 
L 3494 28 
Q 3494 -778 2650 -778 
Q 2200 -778 1819 -766 
Q 1781 -509 1719 -209 
Q 2213 -266 2525 -266 
Q 2969 -266 2969 191 
L 2969 1372 
Q 1494 616 400 -3 
L 131 509 
Q 1438 1116 2969 1953 
L 2969 3728 
L 225 3728 
L 225 4178 
z
M 1144 3353 
Q 1644 2859 2163 2247 
Q 1969 2084 1731 1897 
Q 1294 2466 769 3047 
L 1144 3353 
z
M 4069 4978 
L 4369 5309 
Q 4963 4934 5313 4628 
L 4975 4253 
Q 4606 4578 4069 4978 
z
" transform="scale(0.015625)"/>
       <path id="MicrosoftYaHei-6570" d="M 4175 5303 
L 4675 5228 
Q 4544 4622 4369 4097 
L 6281 4097 
L 6281 3672 
L 5888 3672 
Q 5731 1834 5088 753 
Q 5594 66 6375 -372 
Q 6175 -647 6038 -866 
Q 5275 -372 4769 309 
Q 4194 -403 3400 -928 
Q 3263 -747 3044 -534 
Q 3919 41 4463 772 
Q 3956 1647 3794 2791 
Q 3663 2559 3519 2359 
Q 3394 2541 3206 2759 
Q 3931 3803 4175 5303 
z
M 150 1697 
L 1100 1697 
Q 1238 1934 1369 2184 
L 1819 2041 
Q 1719 1866 1619 1697 
L 3150 1697 
L 3150 1291 
Q 2913 678 2431 216 
Q 2775 53 3131 -109 
L 2856 -541 
Q 2469 -322 2050 -103 
Q 1344 -609 269 -903 
Q 169 -703 56 -466 
Q 969 -259 1600 128 
Q 1063 403 475 691 
Q 675 978 863 1284 
L 150 1284 
L 150 1697 
z
M 219 3847 
L 1656 3847 
L 1656 5247 
L 2119 5247 
L 2119 3847 
L 3319 3847 
L 3319 3434 
L 2119 3434 
L 2119 3053 
L 2306 3266 
Q 2888 2841 3281 2516 
L 2981 2166 
Q 2638 2491 2119 2897 
L 2119 2184 
L 1656 2184 
L 1656 3059 
Q 1088 2466 331 2016 
Q 213 2197 63 2397 
Q 850 2822 1506 3434 
L 219 3434 
L 219 3847 
z
M 5388 3672 
L 4219 3672 
Q 4188 3591 4150 3516 
Q 4263 2191 4775 1247 
Q 5275 2159 5388 3672 
z
M 1088 834 
Q 1531 634 2000 416 
Q 2431 784 2675 1284 
L 1375 1284 
Q 1231 1053 1088 834 
z
M 3038 5091 
L 3425 4834 
Q 3081 4384 2738 4003 
Q 2594 4128 2400 4266 
Q 2725 4647 3038 5091 
z
M 381 4816 
L 738 5059 
Q 1019 4716 1319 4322 
L 931 4047 
Q 656 4453 381 4816 
z
" transform="scale(0.015625)"/>
       <path id="MicrosoftYaHei-20" transform="scale(0.015625)"/>
       <path id="MicrosoftYaHei-28" d="M 1531 -1100 
Q 478 100 478 1847 
Q 478 3594 1531 4841 
L 2072 4841 
Q 1016 3544 1016 1853 
Q 1016 166 2066 -1100 
L 1531 -1100 
z
" transform="scale(0.015625)"/>
       <path id="MicrosoftYaHei-4eba" d="M 100 -303 
Q 2825 1272 2981 5222 
L 3531 5222 
Q 3497 4553 3400 3947 
Q 4175 822 6313 -166 
Q 6050 -453 5850 -709 
Q 3994 341 3203 3006 
Q 2519 431 494 -778 
Q 325 -547 100 -303 
z
" transform="scale(0.015625)"/>
       <path id="MicrosoftYaHei-29" d="M 78 -1100 
Q 1131 163 1131 1853 
Q 1131 3547 72 4841 
L 616 4841 
Q 1672 3603 1672 1847 
Q 1672 91 616 -1100 
L 78 -1100 
z
" transform="scale(0.015625)"/>
      </defs>
      <use xlink:href="#MicrosoftYaHei-5e76"/>
      <use xlink:href="#MicrosoftYaHei-53d1" x="100"/>
      <use xlink:href="#MicrosoftYaHei-62a2" x="200"/>
      <use xlink:href="#MicrosoftYaHei-8bfe" x="300"/>
      <use xlink:href="#MicrosoftYaHei-8bf7" x="400"/>
      <use xlink:href="#MicrosoftYaHei-6c42" x="500"/>
      <use xlink:href="#MicrosoftYaHei-6570" x="600"/>
      <use xlink:href="#MicrosoftYaHei-20" x="700"/>
      <use xlink:href="#MicrosoftYaHei-28" x="729.589844"/>
      <use xlink:href="#MicrosoftYaHei-4eba" x="762.988281"/>
      <use xlink:href="#MicrosoftYaHei-29" x="862.988281"/>
     </g>
    </g>
   </g>
   <g id="matplotlib.axis_2">
    <g id="ytick_1">
     <g id="line2d_3">
      <path d="M 46.476563 308.592 
L 310.258381 308.592 
" clip-path="url(#p7605da7d0a)" style="fill: none; stroke: #e7e7ec; stroke-linecap: square"/>
     </g>
     <g id="line2d_4">
      <defs>
       <path id="m326bfc8494" d="M 0 0 
L -3.5 0 
" style="stroke: #000000; stroke-width: 0.8"/>
      </defs>
      <g>
       <use xlink:href="#m326bfc8494" x="46.476563" y="308.592" style="stroke: #000000; stroke-width: 0.8"/>
      </g>
     </g>
     <g id="text_4">
      <!-- 0 -->
      <g transform="translate(33.6125 312.588875) scale(0.1 -0.1)">
       <use xlink:href="#MicrosoftYaHei-30"/>
      </g>
     </g>
    </g>
    <g id="ytick_2">
     <g id="line2d_5">
      <path d="M 46.476563 267.002959 
L 310.258381 267.002959 
" clip-path="url(#p7605da7d0a)" style="fill: none; stroke: #e7e7ec; stroke-linecap: square"/>
     </g>
     <g id="line2d_6">
      <g>
       <use xlink:href="#m326bfc8494" x="46.476563" y="267.002959" style="stroke: #000000; stroke-width: 0.8"/>
      </g>
     </g>
     <g id="text_5">
      <!-- 100 -->
      <g transform="translate(21.884375 270.999834) scale(0.1 -0.1)">
       <defs>
        <path id="MicrosoftYaHei-31" d="M 1781 0 
L 1781 4141 
Q 1638 3997 1295 3819 
Q 953 3641 663 3569 
L 663 4169 
Q 1047 4275 1484 4508 
Q 1922 4741 2156 4947 
L 2388 4947 
L 2388 0 
L 1781 0 
z
" transform="scale(0.015625)"/>
       </defs>
       <use xlink:href="#MicrosoftYaHei-31"/>
       <use xlink:href="#MicrosoftYaHei-30" x="58.642578"/>
       <use xlink:href="#MicrosoftYaHei-30" x="117.285156"/>
      </g>
     </g>
    </g>
    <g id="ytick_3">
     <g id="line2d_7">
      <path d="M 46.476563 225.413918 
L 310.258381 225.413918 
" clip-path="url(#p7605da7d0a)" style="fill: none; stroke: #e7e7ec; stroke-linecap: square"/>
     </g>
     <g id="line2d_8">
      <g>
       <use xlink:href="#m326bfc8494" x="46.476563" y="225.413918" style="stroke: #000000; stroke-width: 0.8"/>
      </g>
     </g>
     <g id="text_6">
      <!-- 200 -->
      <g transform="translate(21.884375 229.410793) scale(0.1 -0.1)">
       <use xlink:href="#MicrosoftYaHei-32"/>
       <use xlink:href="#MicrosoftYaHei-30" x="58.642578"/>
       <use xlink:href="#MicrosoftYaHei-30" x="117.285156"/>
      </g>
     </g>
    </g>
    <g id="ytick_4">
     <g id="line2d_9">
      <path d="M 46.476563 183.824877 
L 310.258381 183.824877 
" clip-path="url(#p7605da7d0a)" style="fill: none; stroke: #e7e7ec; stroke-linecap: square"/>
     </g>
     <g id="line2d_10">
      <g>
       <use xlink:href="#m326bfc8494" x="46.476563" y="183.824877" style="stroke: #000000; stroke-width: 0.8"/>
      </g>
     </g>
     <g id="text_7">
      <!-- 300 -->
      <g transform="translate(21.884375 187.821752) scale(0.1 -0.1)">
       <use xlink:href="#MicrosoftYaHei-33"/>
       <use xlink:href="#MicrosoftYaHei-30" x="58.642578"/>
       <use xlink:href="#MicrosoftYaHei-30" x="117.285156"/>
      </g>
     </g>
    </g>
    <g id="ytick_5">
     <g id="line2d_11">
      <path d="M 46.476563 142.235836 
L 310.258381 142.235836 
" clip-path="url(#p7605da7d0a)" style="fill: none; stroke: #e7e7ec; stroke-linecap: square"/>
     </g>
     <g id="line2d_12">
      <g>
       <use xlink:href="#m326bfc8494" x="46.476563" y="142.235836" style="stroke: #000000; stroke-width: 0.8"/>
      </g>
     </g>
     <g id="text_8">
      <!-- 400 -->
      <g transform="translate(21.884375 146.232711) scale(0.1 -0.1)">
       <defs>
        <path id="MicrosoftYaHei-34" d="M 2906 4841 
L 2906 1644 
L 3631 1644 
L 3631 1138 
L 2906 1138 
L 2906 0 
L 2313 0 
L 2313 1138 
L 53 1138 
L 53 1616 
Q 656 2294 1265 3178 
Q 1875 4063 2272 4841 
L 2906 4841 
z
M 741 1644 
L 2313 1644 
L 2313 3950 
Q 1988 3366 1616 2817 
Q 1244 2269 741 1644 
z
" transform="scale(0.015625)"/>
       </defs>
       <use xlink:href="#MicrosoftYaHei-34"/>
       <use xlink:href="#MicrosoftYaHei-30" x="58.642578"/>
       <use xlink:href="#MicrosoftYaHei-30" x="117.285156"/>
      </g>
     </g>
    </g>
    <g id="ytick_6">
     <g id="line2d_13">
      <path d="M 46.476563 100.646795 
L 310.258381 100.646795 
" clip-path="url(#p7605da7d0a)" style="fill: none; stroke: #e7e7ec; stroke-linecap: square"/>
     </g>
     <g id="line2d_14">
      <g>
       <use xlink:href="#m326bfc8494" x="46.476563" y="100.646795" style="stroke: #000000; stroke-width: 0.8"/>
      </g>
     </g>
     <g id="text_9">
      <!-- 500 -->
      <g transform="translate(21.884375 104.64367) scale(0.1 -0.1)">
       <defs>
        <path id="MicrosoftYaHei-35" d="M 3294 1494 
Q 3294 784 2823 350 
Q 2353 -84 1559 -84 
Q 878 -84 544 119 
L 544 744 
Q 1034 425 1544 425 
Q 2050 425 2361 704 
Q 2672 984 2672 1447 
Q 2672 1909 2348 2167 
Q 2025 2425 1434 2425 
Q 978 2425 613 2384 
L 791 4841 
L 3053 4841 
L 3053 4303 
L 1306 4303 
L 1206 2931 
L 1647 2950 
Q 2416 2950 2855 2567 
Q 3294 2184 3294 1494 
z
" transform="scale(0.015625)"/>
       </defs>
       <use xlink:href="#MicrosoftYaHei-35"/>
       <use xlink:href="#MicrosoftYaHei-30" x="58.642578"/>
       <use xlink:href="#MicrosoftYaHei-30" x="117.285156"/>
      </g>
     </g>
    </g>
    <g id="ytick_7">
     <g id="line2d_15">
      <path d="M 46.476563 59.057753 
L 310.258381 59.057753 
" clip-path="url(#p7605da7d0a)" style="fill: none; stroke: #e7e7ec; stroke-linecap: square"/>
     </g>
     <g id="line2d_16">
      <g>
       <use xlink:href="#m326bfc8494" x="46.476563" y="59.057753" style="stroke: #000000; stroke-width: 0.8"/>
      </g>
     </g>
     <g id="text_10">
      <!-- 600 -->
      <g transform="translate(21.884375 63.054628) scale(0.1 -0.1)">
       <defs>
        <path id="MicrosoftYaHei-36" d="M 3181 4219 
Q 2803 4413 2391 4413 
Q 1763 4413 1381 3866 
Q 1000 3319 994 2372 
L 1009 2372 
Q 1353 3038 2106 3038 
Q 2734 3038 3109 2628 
Q 3484 2219 3484 1541 
Q 3484 831 3051 375 
Q 2619 -81 1947 -81 
Q 1209 -81 789 495 
Q 369 1072 369 2131 
Q 369 3413 920 4167 
Q 1472 4922 2372 4922 
Q 2888 4922 3181 4781 
L 3181 4219 
z
M 1031 1584 
Q 1031 1106 1286 765 
Q 1541 425 1963 425 
Q 2363 425 2613 719 
Q 2863 1013 2863 1475 
Q 2863 1975 2627 2253 
Q 2391 2531 1956 2531 
Q 1544 2531 1287 2250 
Q 1031 1969 1031 1584 
z
" transform="scale(0.015625)"/>
       </defs>
       <use xlink:href="#MicrosoftYaHei-36"/>
       <use xlink:href="#MicrosoftYaHei-30" x="58.642578"/>
       <use xlink:href="#MicrosoftYaHei-30" x="117.285156"/>
      </g>
     </g>
    </g>
    <g id="text_11">
     <!-- 吞吐 (req/s) -->
     <g transform="translate(15.398438 208.226875) rotate(-90) scale(0.1 -0.1)">
      <defs>
       <path id="MicrosoftYaHei-541e" d="M 238 3522 
L 2547 3522 
Q 2781 3972 2925 4522 
L 706 4522 
L 706 4959 
L 5719 4959 
L 5719 4522 
L 3459 4522 
Q 3294 3963 3097 3522 
L 6169 3522 
L 6169 3084 
L 4028 3084 
Q 4844 2038 6331 1753 
Q 6150 1503 6006 1259 
Q 5569 1391 5194 1572 
L 5194 -841 
L 4706 -841 
L 4706 -428 
L 1750 -428 
L 1750 -853 
L 1263 -853 
L 1263 1594 
Q 875 1363 413 1147 
Q 256 1366 75 1572 
Q 1575 2166 2269 3084 
L 238 3084 
L 238 3522 
z
M 4706 1322 
L 1750 1322 
L 1750 -9 
L 4706 -9 
L 4706 1322 
z
M 1509 1747 
L 4869 1747 
Q 4006 2256 3522 3084 
L 2875 3084 
Q 2453 2363 1509 1747 
z
" transform="scale(0.015625)"/>
       <path id="MicrosoftYaHei-5410" d="M 519 4528 
L 2375 4528 
L 2375 503 
L 994 503 
L 994 59 
L 519 59 
L 519 4528 
z
M 2363 16 
L 4200 16 
L 4200 2878 
L 2838 2878 
L 2838 3353 
L 4200 3353 
L 4200 5247 
L 4731 5247 
L 4731 3353 
L 6069 3353 
L 6069 2878 
L 4731 2878 
L 4731 16 
L 6306 16 
L 6306 -453 
L 2363 -453 
L 2363 16 
z
M 1900 4072 
L 994 4072 
L 994 959 
L 1900 959 
L 1900 4072 
z
" transform="scale(0.015625)"/>
       <path id="MicrosoftYaHei-72" d="M 2400 2850 
Q 2247 2959 1978 2959 
Q 1622 2959 1390 2626 
Q 1159 2294 1159 1750 
L 1159 0 
L 547 0 
L 547 3456 
L 1159 3456 
L 1159 2753 
L 1172 2753 
Q 1434 3516 2078 3516 
Q 2288 3516 2400 3469 
L 2400 2850 
z
" transform="scale(0.015625)"/>
       <path id="MicrosoftYaHei-65" d="M 3363 1572 
L 944 1572 
Q 959 1019 1246 717 
Q 1534 416 2050 416 
Q 2631 416 3116 788 
L 3116 241 
Q 2659 -81 1906 -81 
Q 1156 -81 736 394 
Q 316 869 316 1713 
Q 316 2506 777 3022 
Q 1238 3538 1922 3538 
Q 2600 3538 2981 3102 
Q 3363 2666 3363 1881 
L 3363 1572 
z
M 2750 2063 
Q 2747 2531 2528 2787 
Q 2309 3044 1913 3044 
Q 1547 3044 1280 2772 
Q 1013 2500 944 2063 
L 2750 2063 
z
" transform="scale(0.015625)"/>
       <path id="MicrosoftYaHei-71" d="M 3547 -1591 
L 2934 -1591 
L 2934 581 
L 2922 581 
Q 2559 -81 1753 -81 
Q 1100 -81 708 380 
Q 316 841 316 1647 
Q 316 2506 747 3022 
Q 1178 3538 1903 3538 
Q 2603 3538 2922 2988 
L 2934 2988 
L 2934 3456 
L 3547 3456 
L 3547 -1591 
z
M 2934 2044 
Q 2938 2453 2673 2742 
Q 2409 3031 1984 3031 
Q 1497 3031 1219 2668 
Q 941 2306 941 1663 
Q 941 1081 1208 753 
Q 1475 425 1909 425 
Q 2384 425 2661 751 
Q 2938 1078 2934 1566 
L 2934 2044 
z
" transform="scale(0.015625)"/>
       <path id="MicrosoftYaHei-2f" d="M 2791 4841 
L 469 -803 
L -103 -803 
L 2219 4841 
L 2791 4841 
z
" transform="scale(0.015625)"/>
       <path id="MicrosoftYaHei-73" d="M 353 747 
Q 816 413 1350 413 
Q 2066 413 2066 881 
Q 2066 1081 1909 1211 
Q 1753 1341 1275 1519 
Q 700 1750 528 1976 
Q 356 2203 356 2525 
Q 356 2984 745 3261 
Q 1134 3538 1703 3538 
Q 2144 3538 2522 3384 
L 2522 2794 
Q 2134 3044 1644 3044 
Q 1350 3044 1165 2916 
Q 981 2788 981 2578 
Q 981 2372 1114 2256 
Q 1247 2141 1703 1959 
Q 2281 1744 2484 1512 
Q 2688 1281 2688 941 
Q 2688 466 2298 192 
Q 1909 -81 1291 -81 
Q 753 -81 353 122 
L 353 747 
z
" transform="scale(0.015625)"/>
      </defs>
      <use xlink:href="#MicrosoftYaHei-541e"/>
      <use xlink:href="#MicrosoftYaHei-5410" x="100"/>
      <use xlink:href="#MicrosoftYaHei-20" x="200"/>
      <use xlink:href="#MicrosoftYaHei-28" x="229.589844"/>
      <use xlink:href="#MicrosoftYaHei-72" x="262.988281"/>
      <use xlink:href="#MicrosoftYaHei-65" x="299.796875"/>
      <use xlink:href="#MicrosoftYaHei-71" x="356.535156"/>
      <use xlink:href="#MicrosoftYaHei-2f" x="420.5"/>
      <use xlink:href="#MicrosoftYaHei-73" x="463.224609"/>
      <use xlink:href="#MicrosoftYaHei-29" x="509.513672"/>
     </g>
    </g>
   </g>
   <g id="patch_3">
    <path d="M 58.466645 308.592 
L 108.657689 308.592 
L 108.657689 173.843507 
L 58.466645 173.843507 
z
" clip-path="url(#p7605da7d0a)" style="fill: #a4233a"/>
   </g>
   <g id="patch_4">
    <path d="M 197.886211 308.592 
L 248.077254 308.592 
L 248.077254 152.217205 
L 197.886211 152.217205 
z
" clip-path="url(#p7605da7d0a)" style="fill: #a4233a"/>
   </g>
   <g id="patch_5">
    <path d="M 108.657689 308.592 
L 158.848732 308.592 
L 158.848732 65.712 
L 108.657689 65.712 
z
" clip-path="url(#p7605da7d0a)" style="fill: #9aa0aa"/>
   </g>
   <g id="patch_6">
    <path d="M 248.077254 308.592 
L 298.268298 308.592 
L 298.268298 128.511452 
L 248.077254 128.511452 
z
" clip-path="url(#p7605da7d0a)" style="fill: #9aa0aa"/>
   </g>
   <g id="patch_7">
    <path d="M 46.476563 308.592 
L 46.476563 53.568 
" style="fill: none; stroke: #c9ccd2; stroke-width: 0.8; stroke-linejoin: miter; stroke-linecap: square"/>
   </g>
   <g id="patch_8">
    <path d="M 46.476563 308.592 
L 310.258381 308.592 
" style="fill: none; stroke: #c9ccd2; stroke-width: 0.8; stroke-linejoin: miter; stroke-linecap: square"/>
   </g>
   <g id="text_12">
    <!-- 324 -->
    <g style="fill: #1d1d1f" transform="translate(75.645683 169.843507) scale(0.09 -0.09)">
     <use xlink:href="#MicrosoftYaHei-33"/>
     <use xlink:href="#MicrosoftYaHei-32" x="58.642578"/>
     <use xlink:href="#MicrosoftYaHei-34" x="117.285156"/>
    </g>
   </g>
   <g id="text_13">
    <!-- 584 -->
    <g style="fill: #1d1d1f" transform="translate(125.836726 61.712) scale(0.09 -0.09)">
     <defs>
      <path id="MicrosoftYaHei-38" d="M 306 1350 
Q 306 1769 556 2122 
Q 806 2475 1200 2625 
Q 884 2803 700 3081 
Q 516 3359 516 3684 
Q 516 4028 692 4312 
Q 869 4597 1183 4759 
Q 1497 4922 1875 4922 
Q 2256 4922 2572 4761 
Q 2888 4600 3063 4315 
Q 3238 4031 3238 3684 
Q 3238 3366 3058 3086 
Q 2878 2806 2559 2625 
Q 2953 2472 3200 2119 
Q 3447 1766 3447 1350 
Q 3447 938 3250 611 
Q 3053 284 2690 103 
Q 2328 -78 1875 -78 
Q 1425 -78 1065 103 
Q 706 284 506 612 
Q 306 941 306 1350 
z
M 906 1378 
Q 906 947 1172 687 
Q 1438 428 1878 428 
Q 2309 428 2582 692 
Q 2856 956 2856 1378 
Q 2856 1778 2579 2051 
Q 2303 2325 1878 2325 
Q 1456 2325 1181 2058 
Q 906 1791 906 1378 
z
M 1081 3634 
Q 1081 3309 1312 3076 
Q 1544 2844 1878 2844 
Q 2206 2844 2445 3078 
Q 2684 3313 2684 3634 
Q 2684 3963 2454 4191 
Q 2225 4419 1878 4419 
Q 1534 4419 1307 4195 
Q 1081 3972 1081 3634 
z
" transform="scale(0.015625)"/>
     </defs>
     <use xlink:href="#MicrosoftYaHei-35"/>
     <use xlink:href="#MicrosoftYaHei-38" x="58.642578"/>
     <use xlink:href="#MicrosoftYaHei-34" x="117.285156"/>
    </g>
   </g>
   <g id="text_14">
    <!-- 376 -->
    <g style="fill: #1d1d1f" transform="translate(215.065248 148.217205) scale(0.09 -0.09)">
     <defs>
      <path id="MicrosoftYaHei-37" d="M 3422 4463 
Q 2659 3131 2223 1998 
Q 1788 866 1684 0 
L 1047 0 
Q 1163 853 1594 1947 
Q 2025 3041 2747 4300 
L 347 4300 
L 347 4841 
L 3422 4841 
L 3422 4463 
z
" transform="scale(0.015625)"/>
     </defs>
     <use xlink:href="#MicrosoftYaHei-33"/>
     <use xlink:href="#MicrosoftYaHei-37" x="58.642578"/>
     <use xlink:href="#MicrosoftYaHei-36" x="117.285156"/>
    </g>
   </g>
   <g id="text_15">
    <!-- 433 -->
    <g style="fill: #1d1d1f" transform="translate(265.256292 124.511452) scale(0.09 -0.09)">
     <use xlink:href="#MicrosoftYaHei-34"/>
     <use xlink:href="#MicrosoftYaHei-33" x="58.642578"/>
     <use xlink:href="#MicrosoftYaHei-33" x="117.285156"/>
    </g>
   </g>
   <g id="text_16">
    <!-- 吞吐对比 -->
    <g style="fill: #1d1d1f" transform="translate(154.367472 47.568) scale(0.12 -0.12)">
     <defs>
      <path id="MicrosoftYaHei-5bf9" d="M 694 3691 
Q 1234 2909 1741 2166 
Q 2113 3081 2213 4147 
L 250 4147 
L 250 4622 
L 2725 4622 
L 2725 4166 
Q 2553 2809 2059 1700 
Q 2569 953 3044 247 
L 2594 -53 
Q 2203 563 1803 1181 
Q 1247 163 388 -622 
Q 263 -428 81 -166 
Q 975 638 1500 1647 
Q 919 2538 319 3434 
L 694 3691 
z
M 2975 3941 
L 5056 3941 
L 5056 5278 
L 5563 5278 
L 5563 3941 
L 6325 3941 
L 6325 3466 
L 5563 3466 
L 5563 191 
Q 5563 -716 4669 -716 
Q 4388 -716 3744 -709 
Q 3713 -478 3644 -147 
Q 4263 -197 4588 -197 
Q 5056 -197 5056 278 
L 5056 3466 
L 2975 3466 
L 2975 3941 
z
M 3088 2684 
L 3494 2928 
Q 4000 2184 4388 1484 
L 3919 1216 
Q 3550 1922 3088 2684 
z
" transform="scale(0.015625)"/>
      <path id="MicrosoftYaHei-6bd4" d="M 3225 5316 
L 3744 5316 
L 3744 2672 
Q 4959 3550 5744 4509 
L 6188 4178 
Q 5175 3063 3744 2056 
L 3744 247 
Q 3744 -166 4106 -166 
L 5175 -166 
Q 5588 -166 5650 203 
Q 5725 678 5763 1247 
Q 6025 1147 6300 1066 
Q 6244 484 6150 22 
Q 6019 -622 5319 -622 
L 3944 -622 
Q 3225 -622 3225 159 
L 3225 5316 
z
M 1063 5153 
L 1063 3278 
L 2825 3278 
L 2825 2809 
L 1063 2809 
L 1063 153 
Q 1713 428 2763 928 
Q 2763 634 2788 366 
Q 1869 -3 1231 -328 
Q 956 -472 725 -672 
L 344 -184 
Q 544 -34 544 272 
L 544 5153 
L 1063 5153 
z
" transform="scale(0.015625)"/>
     </defs>
     <use xlink:href="#MicrosoftYaHei-541e"/>
     <use xlink:href="#MicrosoftYaHei-5410" x="100"/>
     <use xlink:href="#MicrosoftYaHei-5bf9" x="200"/>
     <use xlink:href="#MicrosoftYaHei-6bd4" x="300"/>
    </g>
   </g>
   <g id="legend_1">
    <g id="patch_9">
     <path d="M 220.261506 70.56175 
L 240.261506 70.56175 
L 240.261506 63.56175 
L 220.261506 63.56175 
z
" style="fill: #a4233a"/>
    </g>
    <g id="text_17">
     <!-- 异步(Kafka) -->
     <g transform="translate(248.261506 70.56175) scale(0.1 -0.1)">
      <defs>
       <path id="MicrosoftYaHei-5f02" d="M 1731 2547 
L 5050 2547 
Q 5531 2547 5619 2878 
Q 5694 3141 5756 3572 
Q 5988 3472 6250 3378 
Q 6131 2866 6075 2684 
Q 5913 2109 5163 2109 
L 1619 2109 
Q 819 2109 819 2922 
L 819 5016 
L 5338 5016 
L 5338 3116 
L 4856 3116 
L 4856 3328 
L 1300 3328 
L 1300 2972 
Q 1300 2547 1731 2547 
z
M 4256 1922 
L 4750 1922 
L 4750 1178 
L 6250 1178 
L 6250 741 
L 4750 741 
L 4750 -841 
L 4256 -841 
L 4256 741 
L 2125 741 
Q 2050 -322 663 -866 
Q 513 -672 319 -441 
Q 1538 -22 1622 741 
L 144 741 
L 144 1178 
L 1678 1178 
Q 1703 1500 1700 1928 
L 2194 1928 
Q 2194 1509 2172 1178 
L 4256 1178 
L 4256 1922 
z
M 1300 4584 
L 1300 3759 
L 4856 3759 
L 4856 4584 
L 1300 4584 
z
" transform="scale(0.015625)"/>
       <path id="MicrosoftYaHei-6b65" d="M 188 2997 
L 1250 2997 
L 1250 4759 
L 1750 4759 
L 1750 2997 
L 3088 2997 
L 3088 5328 
L 3588 5328 
L 3588 4416 
L 5744 4416 
L 5744 3966 
L 3588 3966 
L 3588 2997 
L 6225 2997 
L 6225 2534 
L 188 2534 
L 188 2997 
z
M 188 -441 
Q 3744 -9 5400 1872 
L 5794 1484 
Q 4013 -453 375 -891 
Q 306 -691 188 -441 
z
M 1794 2147 
L 2194 1803 
Q 1369 947 613 322 
Q 469 497 275 691 
Q 1044 1291 1794 2147 
z
M 3038 2378 
L 3538 2378 
L 3538 528 
L 3038 528 
L 3038 2378 
z
" transform="scale(0.015625)"/>
       <path id="MicrosoftYaHei-4b" d="M 4069 0 
L 3213 0 
L 1394 2200 
Q 1300 2316 1266 2381 
L 1250 2381 
L 1250 0 
L 625 0 
L 625 4841 
L 1250 4841 
L 1250 2563 
L 1266 2563 
Q 1319 2647 1394 2741 
L 3150 4841 
L 3922 4841 
L 1891 2519 
L 4069 0 
z
" transform="scale(0.015625)"/>
       <path id="MicrosoftYaHei-61" d="M 628 3216 
Q 1144 3538 1819 3538 
Q 3069 3538 3069 2225 
L 3069 0 
L 2463 0 
L 2463 534 
L 2447 534 
Q 2088 -81 1388 -81 
Q 884 -81 587 191 
Q 291 463 291 925 
Q 291 1894 1438 2053 
L 2463 2197 
Q 2463 3044 1763 3044 
Q 1141 3044 628 2625 
L 628 3216 
z
M 1653 1625 
Q 1228 1569 1067 1412 
Q 906 1256 906 975 
Q 906 728 1081 572 
Q 1256 416 1544 416 
Q 1944 416 2203 697 
Q 2463 978 2463 1403 
L 2463 1734 
L 1653 1625 
z
" transform="scale(0.015625)"/>
       <path id="MicrosoftYaHei-66" d="M 2319 4594 
Q 2147 4684 1947 4684 
Q 1372 4684 1372 3972 
L 1372 3456 
L 2181 3456 
L 2181 2950 
L 1372 2950 
L 1372 0 
L 766 0 
L 766 2950 
L 175 2950 
L 175 3456 
L 766 3456 
L 766 4000 
Q 766 4556 1086 4873 
Q 1406 5191 1900 5191 
Q 2163 5191 2319 5131 
L 2319 4594 
z
" transform="scale(0.015625)"/>
       <path id="MicrosoftYaHei-6b" d="M 3484 0 
L 2650 0 
L 1172 1666 
L 1159 1666 
L 1159 0 
L 547 0 
L 547 5116 
L 1159 5116 
L 1159 1872 
L 1172 1872 
L 2575 3456 
L 3363 3456 
L 1800 1794 
L 3484 0 
z
" transform="scale(0.015625)"/>
      </defs>
      <use xlink:href="#MicrosoftYaHei-5f02"/>
      <use xlink:href="#MicrosoftYaHei-6b65" x="100"/>
      <use xlink:href="#MicrosoftYaHei-28" x="200"/>
      <use xlink:href="#MicrosoftYaHei-4b" x="233.398438"/>
      <use xlink:href="#MicrosoftYaHei-61" x="296.875"/>
      <use xlink:href="#MicrosoftYaHei-66" x="352.148438"/>
      <use xlink:href="#MicrosoftYaHei-6b" x="386.816406"/>
      <use xlink:href="#MicrosoftYaHei-61" x="441.259766"/>
      <use xlink:href="#MicrosoftYaHei-29" x="496.533203"/>
     </g>
    </g>
    <g id="patch_10">
     <path d="M 220.261506 86.041437 
L 240.261506 86.041437 
L 240.261506 79.041437 
L 220.261506 79.041437 
z
" style="fill: #9aa0aa"/>
    </g>
    <g id="text_18">
     <!-- 同步(写库) -->
     <g transform="translate(248.261506 86.041437) scale(0.1 -0.1)">
      <defs>
       <path id="MicrosoftYaHei-540c" d="M 1013 -772 
L 531 -772 
L 531 4959 
L 5856 4959 
L 5856 -47 
Q 5856 -741 5125 -741 
Q 4669 -741 4088 -716 
Q 4056 -497 4000 -216 
Q 4619 -272 5025 -272 
Q 5375 -272 5375 78 
L 5375 4497 
L 1013 4497 
L 1013 -772 
z
M 1875 2566 
L 4506 2566 
L 4506 597 
L 2338 597 
L 2338 272 
L 1875 272 
L 1875 2566 
z
M 4044 2116 
L 2338 2116 
L 2338 1047 
L 4044 1047 
L 4044 2116 
z
M 1363 3734 
L 5025 3734 
L 5025 3284 
L 1363 3284 
L 1363 3734 
z
" transform="scale(0.015625)"/>
       <path id="MicrosoftYaHei-5199" d="M 1125 1853 
L 1125 2303 
L 1550 4303 
L 2075 4303 
L 1922 3559 
L 5588 3559 
L 5588 3097 
L 1828 3097 
L 1669 2322 
L 5750 2322 
Q 5688 1016 5606 172 
Q 5500 -722 4550 -728 
Q 3956 -728 3194 -697 
Q 3163 -447 3106 -153 
Q 3781 -228 4456 -228 
Q 5019 -228 5100 272 
Q 5163 872 5206 1853 
L 1125 1853 
z
M 369 4959 
L 6038 4959 
L 6038 3784 
L 5525 3784 
L 5525 4491 
L 881 4491 
L 881 3784 
L 369 3784 
L 369 4959 
z
M 113 1072 
L 4725 1072 
L 4725 609 
L 113 609 
L 113 1072 
z
" transform="scale(0.015625)"/>
       <path id="MicrosoftYaHei-5e93" d="M 1338 778 
L 3706 778 
L 3706 1441 
L 1800 1441 
L 1800 1897 
Q 2125 2369 2409 2922 
L 1500 2922 
L 1500 3372 
L 2628 3372 
Q 2784 3706 2925 4066 
L 3438 3928 
Q 3309 3641 3178 3372 
L 5913 3372 
L 5913 2922 
L 2953 2922 
Q 2666 2366 2369 1891 
L 3706 1891 
L 3706 2684 
L 4206 2684 
L 4206 1891 
L 5919 1891 
L 5919 1441 
L 4206 1441 
L 4206 778 
L 6225 778 
L 6225 328 
L 4206 328 
L 4206 -828 
L 3706 -828 
L 3706 328 
L 1338 328 
L 1338 778 
z
M 2981 5122 
L 3363 5403 
Q 3663 5116 3919 4778 
L 3653 4584 
L 6238 4584 
L 6238 4134 
L 1206 4134 
L 1206 2353 
Q 1213 203 388 -878 
Q 231 -678 31 -453 
Q 713 441 706 2266 
L 706 4584 
L 3416 4584 
Q 3213 4856 2981 5122 
z
" transform="scale(0.015625)"/>
      </defs>
      <use xlink:href="#MicrosoftYaHei-540c"/>
      <use xlink:href="#MicrosoftYaHei-6b65" x="100"/>
      <use xlink:href="#MicrosoftYaHei-28" x="200"/>
      <use xlink:href="#MicrosoftYaHei-5199" x="233.398438"/>
      <use xlink:href="#MicrosoftYaHei-5e93" x="333.398438"/>
      <use xlink:href="#MicrosoftYaHei-29" x="433.398438"/>
     </g>
    </g>
   </g>
  </g>
  <g id="axes_2">
   <g id="patch_11">
    <path d="M 363.014744 308.592 
L 626.796562 308.592 
L 626.796562 53.568 
L 363.014744 53.568 
z
" style="fill: #ffffff"/>
   </g>
   <g id="matplotlib.axis_3">
    <g id="xtick_3">
     <g id="line2d_17">
      <g>
       <use xlink:href="#mda32c58a23" x="425.195871" y="308.592" style="stroke: #000000; stroke-width: 0.8"/>
      </g>
     </g>
     <g id="text_19">
      <!-- 2000 -->
      <g transform="translate(413.467746 323.58575) scale(0.1 -0.1)">
       <use xlink:href="#MicrosoftYaHei-32"/>
       <use xlink:href="#MicrosoftYaHei-30" x="58.642578"/>
       <use xlink:href="#MicrosoftYaHei-30" x="117.285156"/>
       <use xlink:href="#MicrosoftYaHei-30" x="175.927734"/>
      </g>
     </g>
    </g>
    <g id="xtick_4">
     <g id="line2d_18">
      <g>
       <use xlink:href="#mda32c58a23" x="564.615436" y="308.592" style="stroke: #000000; stroke-width: 0.8"/>
      </g>
     </g>
     <g id="text_20">
      <!-- 3000 -->
      <g transform="translate(552.887311 323.58575) scale(0.1 -0.1)">
       <use xlink:href="#MicrosoftYaHei-33"/>
       <use xlink:href="#MicrosoftYaHei-30" x="58.642578"/>
       <use xlink:href="#MicrosoftYaHei-30" x="117.285156"/>
       <use xlink:href="#MicrosoftYaHei-30" x="175.927734"/>
      </g>
     </g>
    </g>
    <g id="text_21">
     <!-- 并发抢课请求数 (人) -->
     <g transform="translate(450.085341 338.065437) scale(0.1 -0.1)">
      <use xlink:href="#MicrosoftYaHei-5e76"/>
      <use xlink:href="#MicrosoftYaHei-53d1" x="100"/>
      <use xlink:href="#MicrosoftYaHei-62a2" x="200"/>
      <use xlink:href="#MicrosoftYaHei-8bfe" x="300"/>
      <use xlink:href="#MicrosoftYaHei-8bf7" x="400"/>
      <use xlink:href="#MicrosoftYaHei-6c42" x="500"/>
      <use xlink:href="#MicrosoftYaHei-6570" x="600"/>
      <use xlink:href="#MicrosoftYaHei-20" x="700"/>
      <use xlink:href="#MicrosoftYaHei-28" x="729.589844"/>
      <use xlink:href="#MicrosoftYaHei-4eba" x="762.988281"/>
      <use xlink:href="#MicrosoftYaHei-29" x="862.988281"/>
     </g>
    </g>
   </g>
   <g id="matplotlib.axis_4">
    <g id="ytick_8">
     <g id="line2d_19">
      <path d="M 363.014744 308.592 
L 626.796562 308.592 
" clip-path="url(#p03802acc7e)" style="fill: none; stroke: #e7e7ec; stroke-linecap: square"/>
     </g>
     <g id="line2d_20">
      <g>
       <use xlink:href="#m326bfc8494" x="363.014744" y="308.592" style="stroke: #000000; stroke-width: 0.8"/>
      </g>
     </g>
     <g id="text_22">
      <!-- 0 -->
      <g transform="translate(350.150682 312.588875) scale(0.1 -0.1)">
       <use xlink:href="#MicrosoftYaHei-30"/>
      </g>
     </g>
    </g>
    <g id="ytick_9">
     <g id="line2d_21">
      <path d="M 363.014744 275.986281 
L 626.796562 275.986281 
" clip-path="url(#p03802acc7e)" style="fill: none; stroke: #e7e7ec; stroke-linecap: square"/>
     </g>
     <g id="line2d_22">
      <g>
       <use xlink:href="#m326bfc8494" x="363.014744" y="275.986281" style="stroke: #000000; stroke-width: 0.8"/>
      </g>
     </g>
     <g id="text_23">
      <!-- 1000 -->
      <g transform="translate(332.558494 279.983156) scale(0.1 -0.1)">
       <use xlink:href="#MicrosoftYaHei-31"/>
       <use xlink:href="#MicrosoftYaHei-30" x="58.642578"/>
       <use xlink:href="#MicrosoftYaHei-30" x="117.285156"/>
       <use xlink:href="#MicrosoftYaHei-30" x="175.927734"/>
      </g>
     </g>
    </g>
    <g id="ytick_10">
     <g id="line2d_23">
      <path d="M 363.014744 243.380562 
L 626.796562 243.380562 
" clip-path="url(#p03802acc7e)" style="fill: none; stroke: #e7e7ec; stroke-linecap: square"/>
     </g>
     <g id="line2d_24">
      <g>
       <use xlink:href="#m326bfc8494" x="363.014744" y="243.380562" style="stroke: #000000; stroke-width: 0.8"/>
      </g>
     </g>
     <g id="text_24">
      <!-- 2000 -->
      <g transform="translate(332.558494 247.377437) scale(0.1 -0.1)">
       <use xlink:href="#MicrosoftYaHei-32"/>
       <use xlink:href="#MicrosoftYaHei-30" x="58.642578"/>
       <use xlink:href="#MicrosoftYaHei-30" x="117.285156"/>
       <use xlink:href="#MicrosoftYaHei-30" x="175.927734"/>
      </g>
     </g>
    </g>
    <g id="ytick_11">
     <g id="line2d_25">
      <path d="M 363.014744 210.774843 
L 626.796562 210.774843 
" clip-path="url(#p03802acc7e)" style="fill: none; stroke: #e7e7ec; stroke-linecap: square"/>
     </g>
     <g id="line2d_26">
      <g>
       <use xlink:href="#m326bfc8494" x="363.014744" y="210.774843" style="stroke: #000000; stroke-width: 0.8"/>
      </g>
     </g>
     <g id="text_25">
      <!-- 3000 -->
      <g transform="translate(332.558494 214.771718) scale(0.1 -0.1)">
       <use xlink:href="#MicrosoftYaHei-33"/>
       <use xlink:href="#MicrosoftYaHei-30" x="58.642578"/>
       <use xlink:href="#MicrosoftYaHei-30" x="117.285156"/>
       <use xlink:href="#MicrosoftYaHei-30" x="175.927734"/>
      </g>
     </g>
    </g>
    <g id="ytick_12">
     <g id="line2d_27">
      <path d="M 363.014744 178.169124 
L 626.796562 178.169124 
" clip-path="url(#p03802acc7e)" style="fill: none; stroke: #e7e7ec; stroke-linecap: square"/>
     </g>
     <g id="line2d_28">
      <g>
       <use xlink:href="#m326bfc8494" x="363.014744" y="178.169124" style="stroke: #000000; stroke-width: 0.8"/>
      </g>
     </g>
     <g id="text_26">
      <!-- 4000 -->
      <g transform="translate(332.558494 182.165999) scale(0.1 -0.1)">
       <use xlink:href="#MicrosoftYaHei-34"/>
       <use xlink:href="#MicrosoftYaHei-30" x="58.642578"/>
       <use xlink:href="#MicrosoftYaHei-30" x="117.285156"/>
       <use xlink:href="#MicrosoftYaHei-30" x="175.927734"/>
      </g>
     </g>
    </g>
    <g id="ytick_13">
     <g id="line2d_29">
      <path d="M 363.014744 145.563406 
L 626.796562 145.563406 
" clip-path="url(#p03802acc7e)" style="fill: none; stroke: #e7e7ec; stroke-linecap: square"/>
     </g>
     <g id="line2d_30">
      <g>
       <use xlink:href="#m326bfc8494" x="363.014744" y="145.563406" style="stroke: #000000; stroke-width: 0.8"/>
      </g>
     </g>
     <g id="text_27">
      <!-- 5000 -->
      <g transform="translate(332.558494 149.560281) scale(0.1 -0.1)">
       <use xlink:href="#MicrosoftYaHei-35"/>
       <use xlink:href="#MicrosoftYaHei-30" x="58.642578"/>
       <use xlink:href="#MicrosoftYaHei-30" x="117.285156"/>
       <use xlink:href="#MicrosoftYaHei-30" x="175.927734"/>
      </g>
     </g>
    </g>
    <g id="ytick_14">
     <g id="line2d_31">
      <path d="M 363.014744 112.957687 
L 626.796562 112.957687 
" clip-path="url(#p03802acc7e)" style="fill: none; stroke: #e7e7ec; stroke-linecap: square"/>
     </g>
     <g id="line2d_32">
      <g>
       <use xlink:href="#m326bfc8494" x="363.014744" y="112.957687" style="stroke: #000000; stroke-width: 0.8"/>
      </g>
     </g>
     <g id="text_28">
      <!-- 6000 -->
      <g transform="translate(332.558494 116.954562) scale(0.1 -0.1)">
       <use xlink:href="#MicrosoftYaHei-36"/>
       <use xlink:href="#MicrosoftYaHei-30" x="58.642578"/>
       <use xlink:href="#MicrosoftYaHei-30" x="117.285156"/>
       <use xlink:href="#MicrosoftYaHei-30" x="175.927734"/>
      </g>
     </g>
    </g>
    <g id="ytick_15">
     <g id="line2d_33">
      <path d="M 363.014744 80.351968 
L 626.796562 80.351968 
" clip-path="url(#p03802acc7e)" style="fill: none; stroke: #e7e7ec; stroke-linecap: square"/>
     </g>
     <g id="line2d_34">
      <g>
       <use xlink:href="#m326bfc8494" x="363.014744" y="80.351968" style="stroke: #000000; stroke-width: 0.8"/>
      </g>
     </g>
     <g id="text_29">
      <!-- 7000 -->
      <g transform="translate(332.558494 84.348843) scale(0.1 -0.1)">
       <use xlink:href="#MicrosoftYaHei-37"/>
       <use xlink:href="#MicrosoftYaHei-30" x="58.642578"/>
       <use xlink:href="#MicrosoftYaHei-30" x="117.285156"/>
       <use xlink:href="#MicrosoftYaHei-30" x="175.927734"/>
      </g>
     </g>
    </g>
    <g id="text_30">
     <!-- P95 (ms) -->
     <g transform="translate(326.072557 201.82375) rotate(-90) scale(0.1 -0.1)">
      <defs>
       <path id="MicrosoftYaHei-50" d="M 1250 1809 
L 1250 0 
L 625 0 
L 625 4841 
L 2000 4841 
Q 2784 4841 3217 4462 
Q 3650 4084 3650 3381 
Q 3650 2669 3144 2226 
Q 2638 1784 1878 1809 
L 1250 1809 
z
M 1250 4291 
L 1250 2359 
L 1828 2359 
Q 2400 2359 2697 2617 
Q 2994 2875 2994 3356 
Q 2994 4291 1888 4291 
L 1250 4291 
z
" transform="scale(0.015625)"/>
       <path id="MicrosoftYaHei-39" d="M 578 656 
Q 978 425 1441 425 
Q 2091 425 2448 937 
Q 2806 1450 2806 2394 
Q 2800 2388 2794 2394 
Q 2475 1788 1722 1788 
Q 1113 1788 713 2206 
Q 313 2625 313 3294 
Q 313 4006 750 4464 
Q 1188 4922 1884 4922 
Q 2606 4922 3012 4355 
Q 3419 3788 3419 2703 
Q 3419 1363 2894 641 
Q 2369 -81 1441 -81 
Q 931 -81 578 84 
L 578 656 
z
M 931 3372 
Q 931 2884 1181 2598 
Q 1431 2313 1872 2313 
Q 2253 2313 2512 2573 
Q 2772 2834 2772 3206 
Q 2772 3728 2514 4070 
Q 2256 4413 1834 4413 
Q 1444 4413 1187 4116 
Q 931 3819 931 3372 
z
" transform="scale(0.015625)"/>
       <path id="MicrosoftYaHei-6d" d="M 5522 0 
L 4909 0 
L 4909 1984 
Q 4909 2547 4734 2789 
Q 4559 3031 4159 3031 
Q 3822 3031 3581 2715 
Q 3341 2400 3341 1969 
L 3341 0 
L 2728 0 
L 2728 2047 
Q 2728 3031 1969 3031 
Q 1619 3031 1389 2731 
Q 1159 2431 1159 1966 
L 1159 0 
L 547 0 
L 547 3456 
L 1159 3456 
L 1159 2909 
L 1172 2909 
Q 1541 3538 2250 3538 
Q 2597 3538 2862 3347 
Q 3128 3156 3231 2831 
Q 3616 3538 4381 3538 
Q 5522 3538 5522 2131 
L 5522 0 
z
" transform="scale(0.015625)"/>
      </defs>
      <use xlink:href="#MicrosoftYaHei-50"/>
      <use xlink:href="#MicrosoftYaHei-39" x="61.181641"/>
      <use xlink:href="#MicrosoftYaHei-35" x="119.824219"/>
      <use xlink:href="#MicrosoftYaHei-20" x="178.466797"/>
      <use xlink:href="#MicrosoftYaHei-28" x="208.056641"/>
      <use xlink:href="#MicrosoftYaHei-6d" x="241.455078"/>
      <use xlink:href="#MicrosoftYaHei-73" x="335.15625"/>
      <use xlink:href="#MicrosoftYaHei-29" x="381.445312"/>
     </g>
    </g>
   </g>
   <g id="patch_12">
    <path d="M 375.004827 308.592 
L 425.195871 308.592 
L 425.195871 120.783059 
L 375.004827 120.783059 
z
" clip-path="url(#p03802acc7e)" style="fill: #a4233a"/>
   </g>
   <g id="patch_13">
    <path d="M 514.424393 308.592 
L 564.615436 308.592 
L 564.615436 65.712 
L 514.424393 65.712 
z
" clip-path="url(#p03802acc7e)" style="fill: #a4233a"/>
   </g>
   <g id="patch_14">
    <path d="M 425.195871 308.592 
L 475.386914 308.592 
L 475.386914 204.188488 
L 425.195871 204.188488 
z
" clip-path="url(#p03802acc7e)" style="fill: #9aa0aa"/>
   </g>
   <g id="patch_15">
    <path d="M 564.615436 308.592 
L 614.80648 308.592 
L 614.80648 94.665878 
L 564.615436 94.665878 
z
" clip-path="url(#p03802acc7e)" style="fill: #9aa0aa"/>
   </g>
   <g id="patch_16">
    <path d="M 363.014744 308.592 
L 363.014744 53.568 
" style="fill: none; stroke: #c9ccd2; stroke-width: 0.8; stroke-linejoin: miter; stroke-linecap: square"/>
   </g>
   <g id="patch_17">
    <path d="M 363.014744 308.592 
L 626.796562 308.592 
" style="fill: none; stroke: #c9ccd2; stroke-width: 0.8; stroke-linejoin: miter; stroke-linecap: square"/>
   </g>
   <g id="text_31">
    <!-- 5760 -->
    <g style="fill: #1d1d1f" transform="translate(389.545036 116.783059) scale(0.09 -0.09)">
     <use xlink:href="#MicrosoftYaHei-35"/>
     <use xlink:href="#MicrosoftYaHei-37" x="58.642578"/>
     <use xlink:href="#MicrosoftYaHei-36" x="117.285156"/>
     <use xlink:href="#MicrosoftYaHei-30" x="175.927734"/>
    </g>
   </g>
   <g id="text_32">
    <!-- 3202 -->
    <g style="fill: #1d1d1f" transform="translate(439.73608 200.188488) scale(0.09 -0.09)">
     <use xlink:href="#MicrosoftYaHei-33"/>
     <use xlink:href="#MicrosoftYaHei-32" x="58.642578"/>
     <use xlink:href="#MicrosoftYaHei-30" x="117.285156"/>
     <use xlink:href="#MicrosoftYaHei-32" x="175.927734"/>
    </g>
   </g>
   <g id="text_33">
    <!-- 7449 -->
    <g style="fill: #1d1d1f" transform="translate(528.964602 61.712) scale(0.09 -0.09)">
     <use xlink:href="#MicrosoftYaHei-37"/>
     <use xlink:href="#MicrosoftYaHei-34" x="58.642578"/>
     <use xlink:href="#MicrosoftYaHei-34" x="117.285156"/>
     <use xlink:href="#MicrosoftYaHei-39" x="175.927734"/>
    </g>
   </g>
   <g id="text_34">
    <!-- 6561 -->
    <g style="fill: #1d1d1f" transform="translate(579.155646 90.665878) scale(0.09 -0.09)">
     <use xlink:href="#MicrosoftYaHei-36"/>
     <use xlink:href="#MicrosoftYaHei-35" x="58.642578"/>
     <use xlink:href="#MicrosoftYaHei-36" x="117.285156"/>
     <use xlink:href="#MicrosoftYaHei-31" x="175.927734"/>
    </g>
   </g>
   <g id="text_35">
    <!-- P95 延迟对比 -->
    <g style="fill: #1d1d1f" transform="translate(458.421903 47.568) scale(0.12 -0.12)">
     <defs>
      <path id="MicrosoftYaHei-5ef6" d="M 600 2066 
Q 825 1325 1234 834 
Q 1594 1525 1688 2391 
L 331 2391 
L 331 2853 
L 1544 4259 
L 150 4259 
L 150 4722 
L 2156 4722 
L 2156 4247 
L 956 2853 
L 2181 2853 
L 2181 2434 
Q 2063 1325 1597 478 
Q 2300 -88 3394 -128 
Q 4706 -184 6319 -97 
Q 6213 -359 6113 -616 
Q 4369 -622 3519 -603 
Q 2188 -597 1344 72 
Q 975 -450 450 -859 
Q 331 -672 125 -459 
Q 631 -72 978 416 
Q 463 997 188 1909 
L 600 2066 
z
M 2813 3547 
L 3300 3547 
L 3300 1134 
L 4144 1134 
L 4144 4416 
Q 3444 4369 2613 4328 
Q 2556 4609 2506 4797 
Q 4213 4853 5944 5053 
L 6050 4578 
Q 5441 4509 4631 4450 
L 4631 3128 
L 5981 3128 
L 5981 2666 
L 4631 2666 
L 4631 1134 
L 6094 1134 
L 6094 666 
L 2813 666 
L 2813 3547 
z
" transform="scale(0.015625)"/>
      <path id="MicrosoftYaHei-8fdf" d="M 2525 4953 
L 5719 4953 
L 5719 2266 
L 5225 2266 
L 5225 2616 
L 3009 2616 
Q 2928 922 2125 184 
Q 1975 372 1775 597 
Q 2525 1253 2525 3091 
L 2525 4953 
z
M 2906 -134 
L 4334 -166 
L 6325 -103 
Q 6219 -359 6125 -609 
L 4344 -622 
L 2844 -603 
Q 1650 -578 1156 134 
Q 744 -228 369 -697 
L 100 -159 
Q 384 88 931 563 
L 931 2672 
L 131 2672 
L 131 3134 
L 1431 3134 
L 1431 475 
Q 1884 -106 2906 -134 
z
M 5225 4491 
L 3019 4491 
L 3019 3078 
L 5225 3078 
L 5225 4491 
z
M 3544 1922 
L 3869 2272 
Q 4944 1534 6106 697 
L 5769 259 
Q 4669 1128 3544 1922 
z
M 794 5278 
Q 1188 4809 1750 4072 
Q 1525 3941 1300 3778 
Q 763 4572 413 5003 
L 794 5278 
z
" transform="scale(0.015625)"/>
     </defs>
     <use xlink:href="#MicrosoftYaHei-50"/>
     <use xlink:href="#MicrosoftYaHei-39" x="61.181641"/>
     <use xlink:href="#MicrosoftYaHei-35" x="119.824219"/>
     <use xlink:href="#MicrosoftYaHei-20" x="178.466797"/>
     <use xlink:href="#MicrosoftYaHei-5ef6" x="208.056641"/>
     <use xlink:href="#MicrosoftYaHei-8fdf" x="308.056641"/>
     <use xlink:href="#MicrosoftYaHei-5bf9" x="408.056641"/>
     <use xlink:href="#MicrosoftYaHei-6bd4" x="508.056641"/>
    </g>
   </g>
   <g id="legend_2">
    <g id="patch_18">
     <path d="M 372.014744 70.56175 
L 392.014744 70.56175 
L 392.014744 63.56175 
L 372.014744 63.56175 
z
" style="fill: #a4233a"/>
    </g>
    <g id="text_36">
     <!-- 异步(Kafka) -->
     <g transform="translate(400.014744 70.56175) scale(0.1 -0.1)">
      <use xlink:href="#MicrosoftYaHei-5f02"/>
      <use xlink:href="#MicrosoftYaHei-6b65" x="100"/>
      <use xlink:href="#MicrosoftYaHei-28" x="200"/>
      <use xlink:href="#MicrosoftYaHei-4b" x="233.398438"/>
      <use xlink:href="#MicrosoftYaHei-61" x="296.875"/>
      <use xlink:href="#MicrosoftYaHei-66" x="352.148438"/>
      <use xlink:href="#MicrosoftYaHei-6b" x="386.816406"/>
      <use xlink:href="#MicrosoftYaHei-61" x="441.259766"/>
      <use xlink:href="#MicrosoftYaHei-29" x="496.533203"/>
     </g>
    </g>
    <g id="patch_19">
     <path d="M 372.014744 86.041437 
L 392.014744 86.041437 
L 392.014744 79.041437 
L 372.014744 79.041437 
z
" style="fill: #9aa0aa"/>
    </g>
    <g id="text_37">
     <!-- 同步(写库) -->
     <g transform="translate(400.014744 86.041437) scale(0.1 -0.1)">
      <use xlink:href="#MicrosoftYaHei-540c"/>
      <use xlink:href="#MicrosoftYaHei-6b65" x="100"/>
      <use xlink:href="#MicrosoftYaHei-28" x="200"/>
      <use xlink:href="#MicrosoftYaHei-5199" x="233.398438"/>
      <use xlink:href="#MicrosoftYaHei-5e93" x="333.398438"/>
      <use xlink:href="#MicrosoftYaHei-29" x="433.398438"/>
     </g>
    </g>
   </g>
  </g>
  <g id="text_38">
   <!-- 两种落库策略实测对比（容量=2000，开放瞬间全量并发，2000 winner 全部落库） -->
   <g style="fill: #1d1d1f" transform="translate(94.387891 17.192187) scale(0.125 -0.125)">
    <defs>
     <path id="MicrosoftYaHei-4e24" d="M 163 4991 
L 6238 4991 
L 6238 4534 
L 4325 4534 
Q 4328 4084 4316 3697 
L 5856 3697 
L 5856 3 
Q 5856 -716 5138 -716 
Q 4800 -716 4181 -703 
Q 4150 -484 4094 -216 
Q 4688 -259 4994 -259 
Q 5388 -259 5388 122 
L 5388 3247 
L 4297 3247 
Q 4269 2634 4172 2138 
Q 4859 1500 5325 966 
L 5000 616 
Q 4519 1194 4038 1678 
Q 3734 834 3050 147 
Q 2913 303 2663 484 
Q 3844 1559 3844 3247 
L 2538 3247 
Q 2506 2591 2444 2316 
Q 2956 1897 3288 1603 
L 3013 1191 
Q 2675 1541 2325 1869 
Q 2044 1025 1381 334 
Q 1231 503 1019 691 
Q 2056 1653 2084 3247 
L 1000 3247 
L 1000 -747 
L 531 -747 
L 531 3697 
L 2103 3697 
Q 2116 4091 2113 4534 
L 163 4534 
L 163 4991 
z
M 2556 3697 
L 3863 3697 
Q 3875 4094 3872 4534 
L 2569 4534 
Q 2569 4084 2556 3697 
z
" transform="scale(0.015625)"/>
     <path id="MicrosoftYaHei-79cd" d="M 2700 4066 
L 4113 4066 
L 4113 5316 
L 4588 5316 
L 4588 4066 
L 6006 4066 
L 6006 1053 
L 5556 1053 
L 5556 1353 
L 4588 1353 
L 4588 -841 
L 4113 -841 
L 4113 1353 
L 3150 1353 
L 3150 1053 
L 2700 1053 
L 2700 4066 
z
M 88 878 
Q 669 1691 1063 2972 
L 119 2972 
L 119 3416 
L 1119 3416 
L 1119 4434 
Q 738 4403 294 4372 
Q 263 4584 200 4828 
Q 1475 4897 2425 5034 
L 2538 4559 
Q 2141 4519 1581 4472 
L 1581 3416 
L 2475 3416 
L 2475 2972 
L 1581 2972 
L 1581 2159 
L 1850 2378 
Q 2188 2028 2606 1516 
L 2225 1203 
Q 1888 1669 1581 2025 
L 1581 -828 
L 1119 -828 
L 1119 1894 
Q 791 972 306 341 
Q 206 603 88 878 
z
M 5556 3634 
L 4588 3634 
L 4588 1784 
L 5556 1784 
L 5556 3634 
z
M 3150 1784 
L 4113 1784 
L 4113 3634 
L 3150 3634 
L 3150 1784 
z
" transform="scale(0.015625)"/>
     <path id="MicrosoftYaHei-843d" d="M 1663 2447 
Q 2500 3172 2919 4053 
L 3388 3953 
Q 3278 3744 3156 3547 
L 5594 3547 
L 5594 3147 
Q 5178 2559 4447 2122 
Q 5256 1813 6344 1753 
Q 6219 1491 6138 1272 
Q 4850 1447 3969 1866 
Q 3063 1438 1781 1191 
Q 1694 1384 1569 1616 
Q 2675 1772 3513 2116 
Q 3009 2434 2681 2856 
Q 2369 2456 2000 2109 
Q 1856 2272 1663 2447 
z
M 2288 1203 
L 5519 1203 
L 5519 -822 
L 5056 -822 
L 5056 -491 
L 2750 -491 
L 2750 -822 
L 2288 -822 
L 2288 1203 
z
M 138 4691 
L 1863 4691 
L 1863 5328 
L 2338 5328 
L 2338 4691 
L 4075 4691 
L 4075 5328 
L 4550 5328 
L 4550 4691 
L 6263 4691 
L 6263 4266 
L 4550 4266 
L 4550 3809 
L 4075 3809 
L 4075 4266 
L 2338 4266 
L 2338 3784 
L 1863 3784 
L 1863 4266 
L 138 4266 
L 138 4691 
z
M 5056 791 
L 2750 791 
L 2750 -78 
L 5056 -78 
L 5056 791 
z
M 181 -622 
Q 619 278 1031 1478 
Q 1244 1359 1500 1247 
Q 1119 322 700 -834 
L 181 -622 
z
M 5069 3147 
L 2972 3147 
Q 3381 2656 3981 2334 
Q 4622 2675 5069 3147 
z
M 44 2459 
L 325 2828 
Q 850 2522 1356 2172 
Q 1181 1953 1038 1759 
Q 575 2122 44 2459 
z
M 475 3641 
L 756 3991 
Q 1350 3616 1738 3316 
Q 1569 3109 1438 2928 
Q 956 3316 475 3641 
z
" transform="scale(0.015625)"/>
     <path id="MicrosoftYaHei-7b56" d="M 6306 -128 
Q 6094 -397 5969 -591 
Q 4284 122 3438 1069 
L 3438 -841 
L 2975 -841 
L 2975 1053 
Q 1894 6 413 -666 
Q 250 -447 88 -272 
Q 1709 366 2975 1622 
L 2975 2034 
L 1269 2034 
L 1269 828 
L 813 828 
L 813 2422 
L 2975 2422 
L 2975 2928 
L 263 2928 
L 263 3322 
L 2975 3322 
L 2975 3703 
L 3438 3703 
L 3438 3322 
L 6156 3322 
L 6156 2928 
L 3438 2928 
L 3438 2422 
L 5706 2422 
L 5706 1403 
Q 5706 784 5069 784 
Q 4813 784 4513 803 
Q 4488 1047 4438 1272 
Q 4763 1222 4950 1222 
Q 5250 1222 5250 1516 
L 5250 2034 
L 3438 2034 
L 3438 1625 
Q 4619 372 6306 -128 
z
M 1294 5347 
L 1831 5347 
Q 1688 5041 1513 4759 
L 3325 4759 
L 3325 4372 
L 1244 4372 
Q 875 3878 388 3459 
Q 263 3609 75 3797 
Q 856 4428 1294 5347 
z
M 4006 5347 
L 4513 5347 
Q 4375 5031 4231 4759 
L 6225 4759 
L 6225 4372 
L 4013 4372 
Q 3778 3981 3525 3697 
Q 3388 3797 3088 3934 
Q 3663 4553 4006 5347 
z
M 4781 3416 
Q 4644 3628 4263 4072 
L 4588 4303 
Q 4919 3991 5150 3697 
L 4781 3416 
z
M 1988 3416 
Q 1750 3728 1469 4053 
L 1794 4284 
Q 2094 3997 2356 3697 
L 1988 3416 
z
" transform="scale(0.015625)"/>
     <path id="MicrosoftYaHei-7565" d="M 413 4716 
L 2600 4716 
L 2600 -222 
L 2188 -222 
L 2188 97 
L 825 97 
L 825 -347 
L 413 -347 
L 413 4716 
z
M 2638 3378 
Q 3269 4222 3719 5341 
L 4169 5197 
Q 4044 4913 3919 4653 
L 5888 4653 
L 5888 4234 
Q 5453 3375 4819 2756 
Q 5434 2328 6331 2109 
Q 6194 1853 6094 1591 
Q 5122 1919 4466 2450 
Q 3797 1925 2906 1516 
Q 2756 1772 2619 1947 
Q 3463 2269 4125 2763 
Q 3747 3159 3428 3734 
Q 3200 3353 2969 3047 
Q 2781 3266 2638 3378 
z
M 3200 1584 
L 5756 1584 
L 5756 -847 
L 5294 -847 
L 5294 -547 
L 3663 -547 
L 3663 -847 
L 3200 -847 
L 3200 1584 
z
M 5294 1147 
L 3663 1147 
L 3663 -109 
L 5294 -109 
L 5294 1147 
z
M 5363 4228 
L 3703 4228 
L 3666 4159 
Q 4013 3475 4466 3041 
Q 4963 3500 5363 4228 
z
M 825 516 
L 1300 516 
L 1300 2209 
L 825 2209 
L 825 516 
z
M 1713 516 
L 2188 516 
L 2188 2209 
L 1713 2209 
L 1713 516 
z
M 2188 4297 
L 1713 4297 
L 1713 2628 
L 2188 2628 
L 2188 4297 
z
M 825 2628 
L 1300 2628 
L 1300 4297 
L 825 4297 
L 825 2628 
z
" transform="scale(0.015625)"/>
     <path id="MicrosoftYaHei-5b9e" d="M 113 -397 
Q 2419 34 3081 972 
L 213 972 
L 213 1434 
L 3313 1434 
Q 3525 2084 3506 3703 
L 4031 3703 
Q 4031 2097 3856 1434 
L 6225 1434 
L 6225 972 
L 3681 972 
Q 3631 872 3563 759 
Q 4900 197 6181 -403 
L 5906 -878 
Q 4569 -197 3263 391 
Q 2413 -441 413 -891 
Q 269 -616 113 -397 
z
M 331 4422 
L 3194 4422 
Q 3038 4703 2775 5078 
L 3231 5334 
Q 3438 5059 3731 4609 
L 3388 4422 
L 6063 4422 
L 6063 3303 
L 5563 3303 
L 5563 3959 
L 831 3959 
L 831 3303 
L 331 3303 
L 331 4422 
z
M 1100 2734 
Q 1819 2409 2450 2053 
L 2181 1622 
Q 1556 2003 863 2334 
L 1100 2734 
z
M 1663 3691 
Q 2388 3341 2981 2984 
L 2700 2559 
Q 2119 2934 1419 3322 
L 1663 3691 
z
" transform="scale(0.015625)"/>
     <path id="MicrosoftYaHei-6d4b" d="M 875 1753 
Q 1175 1597 1369 1522 
Q 950 -41 763 -784 
L 250 -547 
Q 619 497 875 1753 
z
M 638 5166 
Q 1019 4847 1588 4303 
Q 1381 4103 1213 3928 
Q 756 4434 313 4853 
L 638 5166 
z
M 356 3559 
Q 881 3134 1350 2716 
Q 1188 2547 988 2322 
Q 425 2878 50 3216 
L 356 3559 
z
M 5575 5284 
L 6031 5284 
L 6031 -34 
Q 6031 -753 5338 -753 
Q 5038 -753 4625 -741 
Q 4600 -509 4538 -228 
Q 4938 -272 5219 -272 
Q 5575 -272 5575 84 
L 5575 5284 
z
M 5038 634 
L 4600 634 
L 4600 4778 
L 5038 4778 
L 5038 634 
z
M 1706 4941 
L 4063 4941 
L 4063 991 
L 3613 991 
L 3613 4503 
L 2156 4503 
L 2156 991 
L 1706 991 
L 1706 4941 
z
M 2681 3966 
L 3138 3966 
L 3138 2416 
Q 3138 1466 2963 891 
Q 3775 266 4375 -234 
L 4038 -616 
Q 3538 -141 2800 472 
Q 2413 -297 1406 -884 
Q 1269 -684 1100 -484 
Q 2031 53 2375 709 
Q 2681 1278 2681 2403 
L 2681 3966 
z
" transform="scale(0.015625)"/>
     <path id="MicrosoftYaHei-ff08" d="M 5288 -1100 
Q 4172 119 4172 1850 
Q 4172 3603 5288 4838 
L 5825 4838 
Q 4716 3572 4716 1856 
Q 4716 166 5819 -1100 
L 5288 -1100 
z
" transform="scale(0.015625)"/>
     <path id="MicrosoftYaHei-5bb9" d="M 3550 3147 
Q 3500 3091 3444 3022 
Q 4644 1872 6313 1447 
Q 6106 1134 6006 916 
Q 5594 1066 5225 1247 
L 5225 -859 
L 4725 -859 
L 4725 -578 
L 1669 -578 
L 1669 -859 
L 1169 -859 
L 1169 1191 
Q 763 972 338 797 
Q 225 1028 63 1241 
Q 2000 2059 3025 3228 
L 3550 3147 
z
M 363 4572 
L 3038 4572 
Q 2900 4822 2725 5109 
L 3206 5328 
Q 3438 4972 3644 4572 
L 6031 4572 
L 6031 3522 
L 5525 3522 
L 5525 4122 
L 863 4122 
L 863 3497 
L 363 3497 
L 363 4572 
z
M 4725 934 
L 1669 934 
L 1669 -128 
L 4725 -128 
L 4725 934 
z
M 3163 2684 
Q 2394 1928 1494 1384 
L 4950 1384 
Q 3869 1953 3163 2684 
z
M 2338 3847 
L 2638 3441 
Q 1488 2734 706 2359 
Q 594 2566 419 2791 
Q 1494 3259 2338 3847 
z
M 4006 3841 
Q 4944 3409 5938 2859 
L 5650 2416 
Q 4875 2891 3744 3453 
L 4006 3841 
z
" transform="scale(0.015625)"/>
     <path id="MicrosoftYaHei-91cf" d="M 113 -278 
L 2981 -278 
L 2981 78 
L 475 78 
L 475 403 
L 2981 403 
L 2981 759 
L 1494 759 
L 1494 597 
L 1069 597 
L 1069 2516 
L 5350 2516 
L 5350 597 
L 4925 597 
L 4925 759 
L 3419 759 
L 3419 403 
L 5931 403 
L 5931 78 
L 3419 78 
L 3419 -278 
L 6288 -278 
L 6288 -616 
L 113 -616 
L 113 -278 
z
M 1119 5072 
L 5306 5072 
L 5306 3284 
L 4881 3284 
L 4881 3453 
L 1544 3453 
L 1544 3284 
L 1119 3284 
L 1119 5072 
z
M 163 3153 
L 6263 3153 
L 6263 2816 
L 163 2816 
L 163 3153 
z
M 1544 3778 
L 4881 3778 
L 4881 4116 
L 1544 4116 
L 1544 3778 
z
M 4881 4747 
L 1544 4747 
L 1544 4416 
L 4881 4416 
L 4881 4747 
z
M 3419 1084 
L 4925 1084 
L 4925 1491 
L 3419 1491 
L 3419 1084 
z
M 1494 1084 
L 2981 1084 
L 2981 1491 
L 1494 1491 
L 1494 1084 
z
M 4925 2191 
L 3419 2191 
L 3419 1791 
L 4925 1791 
L 4925 2191 
z
M 1494 1791 
L 2981 1791 
L 2981 2191 
L 1494 2191 
L 1494 1791 
z
" transform="scale(0.015625)"/>
     <path id="MicrosoftYaHei-3d" d="M 3972 2497 
L 788 2497 
L 788 2969 
L 3972 2969 
L 3972 2497 
z
M 3972 1053 
L 788 1053 
L 788 1525 
L 3972 1525 
L 3972 1053 
z
" transform="scale(0.015625)"/>
     <path id="MicrosoftYaHei-ff0c" d="M 1931 775 
L 1403 -891 
L 966 -891 
L 1350 775 
L 1931 775 
z
" transform="scale(0.015625)"/>
     <path id="MicrosoftYaHei-5f00" d="M 125 2553 
L 1756 2553 
L 1756 4372 
L 400 4372 
L 400 4866 
L 6006 4866 
L 6006 4372 
L 4731 4372 
L 4731 2553 
L 6275 2553 
L 6275 2059 
L 4731 2059 
L 4731 -791 
L 4219 -791 
L 4219 2059 
L 2266 2059 
Q 2244 916 1938 359 
Q 1631 -253 531 -872 
Q 369 -647 175 -434 
Q 1131 53 1450 584 
Q 1734 1013 1753 2059 
L 125 2059 
L 125 2553 
z
M 2269 2553 
L 4219 2553 
L 4219 4372 
L 2269 4372 
L 2269 2553 
z
" transform="scale(0.015625)"/>
     <path id="MicrosoftYaHei-653e" d="M 3956 5359 
L 4456 5272 
Q 4322 4681 4106 4128 
L 6281 4128 
L 6281 3666 
L 5759 3666 
Q 5638 1816 4884 725 
Q 5447 25 6338 -353 
Q 6131 -628 5994 -847 
Q 5153 -394 4559 322 
Q 3947 -356 3094 -903 
Q 2950 -722 2738 -509 
Q 3669 56 4259 731 
Q 3713 1625 3563 2988 
Q 3378 2669 3163 2366 
Q 3031 2553 2850 2766 
Q 3663 3884 3956 5359 
z
M 156 4184 
L 3169 4184 
L 3169 3722 
L 1400 3722 
Q 1394 3166 1378 2703 
L 2813 2703 
Q 2750 1166 2694 241 
Q 2638 -584 1981 -616 
Q 1600 -622 1263 -609 
Q 1225 -378 1156 -84 
Q 1569 -128 1794 -128 
Q 2175 -128 2206 347 
Q 2269 1078 2306 2241 
L 1359 2241 
Q 1338 216 369 -853 
Q 225 -641 38 -416 
Q 625 247 750 1003 
Q 909 1713 906 3722 
L 156 3722 
L 156 4184 
z
M 5263 3666 
L 3934 3666 
Q 4034 2134 4584 1166 
Q 5188 2131 5263 3666 
z
M 1206 5141 
L 1631 5366 
Q 1900 4966 2144 4503 
L 1706 4272 
Q 1456 4753 1206 5141 
z
" transform="scale(0.015625)"/>
     <path id="MicrosoftYaHei-77ac" d="M 338 4903 
L 1800 4903 
L 1800 -141 
L 763 -141 
L 763 -509 
L 338 -509 
L 338 4903 
z
M 4088 2166 
L 4988 2166 
L 4988 2691 
L 5413 2691 
L 5413 2166 
L 6175 2166 
L 6175 1753 
L 5413 1753 
L 5413 791 
L 6263 791 
L 6263 378 
L 5413 378 
L 5413 -816 
L 4988 -816 
L 4988 378 
L 3925 378 
L 3925 784 
L 4206 1522 
L 4625 1522 
L 4363 791 
L 4988 791 
L 4988 1753 
L 4088 1753 
L 4088 2166 
z
M 3081 2616 
Q 3013 2403 2944 2203 
L 3869 2203 
L 3869 1797 
Q 3575 28 2088 -891 
Q 1950 -716 1781 -534 
Q 2481 -128 2906 466 
Q 2669 728 2375 991 
Q 2256 791 2131 609 
Q 2050 716 1844 928 
Q 2375 1666 2675 2709 
L 3081 2616 
z
M 2088 3378 
L 4719 3378 
Q 5025 3947 5263 4522 
L 5706 4341 
Q 5425 3809 5175 3378 
L 6175 3378 
L 6175 2541 
L 5750 2541 
L 5750 2966 
L 2513 2966 
L 2513 2541 
L 2088 2541 
L 2088 3378 
z
M 2306 4441 
Q 2263 4647 2194 4866 
Q 4506 4972 5800 5122 
L 5931 4697 
Q 4638 4584 2306 4441 
z
M 1375 272 
L 1375 1416 
L 763 1416 
L 763 272 
L 1375 272 
z
M 1375 4491 
L 763 4491 
L 763 3359 
L 1375 3359 
L 1375 4491 
z
M 763 1822 
L 1375 1822 
L 1375 2953 
L 763 2953 
L 763 1822 
z
M 3713 4328 
L 4100 4472 
Q 4306 4041 4450 3628 
L 4044 3472 
Q 3913 3891 3713 4328 
z
M 2500 4197 
L 2863 4391 
Q 3106 3997 3313 3616 
L 2913 3422 
Q 2763 3747 2500 4197 
z
M 2569 1334 
Q 2825 1128 3125 822 
Q 3344 1259 3444 1791 
L 2775 1791 
Q 2681 1559 2569 1334 
z
" transform="scale(0.015625)"/>
     <path id="MicrosoftYaHei-95f4" d="M 1863 3647 
L 4513 3647 
L 4513 553 
L 2313 553 
L 2313 166 
L 1863 166 
L 1863 3647 
z
M 2388 4453 
L 2388 4922 
L 6013 4922 
L 6013 -28 
Q 6013 -816 5119 -816 
Q 4756 -816 4169 -803 
Q 4144 -616 4069 -297 
Q 4588 -334 5056 -334 
Q 5525 -334 5525 122 
L 5525 4453 
L 2388 4453 
z
M 419 4084 
L 906 4084 
L 906 -816 
L 419 -816 
L 419 4084 
z
M 2313 997 
L 4063 997 
L 4063 1884 
L 2313 1884 
L 2313 997 
z
M 4063 3203 
L 2313 3203 
L 2313 2328 
L 4063 2328 
L 4063 3203 
z
M 744 5003 
L 1100 5322 
Q 1575 4872 1981 4447 
L 1575 4091 
Q 1194 4541 744 5003 
z
" transform="scale(0.015625)"/>
     <path id="MicrosoftYaHei-5168" d="M 369 -103 
L 2950 -103 
L 2950 984 
L 925 984 
L 925 1441 
L 2950 1441 
L 2950 2403 
L 1156 2403 
L 1156 2859 
L 5269 2859 
L 5269 2403 
L 3469 2403 
L 3469 1441 
L 5500 1441 
L 5500 984 
L 3469 984 
L 3469 -103 
L 6044 -103 
L 6044 -566 
L 369 -566 
L 369 -103 
z
M 3656 5234 
L 3531 5078 
Q 4581 3703 6319 3009 
Q 6125 2734 5988 2509 
Q 4338 3322 3219 4691 
Q 2263 3453 394 2428 
Q 269 2641 81 2897 
Q 2013 3866 3000 5234 
L 3656 5234 
z
" transform="scale(0.015625)"/>
     <path id="MicrosoftYaHei-77" d="M 4975 3456 
L 3944 0 
L 3306 0 
L 2619 2425 
Q 2575 2581 2563 2756 
L 2550 2756 
Q 2541 2625 2478 2431 
L 1734 0 
L 1116 0 
L 78 3456 
L 716 3456 
L 1406 894 
Q 1438 778 1453 578 
L 1478 578 
Q 1491 750 1538 903 
L 2281 3456 
L 2847 3456 
L 3572 891 
Q 3603 778 3622 572 
L 3650 572 
Q 3656 709 3706 891 
L 4381 3456 
L 4975 3456 
z
" transform="scale(0.015625)"/>
     <path id="MicrosoftYaHei-69" d="M 472 4675 
Q 472 4838 583 4948 
Q 694 5059 856 5059 
Q 1022 5059 1136 4950 
Q 1250 4841 1250 4675 
Q 1250 4513 1136 4405 
Q 1022 4297 856 4297 
Q 691 4297 581 4405 
Q 472 4513 472 4675 
z
M 544 0 
L 544 3456 
L 1156 3456 
L 1156 0 
L 544 0 
z
" transform="scale(0.015625)"/>
     <path id="MicrosoftYaHei-6e" d="M 3469 0 
L 2859 0 
L 2859 1966 
Q 2859 3031 2081 3031 
Q 1678 3031 1418 2731 
Q 1159 2431 1159 1972 
L 1159 0 
L 547 0 
L 547 3456 
L 1159 3456 
L 1159 2884 
L 1172 2884 
Q 1563 3538 2306 3538 
Q 2875 3538 3172 3173 
Q 3469 2809 3469 2113 
L 3469 0 
z
" transform="scale(0.015625)"/>
     <path id="MicrosoftYaHei-90e8" d="M 6288 1247 
Q 6288 172 5444 84 
Q 5125 47 4594 109 
Q 4563 334 4513 659 
Q 4969 584 5294 584 
Q 5844 584 5794 1341 
Q 5769 2009 4838 2709 
Q 5244 3516 5663 4503 
L 4388 4503 
L 4388 -828 
L 3913 -828 
L 3913 4966 
L 6163 4966 
L 6163 4453 
Q 5919 3822 5406 2816 
Q 6288 2128 6288 1247 
z
M 575 1753 
L 3275 1753 
L 3275 -791 
L 2813 -791 
L 2813 -328 
L 1038 -328 
L 1038 -797 
L 575 -797 
L 575 1753 
z
M 2813 1334 
L 1038 1334 
L 1038 103 
L 2813 103 
L 2813 1334 
z
M 125 2822 
L 2125 2822 
Q 2497 3466 2731 3997 
L 3194 3759 
Q 2922 3284 2616 2822 
L 3706 2822 
L 3706 2403 
L 125 2403 
L 125 2822 
z
M 263 4472 
L 1825 4472 
Q 1703 4753 1456 5159 
L 1888 5359 
Q 2169 4891 2288 4616 
L 1981 4472 
L 3594 4472 
L 3594 4053 
L 263 4053 
L 263 4472 
z
M 681 3728 
L 1063 3959 
Q 1375 3516 1631 3072 
L 1206 2828 
Q 1013 3222 681 3728 
z
" transform="scale(0.015625)"/>
     <path id="MicrosoftYaHei-ff09" d="M 1113 -1100 
L 575 -1100 
Q 1684 163 1684 1888 
Q 1684 3581 581 4838 
L 1113 4838 
Q 2222 3628 2222 1888 
Q 2222 128 1113 -1100 
z
" transform="scale(0.015625)"/>
    </defs>
    <use xlink:href="#MicrosoftYaHei-4e24"/>
    <use xlink:href="#MicrosoftYaHei-79cd" x="100"/>
    <use xlink:href="#MicrosoftYaHei-843d" x="200"/>
    <use xlink:href="#MicrosoftYaHei-5e93" x="300"/>
    <use xlink:href="#MicrosoftYaHei-7b56" x="400"/>
    <use xlink:href="#MicrosoftYaHei-7565" x="500"/>
    <use xlink:href="#MicrosoftYaHei-5b9e" x="600"/>
    <use xlink:href="#MicrosoftYaHei-6d4b" x="700"/>
    <use xlink:href="#MicrosoftYaHei-5bf9" x="800"/>
    <use xlink:href="#MicrosoftYaHei-6bd4" x="900"/>
    <use xlink:href="#MicrosoftYaHei-ff08" x="1000"/>
    <use xlink:href="#MicrosoftYaHei-5bb9" x="1100"/>
    <use xlink:href="#MicrosoftYaHei-91cf" x="1200"/>
    <use xlink:href="#MicrosoftYaHei-3d" x="1300"/>
    <use xlink:href="#MicrosoftYaHei-32" x="1374.169922"/>
    <use xlink:href="#MicrosoftYaHei-30" x="1432.8125"/>
    <use xlink:href="#MicrosoftYaHei-30" x="1491.455078"/>
    <use xlink:href="#MicrosoftYaHei-30" x="1550.097656"/>
    <use xlink:href="#MicrosoftYaHei-ff0c" x="1608.740234"/>
    <use xlink:href="#MicrosoftYaHei-5f00" x="1708.740234"/>
    <use xlink:href="#MicrosoftYaHei-653e" x="1808.740234"/>
    <use xlink:href="#MicrosoftYaHei-77ac" x="1908.740234"/>
    <use xlink:href="#MicrosoftYaHei-95f4" x="2008.740234"/>
    <use xlink:href="#MicrosoftYaHei-5168" x="2108.740234"/>
    <use xlink:href="#MicrosoftYaHei-91cf" x="2208.740234"/>
    <use xlink:href="#MicrosoftYaHei-5e76" x="2308.740234"/>
    <use xlink:href="#MicrosoftYaHei-53d1" x="2408.740234"/>
    <use xlink:href="#MicrosoftYaHei-ff0c" x="2508.740234"/>
    <use xlink:href="#MicrosoftYaHei-32" x="2608.740234"/>
    <use xlink:href="#MicrosoftYaHei-30" x="2667.382812"/>
    <use xlink:href="#MicrosoftYaHei-30" x="2726.025391"/>
    <use xlink:href="#MicrosoftYaHei-30" x="2784.667969"/>
    <use xlink:href="#MicrosoftYaHei-20" x="2843.310547"/>
    <use xlink:href="#MicrosoftYaHei-77" x="2872.900391"/>
    <use xlink:href="#MicrosoftYaHei-69" x="2951.855469"/>
    <use xlink:href="#MicrosoftYaHei-6e" x="2978.466797"/>
    <use xlink:href="#MicrosoftYaHei-6e" x="3040.087891"/>
    <use xlink:href="#MicrosoftYaHei-65" x="3101.708984"/>
    <use xlink:href="#MicrosoftYaHei-72" x="3158.447266"/>
    <use xlink:href="#MicrosoftYaHei-20" x="3196.630859"/>
    <use xlink:href="#MicrosoftYaHei-5168" x="3226.220703"/>
    <use xlink:href="#MicrosoftYaHei-90e8" x="3326.220703"/>
    <use xlink:href="#MicrosoftYaHei-843d" x="3426.220703"/>
    <use xlink:href="#MicrosoftYaHei-5e93" x="3526.220703"/>
    <use xlink:href="#MicrosoftYaHei-ff09" x="3626.220703"/>
   </g>
  </g>
 </g>
 <defs>
  <clipPath id="p7605da7d0a">
   <rect x="46.476563" y="53.568" width="263.781818" height="255.024"/>
  </clipPath>
  <clipPath id="p03802acc7e">
   <rect x="363.014744" y="53.568" width="263.781818" height="255.024"/>
  </clipPath>
 </defs>
</svg>
