<?xml version="1.0" encoding="utf-8" standalone="no"?>
<!DOCTYPE svg PUBLIC "-//W3C//DTD SVG 1.1//EN"
  "http://www.w3.org/Graphics/SVG/1.1/DTD/svg11.dtd">
<svg xmlns:xlink="http://www.w3.org/1999/xlink" width="517.100625pt" height="323.77525pt" viewBox="0 0 517.100625 323.77525" xmlns="http://www.w3.org/2000/svg" version="1.1">
 <metadata>
  <rdf:RDF xmlns:dc="http://purl.org/dc/elements/1.1/" xmlns:cc="http://creativecommons.org/ns#" xmlns:rdf="http://www.w3.org/1999/02/22-rdf-syntax-ns#">
   <cc:Work>
    <dc:type rdf:resource="http://purl.org/dc/dcmitype/StillImage"/>
    <dc:date>2026-06-09T20:14:44.548496</dc:date>
    <dc:format>image/svg+xml</dc:format>
    <dc:creator>
     <cc:Agent>
      <dc:title>Matplotlib v3.7.0, https://matplotlib.org/</dc:title>
     </cc:Agent>
    </dc:creator>
   </cc:Work>
  </rdf:RDF>
 </metadata>
 <defs>
  <style type="text/css">*{stroke-linejoin: round; stroke-linecap: butt}</style>
 </defs>
 <g id="figure_1">
  <g id="patch_1">
   <path d="M 0 323.77525 
L 517.100625 323.77525 
L 517.100625 0 
L 0 0 
z
" style="fill: #ffffff"/>
  </g>
  <g id="axes_1">
   <g id="patch_2">
    <path d="M 52.340625 284.615875 
L 509.900625 284.615875 
L 509.900625 29.591875 
L 52.340625 29.591875 
z
" style="fill: #ffffff"/>
   </g>
   <g id="matplotlib.axis_1">
    <g id="xtick_1">
     <g id="line2d_1">
      <defs>
       <path id="m802963f42c" d="M 0 0 
L 0 3.5 
" style="stroke: #000000; stroke-width: 0.8"/>
      </defs>
      <g>
       <use xlink:href="#m802963f42c" x="100.26687" y="284.615875" style="stroke: #000000; stroke-width: 0.8"/>
      </g>
     </g>
     <g id="text_1">
      <!-- 500 -->
      <g transform="translate(91.470776 299.609625) scale(0.1 -0.1)">
       <defs>
        <path id="MicrosoftYaHei-35" d="M 3294 1494 
Q 3294 784 2823 350 
Q 2353 -84 1559 -84 
Q 878 -84 544 119 
L 544 744 
Q 1034 425 1544 425 
Q 2050 425 2361 704 
Q 2672 984 2672 1447 
Q 2672 1909 2348 2167 
Q 2025 2425 1434 2425 
Q 978 2425 613 2384 
L 791 4841 
L 3053 4841 
L 3053 4303 
L 1306 4303 
L 1206 2931 
L 1647 2950 
Q 2416 2950 2855 2567 
Q 3294 2184 3294 1494 
z
" transform="scale(0.015625)"/>
        <path id="MicrosoftYaHei-30" d="M 284 2325 
Q 284 3606 709 4264 
Q 1134 4922 1941 4922 
Q 3478 4922 3478 2441 
Q 3478 1216 3045 567 
Q 2613 -81 1831 -81 
Q 1094 -81 689 534 
Q 284 1150 284 2325 
z
M 909 2353 
Q 909 425 1888 425 
Q 2850 425 2850 2384 
Q 2850 4413 1906 4413 
Q 909 4413 909 2353 
z
" transform="scale(0.015625)"/>
       </defs>
       <use xlink:href="#MicrosoftYaHei-35"/>
       <use xlink:href="#MicrosoftYaHei-30" x="58.642578"/>
       <use xlink:href="#MicrosoftYaHei-30" x="117.285156"/>
      </g>
     </g>
    </g>
    <g id="xtick_2">
     <g id="line2d_2">
      <g>
       <use xlink:href="#m802963f42c" x="190.693748" y="284.615875" style="stroke: #000000; stroke-width: 0.8"/>
      </g>
     </g>
     <g id="text_2">
      <!-- 1000 -->
      <g transform="translate(178.965623 299.609625) scale(0.1 -0.1)">
       <defs>
        <path id="MicrosoftYaHei-31" d="M 1781 0 
L 1781 4141 
Q 1638 3997 1295 3819 
Q 953 3641 663 3569 
L 663 4169 
Q 1047 4275 1484 4508 
Q 1922 4741 2156 4947 
L 2388 4947 
L 2388 0 
L 1781 0 
z
" transform="scale(0.015625)"/>
       </defs>
       <use xlink:href="#MicrosoftYaHei-31"/>
       <use xlink:href="#MicrosoftYaHei-30" x="58.642578"/>
       <use xlink:href="#MicrosoftYaHei-30" x="117.285156"/>
       <use xlink:href="#MicrosoftYaHei-30" x="175.927734"/>
      </g>
     </g>
    </g>
    <g id="xtick_3">
     <g id="line2d_3">
      <g>
       <use xlink:href="#m802963f42c" x="281.120625" y="284.615875" style="stroke: #000000; stroke-width: 0.8"/>
      </g>
     </g>
     <g id="text_3">
      <!-- 2000 -->
      <g transform="translate(269.3925 299.609625) scale(0.1 -0.1)">
       <defs>
        <path id="MicrosoftYaHei-32" d="M 2666 3572 
Q 2666 3963 2419 4186 
Q 2172 4409 1747 4409 
Q 1447 4409 1140 4256 
Q 834 4103 569 3819 
L 569 4413 
Q 806 4659 1107 4790 
Q 1409 4922 1816 4922 
Q 2472 4922 2872 4570 
Q 3272 4219 3272 3619 
Q 3272 3084 3026 2693 
Q 2781 2303 2188 1894 
Q 1581 1475 1376 1294 
Q 1172 1113 1090 947 
Q 1009 781 1009 544 
L 3416 544 
L 3416 0 
L 372 0 
L 372 241 
Q 372 659 486 951 
Q 600 1244 862 1520 
Q 1125 1797 1681 2184 
Q 2250 2584 2458 2886 
Q 2666 3188 2666 3572 
z
" transform="scale(0.015625)"/>
       </defs>
       <use xlink:href="#MicrosoftYaHei-32"/>
       <use xlink:href="#MicrosoftYaHei-30" x="58.642578"/>
       <use xlink:href="#MicrosoftYaHei-30" x="117.285156"/>
       <use xlink:href="#MicrosoftYaHei-30" x="175.927734"/>
      </g>
     </g>
    </g>
    <g id="xtick_4">
     <g id="line2d_4">
      <g>
       <use xlink:href="#m802963f42c" x="371.547502" y="284.615875" style="stroke: #000000; stroke-width: 0.8"/>
      </g>
     </g>
     <g id="text_4">
      <!-- 3000 -->
      <g transform="translate(359.819377 299.609625) scale(0.1 -0.1)">
       <defs>
        <path id="MicrosoftYaHei-33" d="M 447 809 
Q 944 425 1569 425 
Q 2069 425 2361 670 
Q 2653 916 2653 1328 
Q 2653 2247 1338 2247 
L 934 2247 
L 934 2753 
L 1319 2753 
Q 2484 2753 2484 3616 
Q 2484 4413 1594 4413 
Q 1084 4413 634 4069 
L 634 4647 
Q 1109 4922 1744 4922 
Q 2363 4922 2738 4598 
Q 3113 4275 3113 3759 
Q 3113 2809 2144 2538 
L 2144 2525 
Q 2669 2469 2973 2155 
Q 3278 1841 3278 1372 
Q 3278 719 2808 319 
Q 2338 -81 1556 -81 
Q 869 -81 447 175 
L 447 809 
z
" transform="scale(0.015625)"/>
       </defs>
       <use xlink:href="#MicrosoftYaHei-33"/>
       <use xlink:href="#MicrosoftYaHei-30" x="58.642578"/>
       <use xlink:href="#MicrosoftYaHei-30" x="117.285156"/>
       <use xlink:href="#MicrosoftYaHei-30" x="175.927734"/>
      </g>
     </g>
    </g>
    <g id="xtick_5">
     <g id="line2d_5">
      <g>
       <use xlink:href="#m802963f42c" x="461.97438" y="284.615875" style="stroke: #000000; stroke-width: 0.8"/>
      </g>
     </g>
     <g id="text_5">
      <!-- 5000 -->
      <g transform="translate(450.246255 299.609625) scale(0.1 -0.1)">
       <use xlink:href="#MicrosoftYaHei-35"/>
       <use xlink:href="#MicrosoftYaHei-30" x="58.642578"/>
       <use xlink:href="#MicrosoftYaHei-30" x="117.285156"/>
       <use xlink:href="#MicrosoftYaHei-30" x="175.927734"/>
      </g>
     </g>
    </g>
    <g id="text_6">
     <!-- 并发抢课请求数 (人) -->
     <g transform="translate(236.300313 314.089312) scale(0.1 -0.1)">
      <defs>
       <path id="MicrosoftYaHei-5e76" d="M 125 2172 
L 1778 2172 
Q 1781 2272 1781 3684 
L 394 3684 
L 394 4172 
L 2169 4172 
Q 1772 4697 1438 5059 
L 1813 5341 
Q 2325 4828 2619 4447 
L 2222 4172 
L 3784 4172 
Q 4178 4694 4581 5347 
L 5075 5041 
Q 4684 4538 4366 4172 
L 6006 4172 
L 6006 3684 
L 4681 3684 
L 4681 2172 
L 6275 2172 
L 6275 1684 
L 4681 1684 
L 4681 -816 
L 4169 -816 
L 4169 1684 
L 2266 1684 
Q 2188 28 744 -872 
Q 513 -566 394 -434 
Q 1713 403 1747 1684 
L 125 1684 
L 125 2172 
z
M 2291 2172 
L 4169 2172 
L 4169 3684 
L 2294 3684 
Q 2294 2384 2291 2172 
z
" transform="scale(0.015625)"/>
       <path id="MicrosoftYaHei-53d1" d="M 944 3909 
L 2266 3909 
Q 2419 4563 2525 5334 
L 3056 5266 
Q 2950 4556 2797 3909 
L 6250 3909 
L 6250 3447 
L 2678 3447 
Q 2566 3034 2431 2653 
L 5531 2653 
L 5531 2222 
Q 5119 1200 4247 456 
Q 5125 -75 6294 -291 
Q 6013 -603 5856 -816 
Q 4856 -484 3844 153 
Q 3031 -381 1519 -859 
Q 1344 -609 1144 -397 
Q 2681 3 3441 450 
Q 2619 1153 2269 2222 
Q 1584 509 406 -591 
Q 238 -353 75 -166 
Q 1484 1106 2147 3447 
L 413 3447 
L 413 3916 
Q 669 4509 881 5109 
L 1388 4972 
Q 1169 4422 944 3909 
z
M 4981 2222 
L 2722 2222 
Q 3003 1356 3838 731 
Q 4647 1400 4981 2222 
z
M 4019 4903 
L 4294 5253 
Q 4906 4866 5469 4447 
L 5131 4041 
Q 4588 4503 4019 4903 
z
" transform="scale(0.015625)"/>
       <path id="MicrosoftYaHei-62a2" d="M 2663 2959 
L 5506 2959 
Q 5456 2078 5394 1503 
Q 5294 709 4506 709 
Q 3963 709 3638 722 
Q 3600 928 3531 1247 
Q 4019 1203 4431 1203 
Q 4856 1203 4913 1603 
Q 4963 2022 4988 2509 
L 3163 2509 
L 3163 366 
Q 3163 -184 3744 -184 
L 5000 -184 
Q 5519 -184 5581 247 
Q 5656 641 5700 1066 
Q 5969 966 6194 897 
Q 6113 409 6019 16 
Q 5863 -659 5100 -659 
L 3619 -659 
Q 2663 -659 2663 259 
L 2663 2959 
z
M 88 1941 
Q 188 1959 981 2147 
L 981 3659 
L 163 3659 
L 163 4078 
L 981 4078 
L 981 5266 
L 1463 5266 
L 1463 4078 
L 2219 4078 
L 2219 3659 
L 1463 3659 
L 1463 2266 
Q 1800 2341 2225 2447 
Q 2219 2328 2219 1947 
Q 2125 1922 1463 1753 
L 1463 -47 
Q 1463 -734 825 -753 
Q 606 -759 256 -759 
Q 231 -522 175 -247 
Q 494 -272 681 -272 
Q 981 -278 981 34 
L 981 1628 
Q 613 1541 131 1422 
L 88 1941 
z
M 4481 5272 
Q 4444 5184 4406 5103 
Q 5144 3822 6319 3197 
Q 6113 2947 5975 2759 
Q 4844 3491 4150 4634 
Q 3531 3578 2300 2703 
Q 2181 2866 1975 3097 
Q 3313 3966 3956 5272 
L 4481 5272 
z
" transform="scale(0.015625)"/>
       <path id="MicrosoftYaHei-8bfe" d="M 6325 -3 
Q 6169 -241 6019 -472 
Q 4884 119 4188 1209 
L 4188 -816 
L 3738 -816 
L 3738 1191 
Q 2953 78 1975 -559 
Q 1794 -328 1613 -147 
Q 2766 469 3513 1409 
L 1819 1409 
L 1819 1822 
L 3738 1822 
L 3738 2503 
L 2575 2503 
L 2575 2303 
L 2138 2303 
L 2138 5053 
L 5788 5053 
L 5788 2303 
L 5350 2303 
L 5350 2503 
L 4188 2503 
L 4188 1822 
L 6150 1822 
L 6150 1409 
L 4413 1409 
Q 5184 425 6325 -3 
z
M 2088 747 
Q 1619 334 1275 -3 
Q 1100 -184 963 -353 
L 613 53 
Q 806 234 806 591 
L 806 2778 
L 113 2778 
L 113 3234 
L 1269 3234 
L 1269 634 
Q 1581 909 1969 1284 
Q 2019 1016 2088 747 
z
M 5350 4653 
L 4188 4653 
L 4188 3972 
L 5350 3972 
L 5350 4653 
z
M 4188 2903 
L 5350 2903 
L 5350 3584 
L 4188 3584 
L 4188 2903 
z
M 2575 3972 
L 3738 3972 
L 3738 4653 
L 2575 4653 
L 2575 3972 
z
M 2575 2903 
L 3738 2903 
L 3738 3584 
L 2575 3584 
L 2575 2903 
z
M 800 5178 
Q 1363 4634 1725 4184 
L 1338 3866 
Q 900 4428 469 4884 
L 800 5178 
z
" transform="scale(0.015625)"/>
       <path id="MicrosoftYaHei-8bf7" d="M 2788 -791 
L 2300 -791 
L 2300 2378 
L 5775 2378 
L 5775 -53 
Q 5775 -728 5081 -734 
Q 4713 -741 4138 -741 
Q 4106 -541 4044 -259 
Q 4588 -297 4931 -297 
Q 5288 -297 5288 28 
L 5288 341 
L 2788 341 
L 2788 -791 
z
M 1750 3153 
L 3769 3153 
L 3769 3584 
L 2169 3584 
L 2169 3978 
L 3769 3978 
L 3769 4397 
L 1950 4397 
L 1950 4791 
L 3769 4791 
L 3769 5353 
L 4275 5353 
L 4275 4791 
L 6181 4791 
L 6181 4397 
L 4275 4397 
L 4275 3978 
L 6019 3978 
L 6019 3584 
L 4275 3584 
L 4275 3153 
L 6306 3153 
L 6306 2759 
L 1750 2759 
L 1750 3153 
z
M 2056 753 
Q 2075 441 2100 209 
Q 1425 -241 956 -603 
L 669 -191 
Q 881 9 881 353 
L 881 2716 
L 119 2716 
L 119 3172 
L 1356 3172 
L 1356 259 
Q 1706 497 2056 753 
z
M 5288 1978 
L 2788 1978 
L 2788 1547 
L 5288 1547 
L 5288 1978 
z
M 2788 728 
L 5288 728 
L 5288 1159 
L 2788 1159 
L 2788 728 
z
M 825 5141 
Q 1338 4634 1731 4197 
L 1294 3834 
Q 863 4391 450 4822 
L 825 5141 
z
" transform="scale(0.015625)"/>
       <path id="MicrosoftYaHei-6c42" d="M 225 4178 
L 2969 4178 
L 2969 5309 
L 3494 5309 
L 3494 4178 
L 6225 4178 
L 6225 3728 
L 3494 3728 
L 3494 3341 
Q 3800 2641 4219 2066 
Q 4869 2628 5444 3316 
L 5888 2947 
Q 5119 2184 4525 1684 
Q 5275 809 6319 284 
Q 6088 16 5944 -203 
Q 4331 741 3494 2322 
L 3494 28 
Q 3494 -778 2650 -778 
Q 2200 -778 1819 -766 
Q 1781 -509 1719 -209 
Q 2213 -266 2525 -266 
Q 2969 -266 2969 191 
L 2969 1372 
Q 1494 616 400 -3 
L 131 509 
Q 1438 1116 2969 1953 
L 2969 3728 
L 225 3728 
L 225 4178 
z
M 1144 3353 
Q 1644 2859 2163 2247 
Q 1969 2084 1731 1897 
Q 1294 2466 769 3047 
L 1144 3353 
z
M 4069 4978 
L 4369 5309 
Q 4963 4934 5313 4628 
L 4975 4253 
Q 4606 4578 4069 4978 
z
" transform="scale(0.015625)"/>
       <path id="MicrosoftYaHei-6570" d="M 4175 5303 
L 4675 5228 
Q 4544 4622 4369 4097 
L 6281 4097 
L 6281 3672 
L 5888 3672 
Q 5731 1834 5088 753 
Q 5594 66 6375 -372 
Q 6175 -647 6038 -866 
Q 5275 -372 4769 309 
Q 4194 -403 3400 -928 
Q 3263 -747 3044 -534 
Q 3919 41 4463 772 
Q 3956 1647 3794 2791 
Q 3663 2559 3519 2359 
Q 3394 2541 3206 2759 
Q 3931 3803 4175 5303 
z
M 150 1697 
L 1100 1697 
Q 1238 1934 1369 2184 
L 1819 2041 
Q 1719 1866 1619 1697 
L 3150 1697 
L 3150 1291 
Q 2913 678 2431 216 
Q 2775 53 3131 -109 
L 2856 -541 
Q 2469 -322 2050 -103 
Q 1344 -609 269 -903 
Q 169 -703 56 -466 
Q 969 -259 1600 128 
Q 1063 403 475 691 
Q 675 978 863 1284 
L 150 1284 
L 150 1697 
z
M 219 3847 
L 1656 3847 
L 1656 5247 
L 2119 5247 
L 2119 3847 
L 3319 3847 
L 3319 3434 
L 2119 3434 
L 2119 3053 
L 2306 3266 
Q 2888 2841 3281 2516 
L 2981 2166 
Q 2638 2491 2119 2897 
L 2119 2184 
L 1656 2184 
L 1656 3059 
Q 1088 2466 331 2016 
Q 213 2197 63 2397 
Q 850 2822 1506 3434 
L 219 3434 
L 219 3847 
z
M 5388 3672 
L 4219 3672 
Q 4188 3591 4150 3516 
Q 4263 2191 4775 1247 
Q 5275 2159 5388 3672 
z
M 1088 834 
Q 1531 634 2000 416 
Q 2431 784 2675 1284 
L 1375 1284 
Q 1231 1053 1088 834 
z
M 3038 5091 
L 3425 4834 
Q 3081 4384 2738 4003 
Q 2594 4128 2400 4266 
Q 2725 4647 3038 5091 
z
M 381 4816 
L 738 5059 
Q 1019 4716 1319 4322 
L 931 4047 
Q 656 4453 381 4816 
z
" transform="scale(0.015625)"/>
       <path id="MicrosoftYaHei-20" transform="scale(0.015625)"/>
       <path id="MicrosoftYaHei-28" d="M 1531 -1100 
Q 478 100 478 1847 
Q 478 3594 1531 4841 
L 2072 4841 
Q 1016 3544 1016 1853 
Q 1016 166 2066 -1100 
L 1531 -1100 
z
" transform="scale(0.015625)"/>
       <path id="MicrosoftYaHei-4eba" d="M 100 -303 
Q 2825 1272 2981 5222 
L 3531 5222 
Q 3497 4553 3400 3947 
Q 4175 822 6313 -166 
Q 6050 -453 5850 -709 
Q 3994 341 3203 3006 
Q 2519 431 494 -778 
Q 325 -547 100 -303 
z
" transform="scale(0.015625)"/>
       <path id="MicrosoftYaHei-29" d="M 78 -1100 
Q 1131 163 1131 1853 
Q 1131 3547 72 4841 
L 616 4841 
Q 1672 3603 1672 1847 
Q 1672 91 616 -1100 
L 78 -1100 
z
" transform="scale(0.015625)"/>
      </defs>
      <use xlink:href="#MicrosoftYaHei-5e76"/>
      <use xlink:href="#MicrosoftYaHei-53d1" x="100"/>
      <use xlink:href="#MicrosoftYaHei-62a2" x="200"/>
      <use xlink:href="#MicrosoftYaHei-8bfe" x="300"/>
      <use xlink:href="#MicrosoftYaHei-8bf7" x="400"/>
      <use xlink:href="#MicrosoftYaHei-6c42" x="500"/>
      <use xlink:href="#MicrosoftYaHei-6570" x="600"/>
      <use xlink:href="#MicrosoftYaHei-20" x="700"/>
      <use xlink:href="#MicrosoftYaHei-28" x="729.589844"/>
      <use xlink:href="#MicrosoftYaHei-4eba" x="762.988281"/>
      <use xlink:href="#MicrosoftYaHei-29" x="862.988281"/>
     </g>
    </g>
   </g>
   <g id="matplotlib.axis_2">
    <g id="ytick_1">
     <g id="line2d_6">
      <path d="M 52.340625 284.615875 
L 509.900625 284.615875 
" clip-path="url(#peb6f5aeca2)" style="fill: none; stroke: #e7e7ec; stroke-linecap: square"/>
     </g>
     <g id="line2d_7">
      <defs>
       <path id="m437e210446" d="M 0 0 
L -3.5 0 
" style="stroke: #000000; stroke-width: 0.8"/>
      </defs>
      <g>
       <use xlink:href="#m437e210446" x="52.340625" y="284.615875" style="stroke: #000000; stroke-width: 0.8"/>
      </g>
     </g>
     <g id="text_7">
      <!-- 0 -->
      <g transform="translate(39.476562 288.61275) scale(0.1 -0.1)">
       <use xlink:href="#MicrosoftYaHei-30"/>
      </g>
     </g>
    </g>
    <g id="ytick_2">
     <g id="line2d_8">
      <path d="M 52.340625 248.834081 
L 509.900625 248.834081 
" clip-path="url(#peb6f5aeca2)" style="fill: none; stroke: #e7e7ec; stroke-linecap: square"/>
     </g>
     <g id="line2d_9">
      <g>
       <use xlink:href="#m437e210446" x="52.340625" y="248.834081" style="stroke: #000000; stroke-width: 0.8"/>
      </g>
     </g>
     <g id="text_8">
      <!-- 200 -->
      <g transform="translate(27.748438 252.830956) scale(0.1 -0.1)">
       <use xlink:href="#MicrosoftYaHei-32"/>
       <use xlink:href="#MicrosoftYaHei-30" x="58.642578"/>
       <use xlink:href="#MicrosoftYaHei-30" x="117.285156"/>
      </g>
     </g>
    </g>
    <g id="ytick_3">
     <g id="line2d_10">
      <path d="M 52.340625 213.052288 
L 509.900625 213.052288 
" clip-path="url(#peb6f5aeca2)" style="fill: none; stroke: #e7e7ec; stroke-linecap: square"/>
     </g>
     <g id="line2d_11">
      <g>
       <use xlink:href="#m437e210446" x="52.340625" y="213.052288" style="stroke: #000000; stroke-width: 0.8"/>
      </g>
     </g>
     <g id="text_9">
      <!-- 400 -->
      <g transform="translate(27.748438 217.049163) scale(0.1 -0.1)">
       <defs>
        <path id="MicrosoftYaHei-34" d="M 2906 4841 
L 2906 1644 
L 3631 1644 
L 3631 1138 
L 2906 1138 
L 2906 0 
L 2313 0 
L 2313 1138 
L 53 1138 
L 53 1616 
Q 656 2294 1265 3178 
Q 1875 4063 2272 4841 
L 2906 4841 
z
M 741 1644 
L 2313 1644 
L 2313 3950 
Q 1988 3366 1616 2817 
Q 1244 2269 741 1644 
z
" transform="scale(0.015625)"/>
       </defs>
       <use xlink:href="#MicrosoftYaHei-34"/>
       <use xlink:href="#MicrosoftYaHei-30" x="58.642578"/>
       <use xlink:href="#MicrosoftYaHei-30" x="117.285156"/>
      </g>
     </g>
    </g>
    <g id="ytick_4">
     <g id="line2d_12">
      <path d="M 52.340625 177.270494 
L 509.900625 177.270494 
" clip-path="url(#peb6f5aeca2)" style="fill: none; stroke: #e7e7ec; stroke-linecap: square"/>
     </g>
     <g id="line2d_13">
      <g>
       <use xlink:href="#m437e210446" x="52.340625" y="177.270494" style="stroke: #000000; stroke-width: 0.8"/>
      </g>
     </g>
     <g id="text_10">
      <!-- 600 -->
      <g transform="translate(27.748438 181.267369) scale(0.1 -0.1)">
       <defs>
        <path id="MicrosoftYaHei-36" d="M 3181 4219 
Q 2803 4413 2391 4413 
Q 1763 4413 1381 3866 
Q 1000 3319 994 2372 
L 1009 2372 
Q 1353 3038 2106 3038 
Q 2734 3038 3109 2628 
Q 3484 2219 3484 1541 
Q 3484 831 3051 375 
Q 2619 -81 1947 -81 
Q 1209 -81 789 495 
Q 369 1072 369 2131 
Q 369 3413 920 4167 
Q 1472 4922 2372 4922 
Q 2888 4922 3181 4781 
L 3181 4219 
z
M 1031 1584 
Q 1031 1106 1286 765 
Q 1541 425 1963 425 
Q 2363 425 2613 719 
Q 2863 1013 2863 1475 
Q 2863 1975 2627 2253 
Q 2391 2531 1956 2531 
Q 1544 2531 1287 2250 
Q 1031 1969 1031 1584 
z
" transform="scale(0.015625)"/>
       </defs>
       <use xlink:href="#MicrosoftYaHei-36"/>
       <use xlink:href="#MicrosoftYaHei-30" x="58.642578"/>
       <use xlink:href="#MicrosoftYaHei-30" x="117.285156"/>
      </g>
     </g>
    </g>
    <g id="ytick_5">
     <g id="line2d_14">
      <path d="M 52.340625 141.4887 
L 509.900625 141.4887 
" clip-path="url(#peb6f5aeca2)" style="fill: none; stroke: #e7e7ec; stroke-linecap: square"/>
     </g>
     <g id="line2d_15">
      <g>
       <use xlink:href="#m437e210446" x="52.340625" y="141.4887" style="stroke: #000000; stroke-width: 0.8"/>
      </g>
     </g>
     <g id="text_11">
      <!-- 800 -->
      <g transform="translate(27.748438 145.485575) scale(0.1 -0.1)">
       <defs>
        <path id="MicrosoftYaHei-38" d="M 306 1350 
Q 306 1769 556 2122 
Q 806 2475 1200 2625 
Q 884 2803 700 3081 
Q 516 3359 516 3684 
Q 516 4028 692 4312 
Q 869 4597 1183 4759 
Q 1497 4922 1875 4922 
Q 2256 4922 2572 4761 
Q 2888 4600 3063 4315 
Q 3238 4031 3238 3684 
Q 3238 3366 3058 3086 
Q 2878 2806 2559 2625 
Q 2953 2472 3200 2119 
Q 3447 1766 3447 1350 
Q 3447 938 3250 611 
Q 3053 284 2690 103 
Q 2328 -78 1875 -78 
Q 1425 -78 1065 103 
Q 706 284 506 612 
Q 306 941 306 1350 
z
M 906 1378 
Q 906 947 1172 687 
Q 1438 428 1878 428 
Q 2309 428 2582 692 
Q 2856 956 2856 1378 
Q 2856 1778 2579 2051 
Q 2303 2325 1878 2325 
Q 1456 2325 1181 2058 
Q 906 1791 906 1378 
z
M 1081 3634 
Q 1081 3309 1312 3076 
Q 1544 2844 1878 2844 
Q 2206 2844 2445 3078 
Q 2684 3313 2684 3634 
Q 2684 3963 2454 4191 
Q 2225 4419 1878 4419 
Q 1534 4419 1307 4195 
Q 1081 3972 1081 3634 
z
" transform="scale(0.015625)"/>
       </defs>
       <use xlink:href="#MicrosoftYaHei-38"/>
       <use xlink:href="#MicrosoftYaHei-30" x="58.642578"/>
       <use xlink:href="#MicrosoftYaHei-30" x="117.285156"/>
      </g>
     </g>
    </g>
    <g id="ytick_6">
     <g id="line2d_16">
      <path d="M 52.340625 105.706907 
L 509.900625 105.706907 
" clip-path="url(#peb6f5aeca2)" style="fill: none; stroke: #e7e7ec; stroke-linecap: square"/>
     </g>
     <g id="line2d_17">
      <g>
       <use xlink:href="#m437e210446" x="52.340625" y="105.706907" style="stroke: #000000; stroke-width: 0.8"/>
      </g>
     </g>
     <g id="text_12">
      <!-- 1000 -->
      <g transform="translate(21.884375 109.703782) scale(0.1 -0.1)">
       <use xlink:href="#MicrosoftYaHei-31"/>
       <use xlink:href="#MicrosoftYaHei-30" x="58.642578"/>
       <use xlink:href="#MicrosoftYaHei-30" x="117.285156"/>
       <use xlink:href="#MicrosoftYaHei-30" x="175.927734"/>
      </g>
     </g>
    </g>
    <g id="ytick_7">
     <g id="line2d_18">
      <path d="M 52.340625 69.925113 
L 509.900625 69.925113 
" clip-path="url(#peb6f5aeca2)" style="fill: none; stroke: #e7e7ec; stroke-linecap: square"/>
     </g>
     <g id="line2d_19">
      <g>
       <use xlink:href="#m437e210446" x="52.340625" y="69.925113" style="stroke: #000000; stroke-width: 0.8"/>
      </g>
     </g>
     <g id="text_13">
      <!-- 1200 -->
      <g transform="translate(21.884375 73.921988) scale(0.1 -0.1)">
       <use xlink:href="#MicrosoftYaHei-31"/>
       <use xlink:href="#MicrosoftYaHei-32" x="58.642578"/>
       <use xlink:href="#MicrosoftYaHei-30" x="117.285156"/>
       <use xlink:href="#MicrosoftYaHei-30" x="175.927734"/>
      </g>
     </g>
    </g>
    <g id="ytick_8">
     <g id="line2d_20">
      <path d="M 52.340625 34.143319 
L 509.900625 34.143319 
" clip-path="url(#peb6f5aeca2)" style="fill: none; stroke: #e7e7ec; stroke-linecap: square"/>
     </g>
     <g id="line2d_21">
      <g>
       <use xlink:href="#m437e210446" x="52.340625" y="34.143319" style="stroke: #000000; stroke-width: 0.8"/>
      </g>
     </g>
     <g id="text_14">
      <!-- 1400 -->
      <g transform="translate(21.884375 38.140194) scale(0.1 -0.1)">
       <use xlink:href="#MicrosoftYaHei-31"/>
       <use xlink:href="#MicrosoftYaHei-34" x="58.642578"/>
       <use xlink:href="#MicrosoftYaHei-30" x="117.285156"/>
       <use xlink:href="#MicrosoftYaHei-30" x="175.927734"/>
      </g>
     </g>
    </g>
    <g id="text_15">
     <!-- 吞吐 (req/s) -->
     <g transform="translate(15.398438 184.25075) rotate(-90) scale(0.1 -0.1)">
      <defs>
       <path id="MicrosoftYaHei-541e" d="M 238 3522 
L 2547 3522 
Q 2781 3972 2925 4522 
L 706 4522 
L 706 4959 
L 5719 4959 
L 5719 4522 
L 3459 4522 
Q 3294 3963 3097 3522 
L 6169 3522 
L 6169 3084 
L 4028 3084 
Q 4844 2038 6331 1753 
Q 6150 1503 6006 1259 
Q 5569 1391 5194 1572 
L 5194 -841 
L 4706 -841 
L 4706 -428 
L 1750 -428 
L 1750 -853 
L 1263 -853 
L 1263 1594 
Q 875 1363 413 1147 
Q 256 1366 75 1572 
Q 1575 2166 2269 3084 
L 238 3084 
L 238 3522 
z
M 4706 1322 
L 1750 1322 
L 1750 -9 
L 4706 -9 
L 4706 1322 
z
M 1509 1747 
L 4869 1747 
Q 4006 2256 3522 3084 
L 2875 3084 
Q 2453 2363 1509 1747 
z
" transform="scale(0.015625)"/>
       <path id="MicrosoftYaHei-5410" d="M 519 4528 
L 2375 4528 
L 2375 503 
L 994 503 
L 994 59 
L 519 59 
L 519 4528 
z
M 2363 16 
L 4200 16 
L 4200 2878 
L 2838 2878 
L 2838 3353 
L 4200 3353 
L 4200 5247 
L 4731 5247 
L 4731 3353 
L 6069 3353 
L 6069 2878 
L 4731 2878 
L 4731 16 
L 6306 16 
L 6306 -453 
L 2363 -453 
L 2363 16 
z
M 1900 4072 
L 994 4072 
L 994 959 
L 1900 959 
L 1900 4072 
z
" transform="scale(0.015625)"/>
       <path id="MicrosoftYaHei-72" d="M 2400 2850 
Q 2247 2959 1978 2959 
Q 1622 2959 1390 2626 
Q 1159 2294 1159 1750 
L 1159 0 
L 547 0 
L 547 3456 
L 1159 3456 
L 1159 2753 
L 1172 2753 
Q 1434 3516 2078 3516 
Q 2288 3516 2400 3469 
L 2400 2850 
z
" transform="scale(0.015625)"/>
       <path id="MicrosoftYaHei-65" d="M 3363 1572 
L 944 1572 
Q 959 1019 1246 717 
Q 1534 416 2050 416 
Q 2631 416 3116 788 
L 3116 241 
Q 2659 -81 1906 -81 
Q 1156 -81 736 394 
Q 316 869 316 1713 
Q 316 2506 777 3022 
Q 1238 3538 1922 3538 
Q 2600 3538 2981 3102 
Q 3363 2666 3363 1881 
L 3363 1572 
z
M 2750 2063 
Q 2747 2531 2528 2787 
Q 2309 3044 1913 3044 
Q 1547 3044 1280 2772 
Q 1013 2500 944 2063 
L 2750 2063 
z
" transform="scale(0.015625)"/>
       <path id="MicrosoftYaHei-71" d="M 3547 -1591 
L 2934 -1591 
L 2934 581 
L 2922 581 
Q 2559 -81 1753 -81 
Q 1100 -81 708 380 
Q 316 841 316 1647 
Q 316 2506 747 3022 
Q 1178 3538 1903 3538 
Q 2603 3538 2922 2988 
L 2934 2988 
L 2934 3456 
L 3547 3456 
L 3547 -1591 
z
M 2934 2044 
Q 2938 2453 2673 2742 
Q 2409 3031 1984 3031 
Q 1497 3031 1219 2668 
Q 941 2306 941 1663 
Q 941 1081 1208 753 
Q 1475 425 1909 425 
Q 2384 425 2661 751 
Q 2938 1078 2934 1566 
L 2934 2044 
z
" transform="scale(0.015625)"/>
       <path id="MicrosoftYaHei-2f" d="M 2791 4841 
L 469 -803 
L -103 -803 
L 2219 4841 
L 2791 4841 
z
" transform="scale(0.015625)"/>
       <path id="MicrosoftYaHei-73" d="M 353 747 
Q 816 413 1350 413 
Q 2066 413 2066 881 
Q 2066 1081 1909 1211 
Q 1753 1341 1275 1519 
Q 700 1750 528 1976 
Q 356 2203 356 2525 
Q 356 2984 745 3261 
Q 1134 3538 1703 3538 
Q 2144 3538 2522 3384 
L 2522 2794 
Q 2134 3044 1644 3044 
Q 1350 3044 1165 2916 
Q 981 2788 981 2578 
Q 981 2372 1114 2256 
Q 1247 2141 1703 1959 
Q 2281 1744 2484 1512 
Q 2688 1281 2688 941 
Q 2688 466 2298 192 
Q 1909 -81 1291 -81 
Q 753 -81 353 122 
L 353 747 
z
" transform="scale(0.015625)"/>
      </defs>
      <use xlink:href="#MicrosoftYaHei-541e"/>
      <use xlink:href="#MicrosoftYaHei-5410" x="100"/>
      <use xlink:href="#MicrosoftYaHei-20" x="200"/>
      <use xlink:href="#MicrosoftYaHei-28" x="229.589844"/>
      <use xlink:href="#MicrosoftYaHei-72" x="262.988281"/>
      <use xlink:href="#MicrosoftYaHei-65" x="299.796875"/>
      <use xlink:href="#MicrosoftYaHei-71" x="356.535156"/>
      <use xlink:href="#MicrosoftYaHei-2f" x="420.5"/>
      <use xlink:href="#MicrosoftYaHei-73" x="463.224609"/>
      <use xlink:href="#MicrosoftYaHei-29" x="509.513672"/>
     </g>
    </g>
   </g>
   <g id="patch_3">
    <path d="M 73.138807 284.615875 
L 127.394933 284.615875 
L 127.394933 72.07202 
L 73.138807 72.07202 
z
" clip-path="url(#peb6f5aeca2)" style="fill: #a4233a"/>
   </g>
   <g id="patch_4">
    <path d="M 163.565684 284.615875 
L 217.821811 284.615875 
L 217.821811 103.38109 
L 163.565684 103.38109 
z
" clip-path="url(#peb6f5aeca2)" style="fill: #a4233a"/>
   </g>
   <g id="patch_5">
    <path d="M 253.992562 284.615875 
L 308.248688 284.615875 
L 308.248688 68.493841 
L 253.992562 68.493841 
z
" clip-path="url(#peb6f5aeca2)" style="fill: #a4233a"/>
   </g>
   <g id="patch_6">
    <path d="M 344.419439 284.615875 
L 398.675566 284.615875 
L 398.675566 79.407288 
L 344.419439 79.407288 
z
" clip-path="url(#peb6f5aeca2)" style="fill: #a4233a"/>
   </g>
   <g id="patch_7">
    <path d="M 434.846317 284.615875 
L 489.102443 284.615875 
L 489.102443 206.432656 
L 434.846317 206.432656 
z
" clip-path="url(#peb6f5aeca2)" style="fill: #a4233a"/>
   </g>
   <g id="patch_8">
    <path d="M 52.340625 284.615875 
L 52.340625 29.591875 
" style="fill: none; stroke: #c9ccd2; stroke-width: 0.8; stroke-linejoin: miter; stroke-linecap: square"/>
   </g>
   <g id="patch_9">
    <path d="M 52.340625 284.615875 
L 509.900625 284.615875 
" style="fill: none; stroke: #c9ccd2; stroke-width: 0.8; stroke-linejoin: miter; stroke-linecap: square"/>
   </g>
   <g id="text_16">
    <!-- 1188 -->
    <g style="fill: #1d1d1f" transform="translate(88.538745 67.07202) scale(0.1 -0.1)">
     <use xlink:href="#MicrosoftYaHei-31"/>
     <use xlink:href="#MicrosoftYaHei-31" x="58.642578"/>
     <use xlink:href="#MicrosoftYaHei-38" x="117.285156"/>
     <use xlink:href="#MicrosoftYaHei-38" x="175.927734"/>
    </g>
   </g>
   <g id="text_17">
    <!-- 1013 -->
    <g style="fill: #1d1d1f" transform="translate(178.965623 98.38109) scale(0.1 -0.1)">
     <use xlink:href="#MicrosoftYaHei-31"/>
     <use xlink:href="#MicrosoftYaHei-30" x="58.642578"/>
     <use xlink:href="#MicrosoftYaHei-31" x="117.285156"/>
     <use xlink:href="#MicrosoftYaHei-33" x="175.927734"/>
    </g>
   </g>
   <g id="text_18">
    <!-- 1208 -->
    <g style="fill: #1d1d1f" transform="translate(269.3925 63.493841) scale(0.1 -0.1)">
     <use xlink:href="#MicrosoftYaHei-31"/>
     <use xlink:href="#MicrosoftYaHei-32" x="58.642578"/>
     <use xlink:href="#MicrosoftYaHei-30" x="117.285156"/>
     <use xlink:href="#MicrosoftYaHei-38" x="175.927734"/>
    </g>
   </g>
   <g id="text_19">
    <!-- 1147 -->
    <g style="fill: #1d1d1f" transform="translate(359.819377 74.407288) scale(0.1 -0.1)">
     <defs>
      <path id="MicrosoftYaHei-37" d="M 3422 4463 
Q 2659 3131 2223 1998 
Q 1788 866 1684 0 
L 1047 0 
Q 1163 853 1594 1947 
Q 2025 3041 2747 4300 
L 347 4300 
L 347 4841 
L 3422 4841 
L 3422 4463 
z
" transform="scale(0.015625)"/>
     </defs>
     <use xlink:href="#MicrosoftYaHei-31"/>
     <use xlink:href="#MicrosoftYaHei-31" x="58.642578"/>
     <use xlink:href="#MicrosoftYaHei-34" x="117.285156"/>
     <use xlink:href="#MicrosoftYaHei-37" x="175.927734"/>
    </g>
   </g>
   <g id="text_20">
    <!-- 437 -->
    <g style="fill: #1d1d1f" transform="translate(453.178286 201.432656) scale(0.1 -0.1)">
     <use xlink:href="#MicrosoftYaHei-34"/>
     <use xlink:href="#MicrosoftYaHei-33" x="58.642578"/>
     <use xlink:href="#MicrosoftYaHei-37" x="117.285156"/>
    </g>
   </g>
   <g id="text_21">
    <!-- 吞吐随并发变化（容量=100，异步模式） -->
    <g style="fill: #1d1d1f" transform="translate(160.864531 17.591875) scale(0.13 -0.13)">
     <defs>
      <path id="MicrosoftYaHei-968f" d="M 3256 4641 
L 4128 4641 
Q 4247 4963 4331 5291 
L 4756 5172 
Q 4663 4897 4563 4641 
L 6181 4641 
L 6181 4228 
L 4397 4228 
Q 4266 3916 4122 3628 
L 5794 3628 
L 5794 791 
Q 5794 134 5156 134 
L 4569 134 
Q 4563 178 4481 597 
Q 4838 578 5056 578 
Q 5369 578 5369 891 
L 5369 1328 
L 4113 1328 
L 4113 122 
L 3688 122 
L 3688 2841 
Q 3459 2475 3213 2153 
Q 3119 2397 3019 2597 
Q 3600 3394 3963 4228 
L 3256 4228 
L 3256 4641 
z
M 2081 1809 
Q 2225 666 1531 509 
Q 1325 466 969 503 
Q 925 697 844 991 
Q 1163 916 1375 947 
Q 1756 1009 1625 1809 
Q 1531 2241 1075 2772 
Q 1325 3578 1563 4459 
L 831 4459 
L 831 -809 
L 388 -809 
L 388 4909 
L 2025 4909 
L 2025 4459 
Q 1788 3647 1550 2853 
Q 1975 2359 2081 1809 
z
M 3969 -172 
Q 4688 -203 6244 -153 
Q 6144 -409 6063 -647 
Q 4763 -672 3956 -622 
Q 3069 -584 2600 78 
Q 2275 -366 1988 -834 
L 1681 -447 
Q 1891 -131 2444 572 
L 2444 2709 
L 1938 2709 
L 1938 3134 
L 2881 3134 
L 2881 403 
Q 3263 -156 3969 -172 
z
M 4113 1716 
L 5369 1716 
L 5369 2278 
L 4113 2278 
L 4113 1716 
z
M 5369 3228 
L 4113 3228 
L 4113 2666 
L 5369 2666 
L 5369 3228 
z
M 2575 5253 
Q 2881 4491 3044 3959 
Q 2794 3878 2606 3797 
Q 2450 4378 2181 5116 
L 2575 5253 
z
" transform="scale(0.015625)"/>
      <path id="MicrosoftYaHei-53d8" d="M 838 1634 
L 838 2066 
L 5088 2066 
L 5088 1634 
Q 4494 853 3659 309 
Q 4675 -178 6313 -297 
Q 6088 -609 5950 -822 
Q 4275 -594 3178 34 
Q 2122 -509 425 -866 
Q 269 -622 106 -403 
Q 1741 -122 2728 328 
Q 2047 838 1553 1634 
L 838 1634 
z
M 231 4534 
L 3081 4534 
Q 2888 4884 2725 5141 
L 3175 5359 
Q 3481 4884 3600 4659 
L 3359 4534 
L 6200 4534 
L 6200 4091 
L 4181 4091 
L 4181 2353 
L 3700 2353 
L 3700 4091 
L 2694 4091 
L 2694 2341 
L 2213 2341 
L 2213 4091 
L 231 4091 
L 231 4534 
z
M 4475 1634 
L 2116 1634 
Q 2575 953 3197 572 
Q 3947 1016 4475 1634 
z
M 4556 3434 
L 4900 3728 
Q 5700 3009 6213 2459 
L 5825 2116 
Q 5219 2797 4556 3434 
z
M 1381 3741 
L 1756 3422 
Q 1119 2691 500 2097 
Q 344 2272 138 2447 
Q 794 3009 1381 3741 
z
" transform="scale(0.015625)"/>
      <path id="MicrosoftYaHei-5316" d="M 1844 1453 
Q 2663 1834 3375 2331 
L 3375 5197 
L 3913 5197 
L 3913 2734 
Q 4869 3506 5613 4516 
L 6069 4184 
Q 5159 2975 3913 2069 
L 3913 303 
Q 3913 -122 4363 -122 
L 5156 -122 
Q 5581 -122 5650 284 
Q 5738 709 5763 1266 
Q 6025 1166 6313 1084 
Q 6263 559 6181 122 
Q 6063 -597 5281 -597 
L 4225 -597 
Q 3375 -597 3375 241 
L 3375 1703 
Q 2791 1328 2144 1016 
Q 2013 1222 1844 1453 
z
M 88 2222 
Q 1175 3666 1688 5291 
L 2231 5134 
Q 1934 4359 1588 3675 
L 1588 -797 
L 1063 -797 
L 1063 2734 
Q 716 2172 325 1678 
Q 219 1947 88 2222 
z
" transform="scale(0.015625)"/>
      <path id="MicrosoftYaHei-ff08" d="M 5288 -1100 
Q 4172 119 4172 1850 
Q 4172 3603 5288 4838 
L 5825 4838 
Q 4716 3572 4716 1856 
Q 4716 166 5819 -1100 
L 5288 -1100 
z
" transform="scale(0.015625)"/>
      <path id="MicrosoftYaHei-5bb9" d="M 3550 3147 
Q 3500 3091 3444 3022 
Q 4644 1872 6313 1447 
Q 6106 1134 6006 916 
Q 5594 1066 5225 1247 
L 5225 -859 
L 4725 -859 
L 4725 -578 
L 1669 -578 
L 1669 -859 
L 1169 -859 
L 1169 1191 
Q 763 972 338 797 
Q 225 1028 63 1241 
Q 2000 2059 3025 3228 
L 3550 3147 
z
M 363 4572 
L 3038 4572 
Q 2900 4822 2725 5109 
L 3206 5328 
Q 3438 4972 3644 4572 
L 6031 4572 
L 6031 3522 
L 5525 3522 
L 5525 4122 
L 863 4122 
L 863 3497 
L 363 3497 
L 363 4572 
z
M 4725 934 
L 1669 934 
L 1669 -128 
L 4725 -128 
L 4725 934 
z
M 3163 2684 
Q 2394 1928 1494 1384 
L 4950 1384 
Q 3869 1953 3163 2684 
z
M 2338 3847 
L 2638 3441 
Q 1488 2734 706 2359 
Q 594 2566 419 2791 
Q 1494 3259 2338 3847 
z
M 4006 3841 
Q 4944 3409 5938 2859 
L 5650 2416 
Q 4875 2891 3744 3453 
L 4006 3841 
z
" transform="scale(0.015625)"/>
      <path id="MicrosoftYaHei-91cf" d="M 113 -278 
L 2981 -278 
L 2981 78 
L 475 78 
L 475 403 
L 2981 403 
L 2981 759 
L 1494 759 
L 1494 597 
L 1069 597 
L 1069 2516 
L 5350 2516 
L 5350 597 
L 4925 597 
L 4925 759 
L 3419 759 
L 3419 403 
L 5931 403 
L 5931 78 
L 3419 78 
L 3419 -278 
L 6288 -278 
L 6288 -616 
L 113 -616 
L 113 -278 
z
M 1119 5072 
L 5306 5072 
L 5306 3284 
L 4881 3284 
L 4881 3453 
L 1544 3453 
L 1544 3284 
L 1119 3284 
L 1119 5072 
z
M 163 3153 
L 6263 3153 
L 6263 2816 
L 163 2816 
L 163 3153 
z
M 1544 3778 
L 4881 3778 
L 4881 4116 
L 1544 4116 
L 1544 3778 
z
M 4881 4747 
L 1544 4747 
L 1544 4416 
L 4881 4416 
L 4881 4747 
z
M 3419 1084 
L 4925 1084 
L 4925 1491 
L 3419 1491 
L 3419 1084 
z
M 1494 1084 
L 2981 1084 
L 2981 1491 
L 1494 1491 
L 1494 1084 
z
M 4925 2191 
L 3419 2191 
L 3419 1791 
L 4925 1791 
L 4925 2191 
z
M 1494 1791 
L 2981 1791 
L 2981 2191 
L 1494 2191 
L 1494 1791 
z
" transform="scale(0.015625)"/>
      <path id="MicrosoftYaHei-3d" d="M 3972 2497 
L 788 2497 
L 788 2969 
L 3972 2969 
L 3972 2497 
z
M 3972 1053 
L 788 1053 
L 788 1525 
L 3972 1525 
L 3972 1053 
z
" transform="scale(0.015625)"/>
      <path id="MicrosoftYaHei-ff0c" d="M 1931 775 
L 1403 -891 
L 966 -891 
L 1350 775 
L 1931 775 
z
" transform="scale(0.015625)"/>
      <path id="MicrosoftYaHei-5f02" d="M 1731 2547 
L 5050 2547 
Q 5531 2547 5619 2878 
Q 5694 3141 5756 3572 
Q 5988 3472 6250 3378 
Q 6131 2866 6075 2684 
Q 5913 2109 5163 2109 
L 1619 2109 
Q 819 2109 819 2922 
L 819 5016 
L 5338 5016 
L 5338 3116 
L 4856 3116 
L 4856 3328 
L 1300 3328 
L 1300 2972 
Q 1300 2547 1731 2547 
z
M 4256 1922 
L 4750 1922 
L 4750 1178 
L 6250 1178 
L 6250 741 
L 4750 741 
L 4750 -841 
L 4256 -841 
L 4256 741 
L 2125 741 
Q 2050 -322 663 -866 
Q 513 -672 319 -441 
Q 1538 -22 1622 741 
L 144 741 
L 144 1178 
L 1678 1178 
Q 1703 1500 1700 1928 
L 2194 1928 
Q 2194 1509 2172 1178 
L 4256 1178 
L 4256 1922 
z
M 1300 4584 
L 1300 3759 
L 4856 3759 
L 4856 4584 
L 1300 4584 
z
" transform="scale(0.015625)"/>
      <path id="MicrosoftYaHei-6b65" d="M 188 2997 
L 1250 2997 
L 1250 4759 
L 1750 4759 
L 1750 2997 
L 3088 2997 
L 3088 5328 
L 3588 5328 
L 3588 4416 
L 5744 4416 
L 5744 3966 
L 3588 3966 
L 3588 2997 
L 6225 2997 
L 6225 2534 
L 188 2534 
L 188 2997 
z
M 188 -441 
Q 3744 -9 5400 1872 
L 5794 1484 
Q 4013 -453 375 -891 
Q 306 -691 188 -441 
z
M 1794 2147 
L 2194 1803 
Q 1369 947 613 322 
Q 469 497 275 691 
Q 1044 1291 1794 2147 
z
M 3038 2378 
L 3538 2378 
L 3538 528 
L 3038 528 
L 3038 2378 
z
" transform="scale(0.015625)"/>
      <path id="MicrosoftYaHei-6a21" d="M 2050 984 
L 3859 984 
Q 3900 1213 3913 1547 
L 2950 1547 
L 2950 1372 
L 2500 1372 
L 2500 3634 
L 5844 3634 
L 5844 1372 
L 5394 1372 
L 5394 1547 
L 4344 1547 
Q 4325 1203 4288 984 
L 6250 984 
L 6250 584 
L 4525 584 
Q 5203 -175 6319 -341 
Q 6144 -572 6013 -809 
Q 4803 -456 4128 466 
Q 3681 -431 2075 -847 
Q 1969 -628 1831 -416 
Q 3303 -106 3713 584 
L 2050 584 
L 2050 984 
z
M 63 1409 
Q 603 2316 922 3509 
L 138 3509 
L 138 3922 
L 1006 3922 
L 1006 5309 
L 1444 5309 
L 1444 3922 
L 2256 3922 
L 2256 3509 
L 1444 3509 
L 1444 2684 
L 1688 2884 
Q 2044 2503 2350 2116 
L 2006 1828 
Q 1719 2244 1444 2563 
L 1444 -822 
L 1006 -822 
L 1006 2581 
Q 672 1438 275 859 
Q 188 1128 63 1409 
z
M 4713 5303 
L 5150 5303 
L 5150 4703 
L 6225 4703 
L 6225 4303 
L 5150 4303 
L 5150 3797 
L 4713 3797 
L 4713 4303 
L 3600 4303 
L 3600 3797 
L 3163 3797 
L 3163 4303 
L 2175 4303 
L 2175 4703 
L 3163 4703 
L 3163 5309 
L 3600 5309 
L 3600 4703 
L 4713 4703 
L 4713 5303 
z
M 5394 3247 
L 2950 3247 
L 2950 2778 
L 5394 2778 
L 5394 3247 
z
M 2950 1934 
L 5394 1934 
L 5394 2403 
L 2950 2403 
L 2950 1934 
z
" transform="scale(0.015625)"/>
      <path id="MicrosoftYaHei-5f0f" d="M 94 4122 
L 3569 4122 
Q 3544 4700 3531 5347 
L 4063 5347 
Q 4059 4728 4081 4122 
L 6231 4122 
L 6231 3653 
L 4103 3653 
Q 4225 503 5156 -172 
Q 5494 -447 5631 -22 
Q 5725 303 5800 941 
Q 6094 834 6306 778 
Q 6188 47 6050 -403 
Q 5900 -834 5475 -834 
Q 5044 -834 4619 -397 
Q 3725 553 3597 3653 
L 94 3653 
L 94 4122 
z
M 119 159 
Q 825 244 1569 344 
L 1569 2097 
L 350 2097 
L 350 2566 
L 3288 2566 
L 3288 2097 
L 2081 2097 
L 2081 416 
Q 2809 519 3575 634 
Q 3563 391 3563 128 
Q 1681 -141 244 -366 
L 119 159 
z
M 4544 4978 
L 4844 5297 
Q 5294 4972 5756 4559 
L 5400 4191 
Q 5000 4597 4544 4978 
z
" transform="scale(0.015625)"/>
      <path id="MicrosoftYaHei-ff09" d="M 1113 -1100 
L 575 -1100 
Q 1684 163 1684 1888 
Q 1684 3581 581 4838 
L 1113 4838 
Q 2222 3628 2222 1888 
Q 2222 128 1113 -1100 
z
" transform="scale(0.015625)"/>
     </defs>
     <use xlink:href="#MicrosoftYaHei-541e"/>
     <use xlink:href="#MicrosoftYaHei-5410" x="100"/>
     <use xlink:href="#MicrosoftYaHei-968f" x="200"/>
     <use xlink:href="#MicrosoftYaHei-5e76" x="300"/>
     <use xlink:href="#MicrosoftYaHei-53d1" x="400"/>
     <use xlink:href="#MicrosoftYaHei-53d8" x="500"/>
     <use xlink:href="#MicrosoftYaHei-5316" x="600"/>
     <use xlink:href="#MicrosoftYaHei-ff08" x="700"/>
     <use xlink:href="#MicrosoftYaHei-5bb9" x="800"/>
     <use xlink:href="#MicrosoftYaHei-91cf" x="900"/>
     <use xlink:href="#MicrosoftYaHei-3d" x="1000"/>
     <use xlink:href="#MicrosoftYaHei-31" x="1074.169922"/>
     <use xlink:href="#MicrosoftYaHei-30" x="1132.8125"/>
     <use xlink:href="#MicrosoftYaHei-30" x="1191.455078"/>
     <use xlink:href="#MicrosoftYaHei-ff0c" x="1250.097656"/>
     <use xlink:href="#MicrosoftYaHei-5f02" x="1350.097656"/>
     <use xlink:href="#MicrosoftYaHei-6b65" x="1450.097656"/>
     <use xlink:href="#MicrosoftYaHei-6a21" x="1550.097656"/>
     <use xlink:href="#MicrosoftYaHei-5f0f" x="1650.097656"/>
     <use xlink:href="#MicrosoftYaHei-ff09" x="1750.097656"/>
    </g>
   </g>
  </g>
 </g>
 <defs>
  <clipPath id="peb6f5aeca2">
   <rect x="52.340625" y="29.591875" width="457.56" height="255.024"/>
  </clipPath>
 </defs>
</svg>
