<?xml version="1.0" encoding="utf-8" standalone="no"?>
<!DOCTYPE svg PUBLIC "-//W3C//DTD SVG 1.1//EN"
  "http://www.w3.org/Graphics/SVG/1.1/DTD/svg11.dtd">
<svg xmlns:xlink="http://www.w3.org/1999/xlink" width="516.895937pt" height="323.77525pt" viewBox="0 0 516.895937 323.77525" xmlns="http://www.w3.org/2000/svg" version="1.1">
 <metadata>
  <rdf:RDF xmlns:dc="http://purl.org/dc/elements/1.1/" xmlns:cc="http://creativecommons.org/ns#" xmlns:rdf="http://www.w3.org/1999/02/22-rdf-syntax-ns#">
   <cc:Work>
    <dc:type rdf:resource="http://purl.org/dc/dcmitype/StillImage"/>
    <dc:date>2026-06-09T20:14:45.180362</dc:date>
    <dc:format>image/svg+xml</dc:format>
    <dc:creator>
     <cc:Agent>
      <dc:title>Matplotlib v3.7.0, https://matplotlib.org/</dc:title>
     </cc:Agent>
    </dc:creator>
   </cc:Work>
  </rdf:RDF>
 </metadata>
 <defs>
  <style type="text/css">*{stroke-linejoin: round; stroke-linecap: butt}</style>
 </defs>
 <g id="figure_1">
  <g id="patch_1">
   <path d="M 0 323.77525 
L 516.895937 323.77525 
L 516.895937 0 
L 0 0 
z
" style="fill: #ffffff"/>
  </g>
  <g id="axes_1">
   <g id="patch_2">
    <path d="M 52.135937 284.615875 
L 509.695938 284.615875 
L 509.695938 29.591875 
L 52.135937 29.591875 
z
" style="fill: #ffffff"/>
   </g>
   <g id="matplotlib.axis_1">
    <g id="xtick_1">
     <g id="line2d_1">
      <defs>
       <path id="m5186e19a92" d="M 0 0 
L 0 3.5 
" style="stroke: #000000; stroke-width: 0.8"/>
      </defs>
      <g>
       <use xlink:href="#m5186e19a92" x="107.597756" y="284.615875" style="stroke: #000000; stroke-width: 0.8"/>
      </g>
     </g>
     <g id="text_1">
      <!-- 500 -->
      <g transform="translate(98.801662 299.609625) scale(0.1 -0.1)">
       <defs>
        <path id="MicrosoftYaHei-35" d="M 3294 1494 
Q 3294 784 2823 350 
Q 2353 -84 1559 -84 
Q 878 -84 544 119 
L 544 744 
Q 1034 425 1544 425 
Q 2050 425 2361 704 
Q 2672 984 2672 1447 
Q 2672 1909 2348 2167 
Q 2025 2425 1434 2425 
Q 978 2425 613 2384 
L 791 4841 
L 3053 4841 
L 3053 4303 
L 1306 4303 
L 1206 2931 
L 1647 2950 
Q 2416 2950 2855 2567 
Q 3294 2184 3294 1494 
z
" transform="scale(0.015625)"/>
        <path id="MicrosoftYaHei-30" d="M 284 2325 
Q 284 3606 709 4264 
Q 1134 4922 1941 4922 
Q 3478 4922 3478 2441 
Q 3478 1216 3045 567 
Q 2613 -81 1831 -81 
Q 1094 -81 689 534 
Q 284 1150 284 2325 
z
M 909 2353 
Q 909 425 1888 425 
Q 2850 425 2850 2384 
Q 2850 4413 1906 4413 
Q 909 4413 909 2353 
z
" transform="scale(0.015625)"/>
       </defs>
       <use xlink:href="#MicrosoftYaHei-35"/>
       <use xlink:href="#MicrosoftYaHei-30" x="58.642578"/>
       <use xlink:href="#MicrosoftYaHei-30" x="117.285156"/>
      </g>
     </g>
    </g>
    <g id="xtick_2">
     <g id="line2d_2">
      <g>
       <use xlink:href="#m5186e19a92" x="194.256847" y="284.615875" style="stroke: #000000; stroke-width: 0.8"/>
      </g>
     </g>
     <g id="text_2">
      <!-- 1000 -->
      <g transform="translate(182.528722 299.609625) scale(0.1 -0.1)">
       <defs>
        <path id="MicrosoftYaHei-31" d="M 1781 0 
L 1781 4141 
Q 1638 3997 1295 3819 
Q 953 3641 663 3569 
L 663 4169 
Q 1047 4275 1484 4508 
Q 1922 4741 2156 4947 
L 2388 4947 
L 2388 0 
L 1781 0 
z
" transform="scale(0.015625)"/>
       </defs>
       <use xlink:href="#MicrosoftYaHei-31"/>
       <use xlink:href="#MicrosoftYaHei-30" x="58.642578"/>
       <use xlink:href="#MicrosoftYaHei-30" x="117.285156"/>
       <use xlink:href="#MicrosoftYaHei-30" x="175.927734"/>
      </g>
     </g>
    </g>
    <g id="xtick_3">
     <g id="line2d_3">
      <g>
       <use xlink:href="#m5186e19a92" x="280.915937" y="284.615875" style="stroke: #000000; stroke-width: 0.8"/>
      </g>
     </g>
     <g id="text_3">
      <!-- 2000 -->
      <g transform="translate(269.187812 299.609625) scale(0.1 -0.1)">
       <defs>
        <path id="MicrosoftYaHei-32" d="M 2666 3572 
Q 2666 3963 2419 4186 
Q 2172 4409 1747 4409 
Q 1447 4409 1140 4256 
Q 834 4103 569 3819 
L 569 4413 
Q 806 4659 1107 4790 
Q 1409 4922 1816 4922 
Q 2472 4922 2872 4570 
Q 3272 4219 3272 3619 
Q 3272 3084 3026 2693 
Q 2781 2303 2188 1894 
Q 1581 1475 1376 1294 
Q 1172 1113 1090 947 
Q 1009 781 1009 544 
L 3416 544 
L 3416 0 
L 372 0 
L 372 241 
Q 372 659 486 951 
Q 600 1244 862 1520 
Q 1125 1797 1681 2184 
Q 2250 2584 2458 2886 
Q 2666 3188 2666 3572 
z
" transform="scale(0.015625)"/>
       </defs>
       <use xlink:href="#MicrosoftYaHei-32"/>
       <use xlink:href="#MicrosoftYaHei-30" x="58.642578"/>
       <use xlink:href="#MicrosoftYaHei-30" x="117.285156"/>
       <use xlink:href="#MicrosoftYaHei-30" x="175.927734"/>
      </g>
     </g>
    </g>
    <g id="xtick_4">
     <g id="line2d_4">
      <g>
       <use xlink:href="#m5186e19a92" x="367.575028" y="284.615875" style="stroke: #000000; stroke-width: 0.8"/>
      </g>
     </g>
     <g id="text_4">
      <!-- 3000 -->
      <g transform="translate(355.846903 299.609625) scale(0.1 -0.1)">
       <defs>
        <path id="MicrosoftYaHei-33" d="M 447 809 
Q 944 425 1569 425 
Q 2069 425 2361 670 
Q 2653 916 2653 1328 
Q 2653 2247 1338 2247 
L 934 2247 
L 934 2753 
L 1319 2753 
Q 2484 2753 2484 3616 
Q 2484 4413 1594 4413 
Q 1084 4413 634 4069 
L 634 4647 
Q 1109 4922 1744 4922 
Q 2363 4922 2738 4598 
Q 3113 4275 3113 3759 
Q 3113 2809 2144 2538 
L 2144 2525 
Q 2669 2469 2973 2155 
Q 3278 1841 3278 1372 
Q 3278 719 2808 319 
Q 2338 -81 1556 -81 
Q 869 -81 447 175 
L 447 809 
z
" transform="scale(0.015625)"/>
       </defs>
       <use xlink:href="#MicrosoftYaHei-33"/>
       <use xlink:href="#MicrosoftYaHei-30" x="58.642578"/>
       <use xlink:href="#MicrosoftYaHei-30" x="117.285156"/>
       <use xlink:href="#MicrosoftYaHei-30" x="175.927734"/>
      </g>
     </g>
    </g>
    <g id="xtick_5">
     <g id="line2d_5">
      <g>
       <use xlink:href="#m5186e19a92" x="454.234119" y="284.615875" style="stroke: #000000; stroke-width: 0.8"/>
      </g>
     </g>
     <g id="text_5">
      <!-- 5000 -->
      <g transform="translate(442.505994 299.609625) scale(0.1 -0.1)">
       <use xlink:href="#MicrosoftYaHei-35"/>
       <use xlink:href="#MicrosoftYaHei-30" x="58.642578"/>
       <use xlink:href="#MicrosoftYaHei-30" x="117.285156"/>
       <use xlink:href="#MicrosoftYaHei-30" x="175.927734"/>
      </g>
     </g>
    </g>
    <g id="text_6">
     <!-- 并发抢课请求数 (人) -->
     <g transform="translate(236.095625 314.089312) scale(0.1 -0.1)">
      <defs>
       <path id="MicrosoftYaHei-5e76" d="M 125 2172 
L 1778 2172 
Q 1781 2272 1781 3684 
L 394 3684 
L 394 4172 
L 2169 4172 
Q 1772 4697 1438 5059 
L 1813 5341 
Q 2325 4828 2619 4447 
L 2222 4172 
L 3784 4172 
Q 4178 4694 4581 5347 
L 5075 5041 
Q 4684 4538 4366 4172 
L 6006 4172 
L 6006 3684 
L 4681 3684 
L 4681 2172 
L 6275 2172 
L 6275 1684 
L 4681 1684 
L 4681 -816 
L 4169 -816 
L 4169 1684 
L 2266 1684 
Q 2188 28 744 -872 
Q 513 -566 394 -434 
Q 1713 403 1747 1684 
L 125 1684 
L 125 2172 
z
M 2291 2172 
L 4169 2172 
L 4169 3684 
L 2294 3684 
Q 2294 2384 2291 2172 
z
" transform="scale(0.015625)"/>
       <path id="MicrosoftYaHei-53d1" d="M 944 3909 
L 2266 3909 
Q 2419 4563 2525 5334 
L 3056 5266 
Q 2950 4556 2797 3909 
L 6250 3909 
L 6250 3447 
L 2678 3447 
Q 2566 3034 2431 2653 
L 5531 2653 
L 5531 2222 
Q 5119 1200 4247 456 
Q 5125 -75 6294 -291 
Q 6013 -603 5856 -816 
Q 4856 -484 3844 153 
Q 3031 -381 1519 -859 
Q 1344 -609 1144 -397 
Q 2681 3 3441 450 
Q 2619 1153 2269 2222 
Q 1584 509 406 -591 
Q 238 -353 75 -166 
Q 1484 1106 2147 3447 
L 413 3447 
L 413 3916 
Q 669 4509 881 5109 
L 1388 4972 
Q 1169 4422 944 3909 
z
M 4981 2222 
L 2722 2222 
Q 3003 1356 3838 731 
Q 4647 1400 4981 2222 
z
M 4019 4903 
L 4294 5253 
Q 4906 4866 5469 4447 
L 5131 4041 
Q 4588 4503 4019 4903 
z
" transform="scale(0.015625)"/>
       <path id="MicrosoftYaHei-62a2" d="M 2663 2959 
L 5506 2959 
Q 5456 2078 5394 1503 
Q 5294 709 4506 709 
Q 3963 709 3638 722 
Q 3600 928 3531 1247 
Q 4019 1203 4431 1203 
Q 4856 1203 4913 1603 
Q 4963 2022 4988 2509 
L 3163 2509 
L 3163 366 
Q 3163 -184 3744 -184 
L 5000 -184 
Q 5519 -184 5581 247 
Q 5656 641 5700 1066 
Q 5969 966 6194 897 
Q 6113 409 6019 16 
Q 5863 -659 5100 -659 
L 3619 -659 
Q 2663 -659 2663 259 
L 2663 2959 
z
M 88 1941 
Q 188 1959 981 2147 
L 981 3659 
L 163 3659 
L 163 4078 
L 981 4078 
L 981 5266 
L 1463 5266 
L 1463 4078 
L 2219 4078 
L 2219 3659 
L 1463 3659 
L 1463 2266 
Q 1800 2341 2225 2447 
Q 2219 2328 2219 1947 
Q 2125 1922 1463 1753 
L 1463 -47 
Q 1463 -734 825 -753 
Q 606 -759 256 -759 
Q 231 -522 175 -247 
Q 494 -272 681 -272 
Q 981 -278 981 34 
L 981 1628 
Q 613 1541 131 1422 
L 88 1941 
z
M 4481 5272 
Q 4444 5184 4406 5103 
Q 5144 3822 6319 3197 
Q 6113 2947 5975 2759 
Q 4844 3491 4150 4634 
Q 3531 3578 2300 2703 
Q 2181 2866 1975 3097 
Q 3313 3966 3956 5272 
L 4481 5272 
z
" transform="scale(0.015625)"/>
       <path id="MicrosoftYaHei-8bfe" d="M 6325 -3 
Q 6169 -241 6019 -472 
Q 4884 119 4188 1209 
L 4188 -816 
L 3738 -816 
L 3738 1191 
Q 2953 78 1975 -559 
Q 1794 -328 1613 -147 
Q 2766 469 3513 1409 
L 1819 1409 
L 1819 1822 
L 3738 1822 
L 3738 2503 
L 2575 2503 
L 2575 2303 
L 2138 2303 
L 2138 5053 
L 5788 5053 
L 5788 2303 
L 5350 2303 
L 5350 2503 
L 4188 2503 
L 4188 1822 
L 6150 1822 
L 6150 1409 
L 4413 1409 
Q 5184 425 6325 -3 
z
M 2088 747 
Q 1619 334 1275 -3 
Q 1100 -184 963 -353 
L 613 53 
Q 806 234 806 591 
L 806 2778 
L 113 2778 
L 113 3234 
L 1269 3234 
L 1269 634 
Q 1581 909 1969 1284 
Q 2019 1016 2088 747 
z
M 5350 4653 
L 4188 4653 
L 4188 3972 
L 5350 3972 
L 5350 4653 
z
M 4188 2903 
L 5350 2903 
L 5350 3584 
L 4188 3584 
L 4188 2903 
z
M 2575 3972 
L 3738 3972 
L 3738 4653 
L 2575 4653 
L 2575 3972 
z
M 2575 2903 
L 3738 2903 
L 3738 3584 
L 2575 3584 
L 2575 2903 
z
M 800 5178 
Q 1363 4634 1725 4184 
L 1338 3866 
Q 900 4428 469 4884 
L 800 5178 
z
" transform="scale(0.015625)"/>
       <path id="MicrosoftYaHei-8bf7" d="M 2788 -791 
L 2300 -791 
L 2300 2378 
L 5775 2378 
L 5775 -53 
Q 5775 -728 5081 -734 
Q 4713 -741 4138 -741 
Q 4106 -541 4044 -259 
Q 4588 -297 4931 -297 
Q 5288 -297 5288 28 
L 5288 341 
L 2788 341 
L 2788 -791 
z
M 1750 3153 
L 3769 3153 
L 3769 3584 
L 2169 3584 
L 2169 3978 
L 3769 3978 
L 3769 4397 
L 1950 4397 
L 1950 4791 
L 3769 4791 
L 3769 5353 
L 4275 5353 
L 4275 4791 
L 6181 4791 
L 6181 4397 
L 4275 4397 
L 4275 3978 
L 6019 3978 
L 6019 3584 
L 4275 3584 
L 4275 3153 
L 6306 3153 
L 6306 2759 
L 1750 2759 
L 1750 3153 
z
M 2056 753 
Q 2075 441 2100 209 
Q 1425 -241 956 -603 
L 669 -191 
Q 881 9 881 353 
L 881 2716 
L 119 2716 
L 119 3172 
L 1356 3172 
L 1356 259 
Q 1706 497 2056 753 
z
M 5288 1978 
L 2788 1978 
L 2788 1547 
L 5288 1547 
L 5288 1978 
z
M 2788 728 
L 5288 728 
L 5288 1159 
L 2788 1159 
L 2788 728 
z
M 825 5141 
Q 1338 4634 1731 4197 
L 1294 3834 
Q 863 4391 450 4822 
L 825 5141 
z
" transform="scale(0.015625)"/>
       <path id="MicrosoftYaHei-6c42" d="M 225 4178 
L 2969 4178 
L 2969 5309 
L 3494 5309 
L 3494 4178 
L 6225 4178 
L 6225 3728 
L 3494 3728 
L 3494 3341 
Q 3800 2641 4219 2066 
Q 4869 2628 5444 3316 
L 5888 2947 
Q 5119 2184 4525 1684 
Q 5275 809 6319 284 
Q 6088 16 5944 -203 
Q 4331 741 3494 2322 
L 3494 28 
Q 3494 -778 2650 -778 
Q 2200 -778 1819 -766 
Q 1781 -509 1719 -209 
Q 2213 -266 2525 -266 
Q 2969 -266 2969 191 
L 2969 1372 
Q 1494 616 400 -3 
L 131 509 
Q 1438 1116 2969 1953 
L 2969 3728 
L 225 3728 
L 225 4178 
z
M 1144 3353 
Q 1644 2859 2163 2247 
Q 1969 2084 1731 1897 
Q 1294 2466 769 3047 
L 1144 3353 
z
M 4069 4978 
L 4369 5309 
Q 4963 4934 5313 4628 
L 4975 4253 
Q 4606 4578 4069 4978 
z
" transform="scale(0.015625)"/>
       <path id="MicrosoftYaHei-6570" d="M 4175 5303 
L 4675 5228 
Q 4544 4622 4369 4097 
L 6281 4097 
L 6281 3672 
L 5888 3672 
Q 5731 1834 5088 753 
Q 5594 66 6375 -372 
Q 6175 -647 6038 -866 
Q 5275 -372 4769 309 
Q 4194 -403 3400 -928 
Q 3263 -747 3044 -534 
Q 3919 41 4463 772 
Q 3956 1647 3794 2791 
Q 3663 2559 3519 2359 
Q 3394 2541 3206 2759 
Q 3931 3803 4175 5303 
z
M 150 1697 
L 1100 1697 
Q 1238 1934 1369 2184 
L 1819 2041 
Q 1719 1866 1619 1697 
L 3150 1697 
L 3150 1291 
Q 2913 678 2431 216 
Q 2775 53 3131 -109 
L 2856 -541 
Q 2469 -322 2050 -103 
Q 1344 -609 269 -903 
Q 169 -703 56 -466 
Q 969 -259 1600 128 
Q 1063 403 475 691 
Q 675 978 863 1284 
L 150 1284 
L 150 1697 
z
M 219 3847 
L 1656 3847 
L 1656 5247 
L 2119 5247 
L 2119 3847 
L 3319 3847 
L 3319 3434 
L 2119 3434 
L 2119 3053 
L 2306 3266 
Q 2888 2841 3281 2516 
L 2981 2166 
Q 2638 2491 2119 2897 
L 2119 2184 
L 1656 2184 
L 1656 3059 
Q 1088 2466 331 2016 
Q 213 2197 63 2397 
Q 850 2822 1506 3434 
L 219 3434 
L 219 3847 
z
M 5388 3672 
L 4219 3672 
Q 4188 3591 4150 3516 
Q 4263 2191 4775 1247 
Q 5275 2159 5388 3672 
z
M 1088 834 
Q 1531 634 2000 416 
Q 2431 784 2675 1284 
L 1375 1284 
Q 1231 1053 1088 834 
z
M 3038 5091 
L 3425 4834 
Q 3081 4384 2738 4003 
Q 2594 4128 2400 4266 
Q 2725 4647 3038 5091 
z
M 381 4816 
L 738 5059 
Q 1019 4716 1319 4322 
L 931 4047 
Q 656 4453 381 4816 
z
" transform="scale(0.015625)"/>
       <path id="MicrosoftYaHei-20" transform="scale(0.015625)"/>
       <path id="MicrosoftYaHei-28" d="M 1531 -1100 
Q 478 100 478 1847 
Q 478 3594 1531 4841 
L 2072 4841 
Q 1016 3544 1016 1853 
Q 1016 166 2066 -1100 
L 1531 -1100 
z
" transform="scale(0.015625)"/>
       <path id="MicrosoftYaHei-4eba" d="M 100 -303 
Q 2825 1272 2981 5222 
L 3531 5222 
Q 3497 4553 3400 3947 
Q 4175 822 6313 -166 
Q 6050 -453 5850 -709 
Q 3994 341 3203 3006 
Q 2519 431 494 -778 
Q 325 -547 100 -303 
z
" transform="scale(0.015625)"/>
       <path id="MicrosoftYaHei-29" d="M 78 -1100 
Q 1131 163 1131 1853 
Q 1131 3547 72 4841 
L 616 4841 
Q 1672 3603 1672 1847 
Q 1672 91 616 -1100 
L 78 -1100 
z
" transform="scale(0.015625)"/>
      </defs>
      <use xlink:href="#MicrosoftYaHei-5e76"/>
      <use xlink:href="#MicrosoftYaHei-53d1" x="100"/>
      <use xlink:href="#MicrosoftYaHei-62a2" x="200"/>
      <use xlink:href="#MicrosoftYaHei-8bfe" x="300"/>
      <use xlink:href="#MicrosoftYaHei-8bf7" x="400"/>
      <use xlink:href="#MicrosoftYaHei-6c42" x="500"/>
      <use xlink:href="#MicrosoftYaHei-6570" x="600"/>
      <use xlink:href="#MicrosoftYaHei-20" x="700"/>
      <use xlink:href="#MicrosoftYaHei-28" x="729.589844"/>
      <use xlink:href="#MicrosoftYaHei-4eba" x="762.988281"/>
      <use xlink:href="#MicrosoftYaHei-29" x="862.988281"/>
     </g>
    </g>
   </g>
   <g id="matplotlib.axis_2">
    <g id="ytick_1">
     <g id="line2d_6">
      <path d="M 52.135937 284.615875 
L 509.695938 284.615875 
" clip-path="url(#p121b37a105)" style="fill: none; stroke: #e7e7ec; stroke-linecap: square"/>
     </g>
     <g id="line2d_7">
      <defs>
       <path id="m0ef85e66af" d="M 0 0 
L -3.5 0 
" style="stroke: #000000; stroke-width: 0.8"/>
      </defs>
      <g>
       <use xlink:href="#m0ef85e66af" x="52.135937" y="284.615875" style="stroke: #000000; stroke-width: 0.8"/>
      </g>
     </g>
     <g id="text_7">
      <!-- 0 -->
      <g transform="translate(39.271875 288.61275) scale(0.1 -0.1)">
       <use xlink:href="#MicrosoftYaHei-30"/>
      </g>
     </g>
    </g>
    <g id="ytick_2">
     <g id="line2d_8">
      <path d="M 52.135937 236.039875 
L 509.695938 236.039875 
" clip-path="url(#p121b37a105)" style="fill: none; stroke: #e7e7ec; stroke-linecap: square"/>
     </g>
     <g id="line2d_9">
      <g>
       <use xlink:href="#m0ef85e66af" x="52.135937" y="236.039875" style="stroke: #000000; stroke-width: 0.8"/>
      </g>
     </g>
     <g id="text_8">
      <!-- 1000 -->
      <g transform="translate(21.679687 240.03675) scale(0.1 -0.1)">
       <use xlink:href="#MicrosoftYaHei-31"/>
       <use xlink:href="#MicrosoftYaHei-30" x="58.642578"/>
       <use xlink:href="#MicrosoftYaHei-30" x="117.285156"/>
       <use xlink:href="#MicrosoftYaHei-30" x="175.927734"/>
      </g>
     </g>
    </g>
    <g id="ytick_3">
     <g id="line2d_10">
      <path d="M 52.135937 187.463875 
L 509.695938 187.463875 
" clip-path="url(#p121b37a105)" style="fill: none; stroke: #e7e7ec; stroke-linecap: square"/>
     </g>
     <g id="line2d_11">
      <g>
       <use xlink:href="#m0ef85e66af" x="52.135937" y="187.463875" style="stroke: #000000; stroke-width: 0.8"/>
      </g>
     </g>
     <g id="text_9">
      <!-- 2000 -->
      <g transform="translate(21.679687 191.46075) scale(0.1 -0.1)">
       <use xlink:href="#MicrosoftYaHei-32"/>
       <use xlink:href="#MicrosoftYaHei-30" x="58.642578"/>
       <use xlink:href="#MicrosoftYaHei-30" x="117.285156"/>
       <use xlink:href="#MicrosoftYaHei-30" x="175.927734"/>
      </g>
     </g>
    </g>
    <g id="ytick_4">
     <g id="line2d_12">
      <path d="M 52.135937 138.887875 
L 509.695938 138.887875 
" clip-path="url(#p121b37a105)" style="fill: none; stroke: #e7e7ec; stroke-linecap: square"/>
     </g>
     <g id="line2d_13">
      <g>
       <use xlink:href="#m0ef85e66af" x="52.135937" y="138.887875" style="stroke: #000000; stroke-width: 0.8"/>
      </g>
     </g>
     <g id="text_10">
      <!-- 3000 -->
      <g transform="translate(21.679687 142.88475) scale(0.1 -0.1)">
       <use xlink:href="#MicrosoftYaHei-33"/>
       <use xlink:href="#MicrosoftYaHei-30" x="58.642578"/>
       <use xlink:href="#MicrosoftYaHei-30" x="117.285156"/>
       <use xlink:href="#MicrosoftYaHei-30" x="175.927734"/>
      </g>
     </g>
    </g>
    <g id="ytick_5">
     <g id="line2d_14">
      <path d="M 52.135937 90.311875 
L 509.695938 90.311875 
" clip-path="url(#p121b37a105)" style="fill: none; stroke: #e7e7ec; stroke-linecap: square"/>
     </g>
     <g id="line2d_15">
      <g>
       <use xlink:href="#m0ef85e66af" x="52.135937" y="90.311875" style="stroke: #000000; stroke-width: 0.8"/>
      </g>
     </g>
     <g id="text_11">
      <!-- 4000 -->
      <g transform="translate(21.679687 94.30875) scale(0.1 -0.1)">
       <defs>
        <path id="MicrosoftYaHei-34" d="M 2906 4841 
L 2906 1644 
L 3631 1644 
L 3631 1138 
L 2906 1138 
L 2906 0 
L 2313 0 
L 2313 1138 
L 53 1138 
L 53 1616 
Q 656 2294 1265 3178 
Q 1875 4063 2272 4841 
L 2906 4841 
z
M 741 1644 
L 2313 1644 
L 2313 3950 
Q 1988 3366 1616 2817 
Q 1244 2269 741 1644 
z
" transform="scale(0.015625)"/>
       </defs>
       <use xlink:href="#MicrosoftYaHei-34"/>
       <use xlink:href="#MicrosoftYaHei-30" x="58.642578"/>
       <use xlink:href="#MicrosoftYaHei-30" x="117.285156"/>
       <use xlink:href="#MicrosoftYaHei-30" x="175.927734"/>
      </g>
     </g>
    </g>
    <g id="ytick_6">
     <g id="line2d_16">
      <path d="M 52.135937 41.735875 
L 509.695938 41.735875 
" clip-path="url(#p121b37a105)" style="fill: none; stroke: #e7e7ec; stroke-linecap: square"/>
     </g>
     <g id="line2d_17">
      <g>
       <use xlink:href="#m0ef85e66af" x="52.135937" y="41.735875" style="stroke: #000000; stroke-width: 0.8"/>
      </g>
     </g>
     <g id="text_12">
      <!-- 5000 -->
      <g transform="translate(21.679687 45.73275) scale(0.1 -0.1)">
       <use xlink:href="#MicrosoftYaHei-35"/>
       <use xlink:href="#MicrosoftYaHei-30" x="58.642578"/>
       <use xlink:href="#MicrosoftYaHei-30" x="117.285156"/>
       <use xlink:href="#MicrosoftYaHei-30" x="175.927734"/>
      </g>
     </g>
    </g>
    <g id="text_13">
     <!-- 人数 -->
     <g transform="translate(15.19375 167.103875) rotate(-90) scale(0.1 -0.1)">
      <use xlink:href="#MicrosoftYaHei-4eba"/>
      <use xlink:href="#MicrosoftYaHei-6570" x="100"/>
     </g>
    </g>
   </g>
   <g id="patch_3">
    <path d="M 72.934119 284.615875 
L 107.597756 284.615875 
L 107.597756 260.327875 
L 72.934119 260.327875 
z
" clip-path="url(#p121b37a105)" style="fill: #9aa0aa"/>
   </g>
   <g id="patch_4">
    <path d="M 159.59321 284.615875 
L 194.256847 284.615875 
L 194.256847 236.039875 
L 159.59321 236.039875 
z
" clip-path="url(#p121b37a105)" style="fill: #9aa0aa"/>
   </g>
   <g id="patch_5">
    <path d="M 246.252301 284.615875 
L 280.915937 284.615875 
L 280.915937 187.463875 
L 246.252301 187.463875 
z
" clip-path="url(#p121b37a105)" style="fill: #9aa0aa"/>
   </g>
   <g id="patch_6">
    <path d="M 332.911392 284.615875 
L 367.575028 284.615875 
L 367.575028 138.887875 
L 332.911392 138.887875 
z
" clip-path="url(#p121b37a105)" style="fill: #9aa0aa"/>
   </g>
   <g id="patch_7">
    <path d="M 419.570483 284.615875 
L 454.234119 284.615875 
L 454.234119 41.735875 
L 419.570483 41.735875 
z
" clip-path="url(#p121b37a105)" style="fill: #9aa0aa"/>
   </g>
   <g id="patch_8">
    <path d="M 107.597756 284.615875 
L 142.261392 284.615875 
L 142.261392 279.758275 
L 107.597756 279.758275 
z
" clip-path="url(#p121b37a105)" style="fill: #a4233a"/>
   </g>
   <g id="patch_9">
    <path d="M 194.256847 284.615875 
L 228.920483 284.615875 
L 228.920483 279.758275 
L 194.256847 279.758275 
z
" clip-path="url(#p121b37a105)" style="fill: #a4233a"/>
   </g>
   <g id="patch_10">
    <path d="M 280.915937 284.615875 
L 315.579574 284.615875 
L 315.579574 279.758275 
L 280.915937 279.758275 
z
" clip-path="url(#p121b37a105)" style="fill: #a4233a"/>
   </g>
   <g id="patch_11">
    <path d="M 367.575028 284.615875 
L 402.238665 284.615875 
L 402.238665 279.758275 
L 367.575028 279.758275 
z
" clip-path="url(#p121b37a105)" style="fill: #a4233a"/>
   </g>
   <g id="patch_12">
    <path d="M 454.234119 284.615875 
L 488.897756 284.615875 
L 488.897756 279.758275 
L 454.234119 279.758275 
z
" clip-path="url(#p121b37a105)" style="fill: #a4233a"/>
   </g>
   <g id="line2d_18">
    <path d="M 52.135937 279.758275 
L 509.695938 279.758275 
" clip-path="url(#p121b37a105)" style="fill: none; stroke-dasharray: 5.55,2.4; stroke-dashoffset: 0; stroke: #2e9e6b; stroke-width: 1.5"/>
   </g>
   <g id="patch_13">
    <path d="M 52.135937 284.615875 
L 52.135937 29.591875 
" style="fill: none; stroke: #c9ccd2; stroke-width: 0.8; stroke-linejoin: miter; stroke-linecap: square"/>
   </g>
   <g id="patch_14">
    <path d="M 52.135937 284.615875 
L 509.695937 284.615875 
" style="fill: none; stroke: #c9ccd2; stroke-width: 0.8; stroke-linejoin: miter; stroke-linecap: square"/>
   </g>
   <g id="text_14">
    <!-- 500 -->
    <g style="fill: #1d1d1f" transform="translate(82.349453 256.327875) scale(0.09 -0.09)">
     <use xlink:href="#MicrosoftYaHei-35"/>
     <use xlink:href="#MicrosoftYaHei-30" x="58.642578"/>
     <use xlink:href="#MicrosoftYaHei-30" x="117.285156"/>
    </g>
   </g>
   <g id="text_15">
    <!-- 100 -->
    <g style="fill: #a4233a" transform="translate(117.013089 275.758275) scale(0.09 -0.09)">
     <use xlink:href="#MicrosoftYaHei-31"/>
     <use xlink:href="#MicrosoftYaHei-30" x="58.642578"/>
     <use xlink:href="#MicrosoftYaHei-30" x="117.285156"/>
    </g>
   </g>
   <g id="text_16">
    <!-- 1000 -->
    <g style="fill: #1d1d1f" transform="translate(166.369716 232.039875) scale(0.09 -0.09)">
     <use xlink:href="#MicrosoftYaHei-31"/>
     <use xlink:href="#MicrosoftYaHei-30" x="58.642578"/>
     <use xlink:href="#MicrosoftYaHei-30" x="117.285156"/>
     <use xlink:href="#MicrosoftYaHei-30" x="175.927734"/>
    </g>
   </g>
   <g id="text_17">
    <!-- 100 -->
    <g style="fill: #a4233a" transform="translate(203.67218 275.758275) scale(0.09 -0.09)">
     <use xlink:href="#MicrosoftYaHei-31"/>
     <use xlink:href="#MicrosoftYaHei-30" x="58.642578"/>
     <use xlink:href="#MicrosoftYaHei-30" x="117.285156"/>
    </g>
   </g>
   <g id="text_18">
    <!-- 2000 -->
    <g style="fill: #1d1d1f" transform="translate(253.028807 183.463875) scale(0.09 -0.09)">
     <use xlink:href="#MicrosoftYaHei-32"/>
     <use xlink:href="#MicrosoftYaHei-30" x="58.642578"/>
     <use xlink:href="#MicrosoftYaHei-30" x="117.285156"/>
     <use xlink:href="#MicrosoftYaHei-30" x="175.927734"/>
    </g>
   </g>
   <g id="text_19">
    <!-- 100 -->
    <g style="fill: #a4233a" transform="translate(290.331271 275.758275) scale(0.09 -0.09)">
     <use xlink:href="#MicrosoftYaHei-31"/>
     <use xlink:href="#MicrosoftYaHei-30" x="58.642578"/>
     <use xlink:href="#MicrosoftYaHei-30" x="117.285156"/>
    </g>
   </g>
   <g id="text_20">
    <!-- 3000 -->
    <g style="fill: #1d1d1f" transform="translate(339.687898 134.887875) scale(0.09 -0.09)">
     <use xlink:href="#MicrosoftYaHei-33"/>
     <use xlink:href="#MicrosoftYaHei-30" x="58.642578"/>
     <use xlink:href="#MicrosoftYaHei-30" x="117.285156"/>
     <use xlink:href="#MicrosoftYaHei-30" x="175.927734"/>
    </g>
   </g>
   <g id="text_21">
    <!-- 100 -->
    <g style="fill: #a4233a" transform="translate(376.990362 275.758275) scale(0.09 -0.09)">
     <use xlink:href="#MicrosoftYaHei-31"/>
     <use xlink:href="#MicrosoftYaHei-30" x="58.642578"/>
     <use xlink:href="#MicrosoftYaHei-30" x="117.285156"/>
    </g>
   </g>
   <g id="text_22">
    <!-- 5000 -->
    <g style="fill: #1d1d1f" transform="translate(426.346989 37.735875) scale(0.09 -0.09)">
     <use xlink:href="#MicrosoftYaHei-35"/>
     <use xlink:href="#MicrosoftYaHei-30" x="58.642578"/>
     <use xlink:href="#MicrosoftYaHei-30" x="117.285156"/>
     <use xlink:href="#MicrosoftYaHei-30" x="175.927734"/>
    </g>
   </g>
   <g id="text_23">
    <!-- 100 -->
    <g style="fill: #a4233a" transform="translate(463.649453 275.758275) scale(0.09 -0.09)">
     <use xlink:href="#MicrosoftYaHei-31"/>
     <use xlink:href="#MicrosoftYaHei-30" x="58.642578"/>
     <use xlink:href="#MicrosoftYaHei-30" x="117.285156"/>
    </g>
   </g>
   <g id="text_24">
    <!-- 容量上限 = 100 -->
    <g style="fill: #2e9e6b" transform="translate(426.63554 278.300995) scale(0.1 -0.1)">
     <defs>
      <path id="MicrosoftYaHei-5bb9" d="M 3550 3147 
Q 3500 3091 3444 3022 
Q 4644 1872 6313 1447 
Q 6106 1134 6006 916 
Q 5594 1066 5225 1247 
L 5225 -859 
L 4725 -859 
L 4725 -578 
L 1669 -578 
L 1669 -859 
L 1169 -859 
L 1169 1191 
Q 763 972 338 797 
Q 225 1028 63 1241 
Q 2000 2059 3025 3228 
L 3550 3147 
z
M 363 4572 
L 3038 4572 
Q 2900 4822 2725 5109 
L 3206 5328 
Q 3438 4972 3644 4572 
L 6031 4572 
L 6031 3522 
L 5525 3522 
L 5525 4122 
L 863 4122 
L 863 3497 
L 363 3497 
L 363 4572 
z
M 4725 934 
L 1669 934 
L 1669 -128 
L 4725 -128 
L 4725 934 
z
M 3163 2684 
Q 2394 1928 1494 1384 
L 4950 1384 
Q 3869 1953 3163 2684 
z
M 2338 3847 
L 2638 3441 
Q 1488 2734 706 2359 
Q 594 2566 419 2791 
Q 1494 3259 2338 3847 
z
M 4006 3841 
Q 4944 3409 5938 2859 
L 5650 2416 
Q 4875 2891 3744 3453 
L 4006 3841 
z
" transform="scale(0.015625)"/>
      <path id="MicrosoftYaHei-91cf" d="M 113 -278 
L 2981 -278 
L 2981 78 
L 475 78 
L 475 403 
L 2981 403 
L 2981 759 
L 1494 759 
L 1494 597 
L 1069 597 
L 1069 2516 
L 5350 2516 
L 5350 597 
L 4925 597 
L 4925 759 
L 3419 759 
L 3419 403 
L 5931 403 
L 5931 78 
L 3419 78 
L 3419 -278 
L 6288 -278 
L 6288 -616 
L 113 -616 
L 113 -278 
z
M 1119 5072 
L 5306 5072 
L 5306 3284 
L 4881 3284 
L 4881 3453 
L 1544 3453 
L 1544 3284 
L 1119 3284 
L 1119 5072 
z
M 163 3153 
L 6263 3153 
L 6263 2816 
L 163 2816 
L 163 3153 
z
M 1544 3778 
L 4881 3778 
L 4881 4116 
L 1544 4116 
L 1544 3778 
z
M 4881 4747 
L 1544 4747 
L 1544 4416 
L 4881 4416 
L 4881 4747 
z
M 3419 1084 
L 4925 1084 
L 4925 1491 
L 3419 1491 
L 3419 1084 
z
M 1494 1084 
L 2981 1084 
L 2981 1491 
L 1494 1491 
L 1494 1084 
z
M 4925 2191 
L 3419 2191 
L 3419 1791 
L 4925 1791 
L 4925 2191 
z
M 1494 1791 
L 2981 1791 
L 2981 2191 
L 1494 2191 
L 1494 1791 
z
" transform="scale(0.015625)"/>
      <path id="MicrosoftYaHei-4e0a" d="M 163 47 
L 2613 47 
L 2613 5209 
L 3181 5209 
L 3181 3328 
L 5750 3328 
L 5750 2828 
L 3181 2828 
L 3181 47 
L 6244 47 
L 6244 -453 
L 163 -453 
L 163 47 
z
" transform="scale(0.015625)"/>
      <path id="MicrosoftYaHei-9650" d="M 2675 4984 
L 5638 4984 
L 5638 1872 
L 5175 1872 
L 5175 2041 
L 4119 2041 
Q 4313 1478 4650 1028 
Q 5213 1384 5838 1909 
L 6169 1516 
Q 5481 1034 4944 691 
Q 5488 141 6313 -191 
Q 6081 -416 5913 -647 
Q 4175 266 3675 2041 
L 3138 2041 
L 3138 -84 
Q 3556 103 4231 466 
Q 4238 178 4263 -28 
Q 3706 -297 3181 -609 
Q 3056 -678 2844 -872 
L 2488 -403 
Q 2675 -241 2675 9 
L 2675 4984 
z
M 2275 1603 
Q 2456 409 1681 266 
Q 1400 209 1050 253 
Q 1000 509 913 778 
Q 1244 697 1488 728 
Q 1913 809 1775 1622 
Q 1688 2122 1206 2747 
Q 1431 3428 1794 4566 
L 869 4566 
L 869 -891 
L 400 -891 
L 400 5003 
L 2294 5003 
L 2294 4566 
Q 1988 3684 1706 2828 
Q 2206 2147 2275 1603 
z
M 5175 2466 
L 5175 3309 
L 3138 3309 
L 3138 2466 
L 5175 2466 
z
M 5175 4559 
L 3138 4559 
L 3138 3728 
L 5175 3728 
L 5175 4559 
z
" transform="scale(0.015625)"/>
      <path id="MicrosoftYaHei-3d" d="M 3972 2497 
L 788 2497 
L 788 2969 
L 3972 2969 
L 3972 2497 
z
M 3972 1053 
L 788 1053 
L 788 1525 
L 3972 1525 
L 3972 1053 
z
" transform="scale(0.015625)"/>
     </defs>
     <use xlink:href="#MicrosoftYaHei-5bb9"/>
     <use xlink:href="#MicrosoftYaHei-91cf" x="100"/>
     <use xlink:href="#MicrosoftYaHei-4e0a" x="200"/>
     <use xlink:href="#MicrosoftYaHei-9650" x="300"/>
     <use xlink:href="#MicrosoftYaHei-20" x="400"/>
     <use xlink:href="#MicrosoftYaHei-3d" x="429.589844"/>
     <use xlink:href="#MicrosoftYaHei-20" x="503.759766"/>
     <use xlink:href="#MicrosoftYaHei-31" x="533.349609"/>
     <use xlink:href="#MicrosoftYaHei-30" x="591.992188"/>
     <use xlink:href="#MicrosoftYaHei-30" x="650.634766"/>
    </g>
   </g>
   <g id="text_25">
    <!-- 不超卖验证：无论多少人并发抢，成功落库恒为容量 100 -->
    <g style="fill: #1d1d1f" transform="translate(118.057422 17.591875) scale(0.13 -0.13)">
     <defs>
      <path id="MicrosoftYaHei-4e0d" d="M 225 4772 
L 6181 4772 
L 6181 4284 
L 3881 4284 
Q 3581 3766 3081 3053 
L 3444 3053 
L 3444 -866 
L 2906 -866 
L 2906 2859 
Q 1838 1541 388 609 
Q 231 834 38 1059 
Q 2006 2291 3213 4284 
L 225 4284 
L 225 4772 
z
M 4069 2859 
Q 5238 2147 6325 1409 
L 5969 916 
Q 4681 1872 3763 2434 
L 4069 2859 
z
" transform="scale(0.015625)"/>
      <path id="MicrosoftYaHei-8d85" d="M 106 -266 
Q 581 566 619 2241 
L 1081 2216 
Q 1059 1606 991 1091 
Q 1213 603 1581 306 
L 1581 2616 
L 138 2616 
L 138 3072 
L 1388 3072 
L 1388 3966 
L 356 3966 
L 356 4422 
L 1388 4422 
L 1388 5309 
L 1875 5309 
L 1875 4422 
L 2806 4422 
L 2806 3966 
L 1875 3966 
L 1875 3072 
L 2888 3072 
L 2888 2616 
L 2050 2616 
L 2050 1647 
L 2944 1647 
L 2944 1197 
L 2050 1197 
L 2050 28 
Q 2500 -159 3094 -166 
Q 4281 -184 6313 -141 
Q 6200 -422 6138 -634 
Q 4250 -641 2938 -616 
Q 1428 -584 884 472 
Q 706 -341 381 -853 
Q 256 -559 106 -266 
z
M 3275 2447 
L 5888 2447 
L 5888 209 
L 5425 209 
L 5425 478 
L 3738 478 
L 3738 172 
L 3275 172 
L 3275 2447 
z
M 2969 4616 
L 2969 5041 
L 5956 5041 
Q 5925 4184 5869 3603 
Q 5800 2884 5125 2866 
Q 4788 2859 4344 2884 
Q 4306 3116 4250 3384 
Q 4713 3309 5031 3316 
Q 5388 3316 5425 3716 
Q 5469 4072 5488 4616 
L 4303 4616 
Q 4250 3203 3250 2641 
Q 3131 2834 2944 3041 
Q 3813 3516 3831 4616 
L 2969 4616 
z
M 5425 2022 
L 3738 2022 
L 3738 903 
L 5425 903 
L 5425 2022 
z
" transform="scale(0.015625)"/>
      <path id="MicrosoftYaHei-5356" d="M 331 3547 
L 2931 3547 
L 2931 4209 
L 706 4209 
L 706 4659 
L 2931 4659 
L 2931 5291 
L 3425 5291 
L 3425 4659 
L 5731 4659 
L 5731 4209 
L 3425 4209 
L 3425 3547 
L 5994 3547 
L 5994 3066 
L 5513 2216 
Q 5300 2316 5069 2397 
L 5469 3097 
L 331 3097 
L 331 3547 
z
M 231 1209 
L 3238 1209 
Q 3488 1816 3513 2859 
L 4000 2859 
Q 3969 1859 3756 1209 
L 6169 1209 
L 6169 759 
L 3575 759 
Q 3544 697 3519 659 
Q 4744 216 6181 -403 
L 5913 -859 
Q 4719 -278 3256 322 
Q 2450 -459 369 -853 
Q 275 -634 113 -384 
Q 2400 28 2975 759 
L 231 759 
L 231 1209 
z
M 925 2222 
Q 1775 1972 2563 1691 
L 2413 1309 
Q 1531 1616 775 1834 
L 925 2222 
z
M 1294 2947 
Q 2125 2709 2894 2441 
L 2744 2041 
Q 1988 2322 1138 2572 
L 1294 2947 
z
" transform="scale(0.015625)"/>
      <path id="MicrosoftYaHei-9a8c" d="M 963 4116 
L 819 2397 
L 1450 2397 
L 1613 4503 
L 194 4503 
L 194 4928 
L 2088 4928 
L 1894 2397 
L 2288 2397 
Q 2244 1078 2206 228 
Q 2188 -722 1381 -722 
Q 1044 -722 588 -703 
Q 556 -472 506 -209 
Q 956 -266 1306 -266 
Q 1744 -266 1769 266 
Q 1806 953 1831 1972 
L 331 1972 
L 531 4116 
L 963 4116 
z
M 2338 -103 
L 4594 -103 
Q 5044 1009 5394 2222 
L 5869 2072 
Q 5500 953 5088 -103 
L 6188 -103 
L 6188 -534 
L 2338 -534 
L 2338 -103 
z
M 4606 5278 
L 4488 5078 
Q 5244 3734 6363 3122 
Q 6163 2872 6031 2684 
Q 4931 3497 4238 4641 
Q 3600 3509 2456 2609 
Q 2344 2772 2144 3003 
Q 3388 3866 4050 5278 
L 4606 5278 
z
M 2975 2978 
L 5550 2978 
L 5550 2547 
L 2975 2547 
L 2975 2978 
z
M 3731 2178 
L 4175 2297 
Q 4438 1359 4606 659 
L 4150 528 
Q 3969 1391 3731 2178 
z
M 2656 1897 
L 3094 2034 
Q 3400 1147 3606 453 
L 3144 297 
Q 2938 1097 2656 1897 
z
M 38 1034 
Q 763 1178 1631 1384 
Q 1625 1134 1638 941 
Q 925 791 131 572 
L 38 1034 
z
" transform="scale(0.015625)"/>
      <path id="MicrosoftYaHei-8bc1" d="M 1681 -34 
L 2550 -34 
L 2550 3422 
L 3031 3422 
L 3031 -34 
L 4025 -34 
L 4025 4534 
L 2025 4534 
L 2025 4997 
L 6200 4997 
L 6200 4534 
L 4525 4534 
L 4525 2653 
L 5975 2653 
L 5975 2191 
L 4525 2191 
L 4525 -34 
L 6300 -34 
L 6300 -497 
L 1681 -497 
L 1681 -34 
z
M 2050 1534 
Q 2075 1316 2169 991 
Q 1413 241 1025 -203 
L 669 203 
Q 856 466 856 828 
L 856 2784 
L 100 2784 
L 100 3234 
L 1338 3234 
L 1338 797 
Q 1625 1072 2050 1534 
z
M 706 5222 
Q 1438 4478 1731 4147 
L 1294 3778 
Q 900 4291 325 4891 
L 706 5222 
z
" transform="scale(0.015625)"/>
      <path id="MicrosoftYaHei-ff1a" d="M 1606 3531 
Q 1772 3531 1890 3415 
Q 2009 3300 2009 3138 
Q 2009 2975 1893 2858 
Q 1778 2741 1606 2741 
Q 1434 2741 1318 2858 
Q 1203 2975 1203 3138 
Q 1203 3300 1322 3415 
Q 1441 3531 1606 3531 
z
M 1606 716 
Q 1772 716 1890 600 
Q 2009 484 2009 319 
Q 2009 150 1890 36 
Q 1772 -78 1606 -78 
Q 1441 -78 1322 36 
Q 1203 150 1203 319 
Q 1203 484 1322 600 
Q 1441 716 1606 716 
z
" transform="scale(0.015625)"/>
      <path id="MicrosoftYaHei-65e0" d="M 200 2878 
L 2650 2878 
Q 2781 3528 2806 4328 
L 675 4328 
L 675 4816 
L 5750 4816 
L 5750 4328 
L 3331 4328 
Q 3288 3528 3169 2878 
L 6225 2878 
L 6225 2391 
L 3063 2391 
Q 2588 278 450 -884 
Q 313 -672 113 -441 
Q 1975 491 2538 2391 
L 200 2391 
L 200 2878 
z
M 3400 1941 
L 3906 1941 
L 3906 297 
Q 3906 -197 4363 -197 
L 5219 -197 
Q 5644 -197 5700 172 
Q 5750 528 5775 1097 
Q 6013 1009 6300 916 
Q 6238 297 6188 -16 
Q 6106 -641 5300 -641 
L 4219 -641 
Q 3400 -641 3400 222 
L 3400 1941 
z
" transform="scale(0.015625)"/>
      <path id="MicrosoftYaHei-8bba" d="M 2725 2866 
L 3225 2866 
L 3225 1553 
Q 4425 2072 5188 2753 
L 5538 2341 
Q 4569 1578 3225 1034 
L 3225 216 
Q 3225 -197 3600 -197 
L 4844 -197 
Q 5294 -197 5363 203 
Q 5444 659 5475 1191 
Q 5675 1103 5981 1009 
Q 5925 497 5844 53 
Q 5719 -672 4869 -672 
L 3450 -672 
Q 2725 -672 2725 122 
L 2725 2866 
z
M 4413 5253 
L 4331 5109 
Q 5075 3791 6344 3166 
Q 6163 2947 5981 2697 
Q 4744 3516 4056 4666 
Q 3388 3559 2106 2678 
Q 1925 2941 1763 3109 
Q 3181 3947 3831 5253 
L 4413 5253 
z
M 2206 691 
Q 2225 366 2250 153 
Q 1550 -316 994 -747 
L 700 -328 
Q 913 -153 913 209 
L 913 2678 
L 100 2678 
L 100 3141 
L 1400 3141 
L 1400 122 
Q 1769 372 2206 691 
z
M 856 5197 
Q 1538 4497 1844 4159 
L 1406 3791 
Q 1013 4309 475 4866 
L 856 5197 
z
" transform="scale(0.015625)"/>
      <path id="MicrosoftYaHei-591a" d="M 3719 2803 
L 4338 2803 
Q 4050 2522 3744 2272 
L 6019 2272 
L 6019 1816 
Q 4006 -366 650 -891 
Q 538 -666 369 -422 
Q 1894 -203 3100 322 
Q 2919 559 2581 903 
L 2956 1178 
Q 3275 847 3538 522 
Q 4588 1059 5344 1834 
L 3200 1834 
Q 2100 1009 881 484 
Q 769 666 581 909 
Q 2319 1609 3719 2803 
z
M 2775 5316 
L 3406 5316 
Q 3088 4972 2756 4672 
L 5700 4672 
L 5700 4247 
Q 3550 2516 481 1666 
Q 350 1916 194 2103 
Q 1481 2441 2506 2872 
Q 2281 3122 1913 3484 
L 2263 3759 
Q 2631 3403 2944 3066 
Q 4088 3584 4950 4234 
L 2256 4234 
Q 1606 3678 713 3172 
Q 575 3359 369 3566 
Q 1800 4328 2775 5316 
z
" transform="scale(0.015625)"/>
      <path id="MicrosoftYaHei-5c11" d="M 1631 4428 
L 2144 4228 
Q 1463 2722 669 1484 
Q 475 1609 200 1766 
Q 994 2916 1631 4428 
z
M 4138 4266 
L 4531 4566 
Q 5531 3491 6331 2528 
L 5881 2166 
Q 5006 3278 4138 4266 
z
M 2925 5284 
L 3463 5284 
L 3463 1359 
L 2925 1359 
L 2925 5284 
z
M 4988 2416 
L 5444 2116 
Q 3631 -216 413 -859 
Q 275 -609 100 -359 
Q 3350 272 4988 2416 
z
" transform="scale(0.015625)"/>
      <path id="MicrosoftYaHei-ff0c" d="M 1931 775 
L 1403 -891 
L 966 -891 
L 1350 775 
L 1931 775 
z
" transform="scale(0.015625)"/>
      <path id="MicrosoftYaHei-6210" d="M 2750 -347 
Q 3472 138 4038 781 
Q 3675 1703 3609 3759 
L 1250 3759 
L 1250 2809 
L 3050 2809 
Q 3013 1616 2950 803 
Q 2875 -59 2113 -59 
Q 1856 -59 1431 -34 
Q 1394 197 1331 484 
Q 1769 422 2063 422 
Q 2425 422 2469 922 
Q 2519 1497 2544 2347 
L 1247 2347 
Q 1197 175 369 -866 
Q 213 -653 44 -434 
Q 750 503 750 2528 
L 750 4222 
L 3591 4222 
Q 3569 4716 3550 5291 
L 4069 5291 
Q 4066 4850 4084 4222 
L 6238 4222 
L 6238 3759 
L 4100 3759 
Q 4163 2078 4409 1247 
Q 5016 2069 5406 3109 
L 5900 2903 
Q 5363 1631 4609 691 
Q 5069 -244 5506 -244 
Q 5666 -244 5750 47 
Q 5838 503 5888 984 
Q 6156 878 6363 809 
Q 6269 141 6156 -284 
Q 6038 -741 5631 -778 
Q 5250 -803 4900 -522 
Q 4522 -231 4256 278 
Q 3728 -291 3106 -722 
Q 2944 -534 2750 -347 
z
M 4544 4984 
L 4806 5309 
Q 5331 5009 5788 4684 
L 5488 4309 
Q 5038 4666 4544 4984 
z
" transform="scale(0.015625)"/>
      <path id="MicrosoftYaHei-529f" d="M 2500 3978 
L 3475 3978 
Q 3488 4538 3494 5278 
L 4000 5278 
Q 3991 4531 3975 3978 
L 5969 3978 
Q 5913 1791 5844 291 
Q 5775 -691 4956 -709 
Q 4413 -716 3756 -684 
Q 3713 -397 3656 -122 
Q 4306 -197 4844 -191 
Q 5313 -178 5344 378 
Q 5425 1847 5450 3497 
L 3963 3497 
Q 3950 3003 3931 2734 
Q 3813 266 1938 -847 
Q 1800 -653 1575 -422 
Q 3325 553 3431 2772 
Q 3450 3063 3463 3497 
L 2500 3497 
L 2500 3978 
z
M 81 822 
Q 619 941 1119 1056 
L 1119 4134 
L 169 4134 
L 169 4622 
L 2675 4622 
L 2675 4134 
L 1625 4134 
L 1625 1178 
Q 2166 1313 2656 1447 
Q 2669 1122 2700 947 
Q 1594 672 225 291 
L 81 822 
z
" transform="scale(0.015625)"/>
      <path id="MicrosoftYaHei-843d" d="M 1663 2447 
Q 2500 3172 2919 4053 
L 3388 3953 
Q 3278 3744 3156 3547 
L 5594 3547 
L 5594 3147 
Q 5178 2559 4447 2122 
Q 5256 1813 6344 1753 
Q 6219 1491 6138 1272 
Q 4850 1447 3969 1866 
Q 3063 1438 1781 1191 
Q 1694 1384 1569 1616 
Q 2675 1772 3513 2116 
Q 3009 2434 2681 2856 
Q 2369 2456 2000 2109 
Q 1856 2272 1663 2447 
z
M 2288 1203 
L 5519 1203 
L 5519 -822 
L 5056 -822 
L 5056 -491 
L 2750 -491 
L 2750 -822 
L 2288 -822 
L 2288 1203 
z
M 138 4691 
L 1863 4691 
L 1863 5328 
L 2338 5328 
L 2338 4691 
L 4075 4691 
L 4075 5328 
L 4550 5328 
L 4550 4691 
L 6263 4691 
L 6263 4266 
L 4550 4266 
L 4550 3809 
L 4075 3809 
L 4075 4266 
L 2338 4266 
L 2338 3784 
L 1863 3784 
L 1863 4266 
L 138 4266 
L 138 4691 
z
M 5056 791 
L 2750 791 
L 2750 -78 
L 5056 -78 
L 5056 791 
z
M 181 -622 
Q 619 278 1031 1478 
Q 1244 1359 1500 1247 
Q 1119 322 700 -834 
L 181 -622 
z
M 5069 3147 
L 2972 3147 
Q 3381 2656 3981 2334 
Q 4622 2675 5069 3147 
z
M 44 2459 
L 325 2828 
Q 850 2522 1356 2172 
Q 1181 1953 1038 1759 
Q 575 2122 44 2459 
z
M 475 3641 
L 756 3991 
Q 1350 3616 1738 3316 
Q 1569 3109 1438 2928 
Q 956 3316 475 3641 
z
" transform="scale(0.015625)"/>
      <path id="MicrosoftYaHei-5e93" d="M 1338 778 
L 3706 778 
L 3706 1441 
L 1800 1441 
L 1800 1897 
Q 2125 2369 2409 2922 
L 1500 2922 
L 1500 3372 
L 2628 3372 
Q 2784 3706 2925 4066 
L 3438 3928 
Q 3309 3641 3178 3372 
L 5913 3372 
L 5913 2922 
L 2953 2922 
Q 2666 2366 2369 1891 
L 3706 1891 
L 3706 2684 
L 4206 2684 
L 4206 1891 
L 5919 1891 
L 5919 1441 
L 4206 1441 
L 4206 778 
L 6225 778 
L 6225 328 
L 4206 328 
L 4206 -828 
L 3706 -828 
L 3706 328 
L 1338 328 
L 1338 778 
z
M 2981 5122 
L 3363 5403 
Q 3663 5116 3919 4778 
L 3653 4584 
L 6238 4584 
L 6238 4134 
L 1206 4134 
L 1206 2353 
Q 1213 203 388 -878 
Q 231 -678 31 -453 
Q 713 441 706 2266 
L 706 4584 
L 3416 4584 
Q 3213 4856 2981 5122 
z
" transform="scale(0.015625)"/>
      <path id="MicrosoftYaHei-6052" d="M 2538 3747 
L 5788 3747 
L 5788 384 
L 5306 384 
L 5306 672 
L 3019 672 
L 3019 384 
L 2538 384 
L 2538 3747 
z
M 3019 1097 
L 5306 1097 
L 5306 2016 
L 3019 2016 
L 3019 1097 
z
M 5306 3322 
L 3019 3322 
L 3019 2441 
L 5306 2441 
L 5306 3322 
z
M 1938 -153 
L 6313 -153 
L 6313 -578 
L 1938 -578 
L 1938 -153 
z
M 2150 4909 
L 6156 4909 
L 6156 4484 
L 2150 4484 
L 2150 4909 
z
M 381 3816 
L 819 3753 
Q 700 2903 531 2153 
Q 344 2203 88 2253 
Q 263 2903 381 3816 
z
M 1000 5259 
L 1475 5259 
L 1475 3941 
L 1719 4103 
Q 2106 3659 2413 3228 
L 2031 2959 
Q 1775 3378 1475 3747 
L 1475 -847 
L 1000 -847 
L 1000 5259 
z
" transform="scale(0.015625)"/>
      <path id="MicrosoftYaHei-4e3a" d="M 356 3684 
L 2703 3684 
Q 2794 4450 2794 5341 
L 3331 5341 
Q 3331 4413 3244 3684 
L 5900 3684 
Q 5863 1753 5788 497 
Q 5725 -672 4550 -672 
Q 4063 -672 3394 -641 
Q 3369 -397 3300 -59 
Q 3888 -141 4456 -141 
Q 5206 -141 5244 597 
Q 5331 1822 5356 3197 
L 3175 3197 
Q 2716 441 606 -903 
Q 431 -684 225 -441 
Q 2169 706 2628 3197 
L 356 3197 
L 356 3684 
z
M 3325 2072 
L 3669 2378 
Q 4269 1822 4756 1284 
L 4369 934 
Q 3888 1503 3325 2072 
z
M 800 4922 
L 1138 5234 
Q 1656 4784 2138 4309 
L 1756 3953 
Q 1294 4459 800 4922 
z
" transform="scale(0.015625)"/>
     </defs>
     <use xlink:href="#MicrosoftYaHei-4e0d"/>
     <use xlink:href="#MicrosoftYaHei-8d85" x="100"/>
     <use xlink:href="#MicrosoftYaHei-5356" x="200"/>
     <use xlink:href="#MicrosoftYaHei-9a8c" x="300"/>
     <use xlink:href="#MicrosoftYaHei-8bc1" x="400"/>
     <use xlink:href="#MicrosoftYaHei-ff1a" x="500"/>
     <use xlink:href="#MicrosoftYaHei-65e0" x="600"/>
     <use xlink:href="#MicrosoftYaHei-8bba" x="700"/>
     <use xlink:href="#MicrosoftYaHei-591a" x="800"/>
     <use xlink:href="#MicrosoftYaHei-5c11" x="900"/>
     <use xlink:href="#MicrosoftYaHei-4eba" x="1000"/>
     <use xlink:href="#MicrosoftYaHei-5e76" x="1100"/>
     <use xlink:href="#MicrosoftYaHei-53d1" x="1200"/>
     <use xlink:href="#MicrosoftYaHei-62a2" x="1300"/>
     <use xlink:href="#MicrosoftYaHei-ff0c" x="1400"/>
     <use xlink:href="#MicrosoftYaHei-6210" x="1500"/>
     <use xlink:href="#MicrosoftYaHei-529f" x="1600"/>
     <use xlink:href="#MicrosoftYaHei-843d" x="1700"/>
     <use xlink:href="#MicrosoftYaHei-5e93" x="1800"/>
     <use xlink:href="#MicrosoftYaHei-6052" x="1900"/>
     <use xlink:href="#MicrosoftYaHei-4e3a" x="2000"/>
     <use xlink:href="#MicrosoftYaHei-5bb9" x="2100"/>
     <use xlink:href="#MicrosoftYaHei-91cf" x="2200"/>
     <use xlink:href="#MicrosoftYaHei-20" x="2300"/>
     <use xlink:href="#MicrosoftYaHei-31" x="2329.589844"/>
     <use xlink:href="#MicrosoftYaHei-30" x="2388.232422"/>
     <use xlink:href="#MicrosoftYaHei-30" x="2446.875"/>
    </g>
   </g>
   <g id="legend_1">
    <g id="patch_15">
     <path d="M 61.135937 46.585625 
L 81.135937 46.585625 
L 81.135937 39.585625 
L 61.135937 39.585625 
z
" style="fill: #9aa0aa"/>
    </g>
    <g id="text_26">
     <!-- 发起抢课请求 -->
     <g transform="translate(89.135937 46.585625) scale(0.1 -0.1)">
      <defs>
       <path id="MicrosoftYaHei-8d77" d="M 106 -266 
Q 581 566 619 2241 
L 1081 2216 
Q 1059 1606 991 1091 
Q 1225 588 1613 288 
L 1613 2616 
L 138 2616 
L 138 3072 
L 1419 3072 
L 1419 3966 
L 356 3966 
L 356 4422 
L 1419 4422 
L 1419 5309 
L 1906 5309 
L 1906 4422 
L 2956 4422 
L 2956 3966 
L 1906 3966 
L 1906 3072 
L 3081 3072 
L 3081 2616 
L 2081 2616 
L 2081 1647 
L 3031 1647 
L 3031 1197 
L 2081 1197 
L 2081 16 
Q 2516 -159 3081 -166 
Q 4613 -178 6313 -141 
Q 6200 -422 6138 -634 
Q 4169 -641 2950 -616 
Q 1438 -588 884 478 
Q 709 -341 381 -853 
Q 256 -559 106 -266 
z
M 3850 1347 
Q 3850 1009 4188 1009 
L 5263 1009 
Q 5613 1009 5656 1316 
Q 5694 1597 5725 2153 
Q 5919 2066 6200 1972 
Q 6144 1366 6088 1084 
Q 5994 559 5325 559 
L 4069 559 
Q 3375 559 3375 1272 
L 3375 3303 
L 5325 3303 
L 5325 4491 
L 3256 4491 
L 3256 4941 
L 5800 4941 
L 5800 2641 
L 5325 2641 
L 5325 2853 
L 3850 2853 
L 3850 1347 
z
" transform="scale(0.015625)"/>
      </defs>
      <use xlink:href="#MicrosoftYaHei-53d1"/>
      <use xlink:href="#MicrosoftYaHei-8d77" x="100"/>
      <use xlink:href="#MicrosoftYaHei-62a2" x="200"/>
      <use xlink:href="#MicrosoftYaHei-8bfe" x="300"/>
      <use xlink:href="#MicrosoftYaHei-8bf7" x="400"/>
      <use xlink:href="#MicrosoftYaHei-6c42" x="500"/>
     </g>
    </g>
    <g id="patch_16">
     <path d="M 61.135937 62.065312 
L 81.135937 62.065312 
L 81.135937 55.065312 
L 61.135937 55.065312 
z
" style="fill: #a4233a"/>
    </g>
    <g id="text_27">
     <!-- 成功落库 -->
     <g transform="translate(89.135937 62.065312) scale(0.1 -0.1)">
      <use xlink:href="#MicrosoftYaHei-6210"/>
      <use xlink:href="#MicrosoftYaHei-529f" x="100"/>
      <use xlink:href="#MicrosoftYaHei-843d" x="200"/>
      <use xlink:href="#MicrosoftYaHei-5e93" x="300"/>
     </g>
    </g>
   </g>
  </g>
 </g>
 <defs>
  <clipPath id="p121b37a105">
   <rect x="52.135937" y="29.591875" width="457.56" height="255.024"/>
  </clipPath>
 </defs>
</svg>
