<?xml version="1.0" encoding="utf-8" standalone="no"?>
<!DOCTYPE svg PUBLIC "-//W3C//DTD SVG 1.1//EN"
  "http://www.w3.org/Graphics/SVG/1.1/DTD/svg11.dtd">
<svg xmlns:xlink="http://www.w3.org/1999/xlink" width="617.735937pt" height="345.350125pt" viewBox="0 0 617.735937 345.350125" xmlns="http://www.w3.org/2000/svg" version="1.1">
 <metadata>
  <rdf:RDF xmlns:dc="http://purl.org/dc/elements/1.1/" xmlns:cc="http://creativecommons.org/ns#" xmlns:rdf="http://www.w3.org/1999/02/22-rdf-syntax-ns#">
   <cc:Work>
    <dc:type rdf:resource="http://purl.org/dc/dcmitype/StillImage"/>
    <dc:date>2026-06-09T20:14:42.636470</dc:date>
    <dc:format>image/svg+xml</dc:format>
    <dc:creator>
     <cc:Agent>
      <dc:title>Matplotlib v3.7.0, https://matplotlib.org/</dc:title>
     </cc:Agent>
    </dc:creator>
   </cc:Work>
  </rdf:RDF>
 </metadata>
 <defs>
  <style type="text/css">*{stroke-linejoin: round; stroke-linecap: butt}</style>
 </defs>
 <g id="figure_1">
  <g id="patch_1">
   <path d="M 0 345.350125 
L 617.735937 345.350125 
L 617.735937 0 
L 0 0 
z
" style="fill: #ffffff"/>
  </g>
  <g id="axes_1">
   <g id="patch_2">
    <path d="M 52.535938 308.592 
L 306.172301 308.592 
L 306.172301 53.568 
L 52.535938 53.568 
z
" style="fill: #ffffff"/>
   </g>
   <g id="matplotlib.axis_1">
    <g id="xtick_1">
     <g id="line2d_1">
      <defs>
       <path id="mbb32b8928a" d="M 0 0 
L 0 3.5 
" style="stroke: #000000; stroke-width: 0.8"/>
      </defs>
      <g>
       <use xlink:href="#mbb32b8928a" x="104.973954" y="308.592" style="stroke: #000000; stroke-width: 0.8"/>
      </g>
     </g>
     <g id="text_1">
      <!-- 异步 -->
      <g transform="translate(94.973954 323.58575) scale(0.1 -0.1)">
       <defs>
        <path id="MicrosoftYaHei-5f02" d="M 1731 2547 
L 5050 2547 
Q 5531 2547 5619 2878 
Q 5694 3141 5756 3572 
Q 5988 3472 6250 3378 
Q 6131 2866 6075 2684 
Q 5913 2109 5163 2109 
L 1619 2109 
Q 819 2109 819 2922 
L 819 5016 
L 5338 5016 
L 5338 3116 
L 4856 3116 
L 4856 3328 
L 1300 3328 
L 1300 2972 
Q 1300 2547 1731 2547 
z
M 4256 1922 
L 4750 1922 
L 4750 1178 
L 6250 1178 
L 6250 741 
L 4750 741 
L 4750 -841 
L 4256 -841 
L 4256 741 
L 2125 741 
Q 2050 -322 663 -866 
Q 513 -672 319 -441 
Q 1538 -22 1622 741 
L 144 741 
L 144 1178 
L 1678 1178 
Q 1703 1500 1700 1928 
L 2194 1928 
Q 2194 1509 2172 1178 
L 4256 1178 
L 4256 1922 
z
M 1300 4584 
L 1300 3759 
L 4856 3759 
L 4856 4584 
L 1300 4584 
z
" transform="scale(0.015625)"/>
        <path id="MicrosoftYaHei-6b65" d="M 188 2997 
L 1250 2997 
L 1250 4759 
L 1750 4759 
L 1750 2997 
L 3088 2997 
L 3088 5328 
L 3588 5328 
L 3588 4416 
L 5744 4416 
L 5744 3966 
L 3588 3966 
L 3588 2997 
L 6225 2997 
L 6225 2534 
L 188 2534 
L 188 2997 
z
M 188 -441 
Q 3744 -9 5400 1872 
L 5794 1484 
Q 4013 -453 375 -891 
Q 306 -691 188 -441 
z
M 1794 2147 
L 2194 1803 
Q 1369 947 613 322 
Q 469 497 275 691 
Q 1044 1291 1794 2147 
z
M 3038 2378 
L 3538 2378 
L 3538 528 
L 3038 528 
L 3038 2378 
z
" transform="scale(0.015625)"/>
       </defs>
       <use xlink:href="#MicrosoftYaHei-5f02"/>
       <use xlink:href="#MicrosoftYaHei-6b65" x="100"/>
      </g>
      <!-- (Kafka) -->
      <g transform="translate(88.475517 335.664187) scale(0.1 -0.1)">
       <defs>
        <path id="MicrosoftYaHei-28" d="M 1531 -1100 
Q 478 100 478 1847 
Q 478 3594 1531 4841 
L 2072 4841 
Q 1016 3544 1016 1853 
Q 1016 166 2066 -1100 
L 1531 -1100 
z
" transform="scale(0.015625)"/>
        <path id="MicrosoftYaHei-4b" d="M 4069 0 
L 3213 0 
L 1394 2200 
Q 1300 2316 1266 2381 
L 1250 2381 
L 1250 0 
L 625 0 
L 625 4841 
L 1250 4841 
L 1250 2563 
L 1266 2563 
Q 1319 2647 1394 2741 
L 3150 4841 
L 3922 4841 
L 1891 2519 
L 4069 0 
z
" transform="scale(0.015625)"/>
        <path id="MicrosoftYaHei-61" d="M 628 3216 
Q 1144 3538 1819 3538 
Q 3069 3538 3069 2225 
L 3069 0 
L 2463 0 
L 2463 534 
L 2447 534 
Q 2088 -81 1388 -81 
Q 884 -81 587 191 
Q 291 463 291 925 
Q 291 1894 1438 2053 
L 2463 2197 
Q 2463 3044 1763 3044 
Q 1141 3044 628 2625 
L 628 3216 
z
M 1653 1625 
Q 1228 1569 1067 1412 
Q 906 1256 906 975 
Q 906 728 1081 572 
Q 1256 416 1544 416 
Q 1944 416 2203 697 
Q 2463 978 2463 1403 
L 2463 1734 
L 1653 1625 
z
" transform="scale(0.015625)"/>
        <path id="MicrosoftYaHei-66" d="M 2319 4594 
Q 2147 4684 1947 4684 
Q 1372 4684 1372 3972 
L 1372 3456 
L 2181 3456 
L 2181 2950 
L 1372 2950 
L 1372 0 
L 766 0 
L 766 2950 
L 175 2950 
L 175 3456 
L 766 3456 
L 766 4000 
Q 766 4556 1086 4873 
Q 1406 5191 1900 5191 
Q 2163 5191 2319 5131 
L 2319 4594 
z
" transform="scale(0.015625)"/>
        <path id="MicrosoftYaHei-6b" d="M 3484 0 
L 2650 0 
L 1172 1666 
L 1159 1666 
L 1159 0 
L 547 0 
L 547 5116 
L 1159 5116 
L 1159 1872 
L 1172 1872 
L 2575 3456 
L 3363 3456 
L 1800 1794 
L 3484 0 
z
" transform="scale(0.015625)"/>
        <path id="MicrosoftYaHei-29" d="M 78 -1100 
Q 1131 163 1131 1853 
Q 1131 3547 72 4841 
L 616 4841 
Q 1672 3603 1672 1847 
Q 1672 91 616 -1100 
L 78 -1100 
z
" transform="scale(0.015625)"/>
       </defs>
       <use xlink:href="#MicrosoftYaHei-28"/>
       <use xlink:href="#MicrosoftYaHei-4b" x="33.398438"/>
       <use xlink:href="#MicrosoftYaHei-61" x="96.875"/>
       <use xlink:href="#MicrosoftYaHei-66" x="152.148438"/>
       <use xlink:href="#MicrosoftYaHei-6b" x="186.816406"/>
       <use xlink:href="#MicrosoftYaHei-61" x="241.259766"/>
       <use xlink:href="#MicrosoftYaHei-29" x="296.533203"/>
      </g>
     </g>
    </g>
    <g id="xtick_2">
     <g id="line2d_2">
      <g>
       <use xlink:href="#mbb32b8928a" x="253.734285" y="308.592" style="stroke: #000000; stroke-width: 0.8"/>
      </g>
     </g>
     <g id="text_2">
      <!-- 同步 -->
      <g transform="translate(243.734285 323.58575) scale(0.1 -0.1)">
       <defs>
        <path id="MicrosoftYaHei-540c" d="M 1013 -772 
L 531 -772 
L 531 4959 
L 5856 4959 
L 5856 -47 
Q 5856 -741 5125 -741 
Q 4669 -741 4088 -716 
Q 4056 -497 4000 -216 
Q 4619 -272 5025 -272 
Q 5375 -272 5375 78 
L 5375 4497 
L 1013 4497 
L 1013 -772 
z
M 1875 2566 
L 4506 2566 
L 4506 597 
L 2338 597 
L 2338 272 
L 1875 272 
L 1875 2566 
z
M 4044 2116 
L 2338 2116 
L 2338 1047 
L 4044 1047 
L 4044 2116 
z
M 1363 3734 
L 5025 3734 
L 5025 3284 
L 1363 3284 
L 1363 3734 
z
" transform="scale(0.015625)"/>
       </defs>
       <use xlink:href="#MicrosoftYaHei-540c"/>
       <use xlink:href="#MicrosoftYaHei-6b65" x="100"/>
      </g>
      <!-- (写库) -->
      <g transform="translate(240.39366 335.664187) scale(0.1 -0.1)">
       <defs>
        <path id="MicrosoftYaHei-5199" d="M 1125 1853 
L 1125 2303 
L 1550 4303 
L 2075 4303 
L 1922 3559 
L 5588 3559 
L 5588 3097 
L 1828 3097 
L 1669 2322 
L 5750 2322 
Q 5688 1016 5606 172 
Q 5500 -722 4550 -728 
Q 3956 -728 3194 -697 
Q 3163 -447 3106 -153 
Q 3781 -228 4456 -228 
Q 5019 -228 5100 272 
Q 5163 872 5206 1853 
L 1125 1853 
z
M 369 4959 
L 6038 4959 
L 6038 3784 
L 5525 3784 
L 5525 4491 
L 881 4491 
L 881 3784 
L 369 3784 
L 369 4959 
z
M 113 1072 
L 4725 1072 
L 4725 609 
L 113 609 
L 113 1072 
z
" transform="scale(0.015625)"/>
        <path id="MicrosoftYaHei-5e93" d="M 1338 778 
L 3706 778 
L 3706 1441 
L 1800 1441 
L 1800 1897 
Q 2125 2369 2409 2922 
L 1500 2922 
L 1500 3372 
L 2628 3372 
Q 2784 3706 2925 4066 
L 3438 3928 
Q 3309 3641 3178 3372 
L 5913 3372 
L 5913 2922 
L 2953 2922 
Q 2666 2366 2369 1891 
L 3706 1891 
L 3706 2684 
L 4206 2684 
L 4206 1891 
L 5919 1891 
L 5919 1441 
L 4206 1441 
L 4206 778 
L 6225 778 
L 6225 328 
L 4206 328 
L 4206 -828 
L 3706 -828 
L 3706 328 
L 1338 328 
L 1338 778 
z
M 2981 5122 
L 3363 5403 
Q 3663 5116 3919 4778 
L 3653 4584 
L 6238 4584 
L 6238 4134 
L 1206 4134 
L 1206 2353 
Q 1213 203 388 -878 
Q 231 -678 31 -453 
Q 713 441 706 2266 
L 706 4584 
L 3416 4584 
Q 3213 4856 2981 5122 
z
" transform="scale(0.015625)"/>
       </defs>
       <use xlink:href="#MicrosoftYaHei-28"/>
       <use xlink:href="#MicrosoftYaHei-5199" x="33.398438"/>
       <use xlink:href="#MicrosoftYaHei-5e93" x="133.398438"/>
       <use xlink:href="#MicrosoftYaHei-29" x="233.398438"/>
      </g>
     </g>
    </g>
   </g>
   <g id="matplotlib.axis_2">
    <g id="ytick_1">
     <g id="line2d_3">
      <path d="M 52.535938 308.592 
L 306.172301 308.592 
" clip-path="url(#pa61dc4c320)" style="fill: none; stroke: #e7e7ec; stroke-linecap: square"/>
     </g>
     <g id="line2d_4">
      <defs>
       <path id="m1a18082558" d="M 0 0 
L -3.5 0 
" style="stroke: #000000; stroke-width: 0.8"/>
      </defs>
      <g>
       <use xlink:href="#m1a18082558" x="52.535938" y="308.592" style="stroke: #000000; stroke-width: 0.8"/>
      </g>
     </g>
     <g id="text_3">
      <!-- 0 -->
      <g transform="translate(39.671875 312.588875) scale(0.1 -0.1)">
       <defs>
        <path id="MicrosoftYaHei-30" d="M 284 2325 
Q 284 3606 709 4264 
Q 1134 4922 1941 4922 
Q 3478 4922 3478 2441 
Q 3478 1216 3045 567 
Q 2613 -81 1831 -81 
Q 1094 -81 689 534 
Q 284 1150 284 2325 
z
M 909 2353 
Q 909 425 1888 425 
Q 2850 425 2850 2384 
Q 2850 4413 1906 4413 
Q 909 4413 909 2353 
z
" transform="scale(0.015625)"/>
       </defs>
       <use xlink:href="#MicrosoftYaHei-30"/>
      </g>
     </g>
    </g>
    <g id="ytick_2">
     <g id="line2d_5">
      <path d="M 52.535938 262.504713 
L 306.172301 262.504713 
" clip-path="url(#pa61dc4c320)" style="fill: none; stroke: #e7e7ec; stroke-linecap: square"/>
     </g>
     <g id="line2d_6">
      <g>
       <use xlink:href="#m1a18082558" x="52.535938" y="262.504713" style="stroke: #000000; stroke-width: 0.8"/>
      </g>
     </g>
     <g id="text_4">
      <!-- 200 -->
      <g transform="translate(27.94375 266.501588) scale(0.1 -0.1)">
       <defs>
        <path id="MicrosoftYaHei-32" d="M 2666 3572 
Q 2666 3963 2419 4186 
Q 2172 4409 1747 4409 
Q 1447 4409 1140 4256 
Q 834 4103 569 3819 
L 569 4413 
Q 806 4659 1107 4790 
Q 1409 4922 1816 4922 
Q 2472 4922 2872 4570 
Q 3272 4219 3272 3619 
Q 3272 3084 3026 2693 
Q 2781 2303 2188 1894 
Q 1581 1475 1376 1294 
Q 1172 1113 1090 947 
Q 1009 781 1009 544 
L 3416 544 
L 3416 0 
L 372 0 
L 372 241 
Q 372 659 486 951 
Q 600 1244 862 1520 
Q 1125 1797 1681 2184 
Q 2250 2584 2458 2886 
Q 2666 3188 2666 3572 
z
" transform="scale(0.015625)"/>
       </defs>
       <use xlink:href="#MicrosoftYaHei-32"/>
       <use xlink:href="#MicrosoftYaHei-30" x="58.642578"/>
       <use xlink:href="#MicrosoftYaHei-30" x="117.285156"/>
      </g>
     </g>
    </g>
    <g id="ytick_3">
     <g id="line2d_7">
      <path d="M 52.535938 216.417427 
L 306.172301 216.417427 
" clip-path="url(#pa61dc4c320)" style="fill: none; stroke: #e7e7ec; stroke-linecap: square"/>
     </g>
     <g id="line2d_8">
      <g>
       <use xlink:href="#m1a18082558" x="52.535938" y="216.417427" style="stroke: #000000; stroke-width: 0.8"/>
      </g>
     </g>
     <g id="text_5">
      <!-- 400 -->
      <g transform="translate(27.94375 220.414302) scale(0.1 -0.1)">
       <defs>
        <path id="MicrosoftYaHei-34" d="M 2906 4841 
L 2906 1644 
L 3631 1644 
L 3631 1138 
L 2906 1138 
L 2906 0 
L 2313 0 
L 2313 1138 
L 53 1138 
L 53 1616 
Q 656 2294 1265 3178 
Q 1875 4063 2272 4841 
L 2906 4841 
z
M 741 1644 
L 2313 1644 
L 2313 3950 
Q 1988 3366 1616 2817 
Q 1244 2269 741 1644 
z
" transform="scale(0.015625)"/>
       </defs>
       <use xlink:href="#MicrosoftYaHei-34"/>
       <use xlink:href="#MicrosoftYaHei-30" x="58.642578"/>
       <use xlink:href="#MicrosoftYaHei-30" x="117.285156"/>
      </g>
     </g>
    </g>
    <g id="ytick_4">
     <g id="line2d_9">
      <path d="M 52.535938 170.33014 
L 306.172301 170.33014 
" clip-path="url(#pa61dc4c320)" style="fill: none; stroke: #e7e7ec; stroke-linecap: square"/>
     </g>
     <g id="line2d_10">
      <g>
       <use xlink:href="#m1a18082558" x="52.535938" y="170.33014" style="stroke: #000000; stroke-width: 0.8"/>
      </g>
     </g>
     <g id="text_6">
      <!-- 600 -->
      <g transform="translate(27.94375 174.327015) scale(0.1 -0.1)">
       <defs>
        <path id="MicrosoftYaHei-36" d="M 3181 4219 
Q 2803 4413 2391 4413 
Q 1763 4413 1381 3866 
Q 1000 3319 994 2372 
L 1009 2372 
Q 1353 3038 2106 3038 
Q 2734 3038 3109 2628 
Q 3484 2219 3484 1541 
Q 3484 831 3051 375 
Q 2619 -81 1947 -81 
Q 1209 -81 789 495 
Q 369 1072 369 2131 
Q 369 3413 920 4167 
Q 1472 4922 2372 4922 
Q 2888 4922 3181 4781 
L 3181 4219 
z
M 1031 1584 
Q 1031 1106 1286 765 
Q 1541 425 1963 425 
Q 2363 425 2613 719 
Q 2863 1013 2863 1475 
Q 2863 1975 2627 2253 
Q 2391 2531 1956 2531 
Q 1544 2531 1287 2250 
Q 1031 1969 1031 1584 
z
" transform="scale(0.015625)"/>
       </defs>
       <use xlink:href="#MicrosoftYaHei-36"/>
       <use xlink:href="#MicrosoftYaHei-30" x="58.642578"/>
       <use xlink:href="#MicrosoftYaHei-30" x="117.285156"/>
      </g>
     </g>
    </g>
    <g id="ytick_5">
     <g id="line2d_11">
      <path d="M 52.535938 124.242854 
L 306.172301 124.242854 
" clip-path="url(#pa61dc4c320)" style="fill: none; stroke: #e7e7ec; stroke-linecap: square"/>
     </g>
     <g id="line2d_12">
      <g>
       <use xlink:href="#m1a18082558" x="52.535938" y="124.242854" style="stroke: #000000; stroke-width: 0.8"/>
      </g>
     </g>
     <g id="text_7">
      <!-- 800 -->
      <g transform="translate(27.94375 128.239729) scale(0.1 -0.1)">
       <defs>
        <path id="MicrosoftYaHei-38" d="M 306 1350 
Q 306 1769 556 2122 
Q 806 2475 1200 2625 
Q 884 2803 700 3081 
Q 516 3359 516 3684 
Q 516 4028 692 4312 
Q 869 4597 1183 4759 
Q 1497 4922 1875 4922 
Q 2256 4922 2572 4761 
Q 2888 4600 3063 4315 
Q 3238 4031 3238 3684 
Q 3238 3366 3058 3086 
Q 2878 2806 2559 2625 
Q 2953 2472 3200 2119 
Q 3447 1766 3447 1350 
Q 3447 938 3250 611 
Q 3053 284 2690 103 
Q 2328 -78 1875 -78 
Q 1425 -78 1065 103 
Q 706 284 506 612 
Q 306 941 306 1350 
z
M 906 1378 
Q 906 947 1172 687 
Q 1438 428 1878 428 
Q 2309 428 2582 692 
Q 2856 956 2856 1378 
Q 2856 1778 2579 2051 
Q 2303 2325 1878 2325 
Q 1456 2325 1181 2058 
Q 906 1791 906 1378 
z
M 1081 3634 
Q 1081 3309 1312 3076 
Q 1544 2844 1878 2844 
Q 2206 2844 2445 3078 
Q 2684 3313 2684 3634 
Q 2684 3963 2454 4191 
Q 2225 4419 1878 4419 
Q 1534 4419 1307 4195 
Q 1081 3972 1081 3634 
z
" transform="scale(0.015625)"/>
       </defs>
       <use xlink:href="#MicrosoftYaHei-38"/>
       <use xlink:href="#MicrosoftYaHei-30" x="58.642578"/>
       <use xlink:href="#MicrosoftYaHei-30" x="117.285156"/>
      </g>
     </g>
    </g>
    <g id="ytick_6">
     <g id="line2d_13">
      <path d="M 52.535938 78.155567 
L 306.172301 78.155567 
" clip-path="url(#pa61dc4c320)" style="fill: none; stroke: #e7e7ec; stroke-linecap: square"/>
     </g>
     <g id="line2d_14">
      <g>
       <use xlink:href="#m1a18082558" x="52.535938" y="78.155567" style="stroke: #000000; stroke-width: 0.8"/>
      </g>
     </g>
     <g id="text_8">
      <!-- 1000 -->
      <g transform="translate(22.079688 82.152442) scale(0.1 -0.1)">
       <defs>
        <path id="MicrosoftYaHei-31" d="M 1781 0 
L 1781 4141 
Q 1638 3997 1295 3819 
Q 953 3641 663 3569 
L 663 4169 
Q 1047 4275 1484 4508 
Q 1922 4741 2156 4947 
L 2388 4947 
L 2388 0 
L 1781 0 
z
" transform="scale(0.015625)"/>
       </defs>
       <use xlink:href="#MicrosoftYaHei-31"/>
       <use xlink:href="#MicrosoftYaHei-30" x="58.642578"/>
       <use xlink:href="#MicrosoftYaHei-30" x="117.285156"/>
       <use xlink:href="#MicrosoftYaHei-30" x="175.927734"/>
      </g>
     </g>
    </g>
    <g id="text_9">
     <!-- 吞吐 / 受理速率 (req/s) -->
     <g transform="translate(15.59375 233.322187) rotate(-90) scale(0.1 -0.1)">
      <defs>
       <path id="MicrosoftYaHei-541e" d="M 238 3522 
L 2547 3522 
Q 2781 3972 2925 4522 
L 706 4522 
L 706 4959 
L 5719 4959 
L 5719 4522 
L 3459 4522 
Q 3294 3963 3097 3522 
L 6169 3522 
L 6169 3084 
L 4028 3084 
Q 4844 2038 6331 1753 
Q 6150 1503 6006 1259 
Q 5569 1391 5194 1572 
L 5194 -841 
L 4706 -841 
L 4706 -428 
L 1750 -428 
L 1750 -853 
L 1263 -853 
L 1263 1594 
Q 875 1363 413 1147 
Q 256 1366 75 1572 
Q 1575 2166 2269 3084 
L 238 3084 
L 238 3522 
z
M 4706 1322 
L 1750 1322 
L 1750 -9 
L 4706 -9 
L 4706 1322 
z
M 1509 1747 
L 4869 1747 
Q 4006 2256 3522 3084 
L 2875 3084 
Q 2453 2363 1509 1747 
z
" transform="scale(0.015625)"/>
       <path id="MicrosoftYaHei-5410" d="M 519 4528 
L 2375 4528 
L 2375 503 
L 994 503 
L 994 59 
L 519 59 
L 519 4528 
z
M 2363 16 
L 4200 16 
L 4200 2878 
L 2838 2878 
L 2838 3353 
L 4200 3353 
L 4200 5247 
L 4731 5247 
L 4731 3353 
L 6069 3353 
L 6069 2878 
L 4731 2878 
L 4731 16 
L 6306 16 
L 6306 -453 
L 2363 -453 
L 2363 16 
z
M 1900 4072 
L 994 4072 
L 994 959 
L 1900 959 
L 1900 4072 
z
" transform="scale(0.015625)"/>
       <path id="MicrosoftYaHei-20" transform="scale(0.015625)"/>
       <path id="MicrosoftYaHei-2f" d="M 2791 4841 
L 469 -803 
L -103 -803 
L 2219 4841 
L 2791 4841 
z
" transform="scale(0.015625)"/>
       <path id="MicrosoftYaHei-53d7" d="M 1075 1684 
L 1075 2116 
L 5025 2116 
L 5025 1672 
Q 4478 881 3616 275 
Q 4544 -150 6313 -309 
Q 6125 -566 5975 -847 
Q 4141 -591 3144 -13 
Q 2150 -534 400 -884 
Q 275 -666 106 -416 
Q 1741 -125 2688 297 
Q 1984 850 1506 1684 
L 1075 1684 
z
M 319 3241 
L 4138 3241 
Q 4453 3697 4894 4522 
L 5388 4241 
Q 4978 3644 4675 3241 
L 6075 3241 
L 6075 1959 
L 5569 1959 
L 5569 2803 
L 825 2803 
L 825 1959 
L 319 1959 
L 319 3241 
z
M 625 4484 
Q 588 4703 538 4947 
Q 3550 4978 5669 5134 
L 5744 4672 
Q 3256 4541 625 4484 
z
M 4456 1684 
L 2013 1684 
Q 2459 1009 3153 538 
Q 3941 1016 4456 1684 
z
M 2644 4272 
L 3050 4472 
Q 3356 4028 3588 3566 
L 3131 3347 
Q 2919 3822 2644 4272 
z
M 931 4159 
L 1319 4397 
Q 1656 3953 1906 3547 
L 1463 3291 
Q 1213 3741 931 4159 
z
" transform="scale(0.015625)"/>
       <path id="MicrosoftYaHei-7406" d="M 2031 -166 
L 3988 -166 
L 3988 734 
L 2394 734 
L 2394 1172 
L 3988 1172 
L 3988 1997 
L 2988 1997 
L 2988 1766 
L 2525 1766 
L 2525 4991 
L 5913 4991 
L 5913 1766 
L 5450 1766 
L 5450 1997 
L 4450 1997 
L 4450 1172 
L 6044 1172 
L 6044 734 
L 4450 734 
L 4450 -166 
L 6319 -166 
L 6319 -603 
L 2031 -603 
L 2031 -166 
z
M 44 203 
Q 525 319 975 434 
L 975 2328 
L 194 2328 
L 194 2766 
L 975 2766 
L 975 4328 
L 131 4328 
L 131 4766 
L 2281 4766 
L 2281 4328 
L 1438 4328 
L 1438 2766 
L 2231 2766 
L 2231 2328 
L 1438 2328 
L 1438 559 
Q 1850 675 2238 791 
Q 2269 509 2306 303 
Q 1238 16 213 -303 
L 44 203 
z
M 4450 2422 
L 5450 2422 
L 5450 3291 
L 4450 3291 
L 4450 2422 
z
M 2988 2422 
L 3988 2422 
L 3988 3291 
L 2988 3291 
L 2988 2422 
z
M 5450 4566 
L 4450 4566 
L 4450 3703 
L 5450 3703 
L 5450 4566 
z
M 2988 3703 
L 3988 3703 
L 3988 4566 
L 2988 4566 
L 2988 3703 
z
" transform="scale(0.015625)"/>
       <path id="MicrosoftYaHei-901f" d="M 2231 3572 
L 3800 3572 
L 3800 4178 
L 1938 4178 
L 1938 4609 
L 3800 4609 
L 3800 5291 
L 4263 5291 
L 4263 4609 
L 6225 4609 
L 6225 4178 
L 4263 4178 
L 4263 3572 
L 5831 3572 
L 5831 1778 
L 5381 1778 
L 5381 1972 
L 4263 1972 
L 4263 1522 
L 4425 1772 
Q 5350 1266 6206 766 
L 5919 322 
Q 5044 916 4263 1347 
L 4263 -9 
L 3800 -9 
L 3800 1603 
Q 3044 766 2069 184 
Q 1963 347 1731 591 
Q 2869 1153 3644 1972 
L 2681 1972 
L 2681 1778 
L 2231 1778 
L 2231 3572 
z
M 2663 -222 
Q 4219 -247 6300 -197 
Q 6231 -403 6125 -691 
Q 4056 -703 2569 -666 
Q 1506 -653 1081 66 
Q 825 -172 331 -772 
L 75 -253 
Q 625 278 875 509 
L 875 2616 
L 131 2616 
L 131 3078 
L 1356 3078 
L 1356 403 
Q 1738 -216 2663 -222 
z
M 5381 3166 
L 4263 3166 
L 4263 2378 
L 5381 2378 
L 5381 3166 
z
M 2681 2378 
L 3800 2378 
L 3800 3166 
L 2681 3166 
L 2681 2378 
z
M 800 5178 
Q 1119 4791 1675 3997 
L 1231 3684 
Q 725 4478 400 4909 
L 800 5178 
z
" transform="scale(0.015625)"/>
       <path id="MicrosoftYaHei-7387" d="M 2525 2009 
Q 2622 2016 3928 2081 
Q 3772 2300 3625 2491 
L 3963 2703 
Q 4413 2203 4794 1653 
L 4394 1403 
Q 4284 1569 4178 1725 
Q 2991 1659 2213 1597 
Q 2075 1584 1881 1541 
L 1725 1966 
Q 1913 2028 2006 2084 
Q 2534 2441 3050 2913 
Q 2597 2894 2275 2866 
Q 2144 2847 1988 2809 
L 1800 3191 
Q 1956 3247 2088 3366 
Q 2509 3722 2875 4228 
L 231 4228 
L 231 4666 
L 3031 4666 
Q 2878 4944 2744 5153 
L 3194 5372 
Q 3438 5000 3616 4666 
L 6175 4666 
L 6175 4228 
L 3053 4228 
L 3350 4072 
Q 2844 3553 2494 3247 
Q 2850 3256 3425 3269 
Q 3675 3519 3925 3797 
L 4356 3547 
Q 3363 2603 2525 2009 
z
M 144 991 
L 2994 991 
L 2994 1541 
L 3488 1541 
L 3488 991 
L 6275 991 
L 6275 553 
L 3488 553 
L 3488 -853 
L 2994 -853 
L 2994 553 
L 144 553 
L 144 991 
z
M 1719 2672 
L 1944 2303 
Q 1200 1866 425 1409 
L 163 1828 
Q 813 2134 1719 2672 
z
M 4856 2678 
Q 5750 2172 6250 1816 
L 5975 1409 
Q 5331 1909 4600 2341 
L 4856 2678 
z
M 5994 3591 
Q 5519 3178 4963 2809 
L 4644 3141 
Q 5244 3534 5638 3928 
L 5994 3591 
z
M 363 3634 
L 681 3941 
Q 1200 3528 1588 3159 
L 1238 2816 
Q 875 3197 363 3634 
z
" transform="scale(0.015625)"/>
       <path id="MicrosoftYaHei-72" d="M 2400 2850 
Q 2247 2959 1978 2959 
Q 1622 2959 1390 2626 
Q 1159 2294 1159 1750 
L 1159 0 
L 547 0 
L 547 3456 
L 1159 3456 
L 1159 2753 
L 1172 2753 
Q 1434 3516 2078 3516 
Q 2288 3516 2400 3469 
L 2400 2850 
z
" transform="scale(0.015625)"/>
       <path id="MicrosoftYaHei-65" d="M 3363 1572 
L 944 1572 
Q 959 1019 1246 717 
Q 1534 416 2050 416 
Q 2631 416 3116 788 
L 3116 241 
Q 2659 -81 1906 -81 
Q 1156 -81 736 394 
Q 316 869 316 1713 
Q 316 2506 777 3022 
Q 1238 3538 1922 3538 
Q 2600 3538 2981 3102 
Q 3363 2666 3363 1881 
L 3363 1572 
z
M 2750 2063 
Q 2747 2531 2528 2787 
Q 2309 3044 1913 3044 
Q 1547 3044 1280 2772 
Q 1013 2500 944 2063 
L 2750 2063 
z
" transform="scale(0.015625)"/>
       <path id="MicrosoftYaHei-71" d="M 3547 -1591 
L 2934 -1591 
L 2934 581 
L 2922 581 
Q 2559 -81 1753 -81 
Q 1100 -81 708 380 
Q 316 841 316 1647 
Q 316 2506 747 3022 
Q 1178 3538 1903 3538 
Q 2603 3538 2922 2988 
L 2934 2988 
L 2934 3456 
L 3547 3456 
L 3547 -1591 
z
M 2934 2044 
Q 2938 2453 2673 2742 
Q 2409 3031 1984 3031 
Q 1497 3031 1219 2668 
Q 941 2306 941 1663 
Q 941 1081 1208 753 
Q 1475 425 1909 425 
Q 2384 425 2661 751 
Q 2938 1078 2934 1566 
L 2934 2044 
z
" transform="scale(0.015625)"/>
       <path id="MicrosoftYaHei-73" d="M 353 747 
Q 816 413 1350 413 
Q 2066 413 2066 881 
Q 2066 1081 1909 1211 
Q 1753 1341 1275 1519 
Q 700 1750 528 1976 
Q 356 2203 356 2525 
Q 356 2984 745 3261 
Q 1134 3538 1703 3538 
Q 2144 3538 2522 3384 
L 2522 2794 
Q 2134 3044 1644 3044 
Q 1350 3044 1165 2916 
Q 981 2788 981 2578 
Q 981 2372 1114 2256 
Q 1247 2141 1703 1959 
Q 2281 1744 2484 1512 
Q 2688 1281 2688 941 
Q 2688 466 2298 192 
Q 1909 -81 1291 -81 
Q 753 -81 353 122 
L 353 747 
z
" transform="scale(0.015625)"/>
      </defs>
      <use xlink:href="#MicrosoftYaHei-541e"/>
      <use xlink:href="#MicrosoftYaHei-5410" x="100"/>
      <use xlink:href="#MicrosoftYaHei-20" x="200"/>
      <use xlink:href="#MicrosoftYaHei-2f" x="229.589844"/>
      <use xlink:href="#MicrosoftYaHei-20" x="272.314453"/>
      <use xlink:href="#MicrosoftYaHei-53d7" x="301.904297"/>
      <use xlink:href="#MicrosoftYaHei-7406" x="401.904297"/>
      <use xlink:href="#MicrosoftYaHei-901f" x="501.904297"/>
      <use xlink:href="#MicrosoftYaHei-7387" x="601.904297"/>
      <use xlink:href="#MicrosoftYaHei-20" x="701.904297"/>
      <use xlink:href="#MicrosoftYaHei-28" x="731.494141"/>
      <use xlink:href="#MicrosoftYaHei-72" x="764.892578"/>
      <use xlink:href="#MicrosoftYaHei-65" x="801.701172"/>
      <use xlink:href="#MicrosoftYaHei-71" x="858.439453"/>
      <use xlink:href="#MicrosoftYaHei-2f" x="922.404297"/>
      <use xlink:href="#MicrosoftYaHei-73" x="965.128906"/>
      <use xlink:href="#MicrosoftYaHei-29" x="1011.417969"/>
     </g>
    </g>
   </g>
   <g id="patch_3">
    <path d="M 64.064863 308.592 
L 145.883045 308.592 
L 145.883045 65.712 
L 64.064863 65.712 
z
" clip-path="url(#pa61dc4c320)" style="fill: #a4233a"/>
   </g>
   <g id="patch_4">
    <path d="M 212.825194 308.592 
L 294.643376 308.592 
L 294.643376 272.643917 
L 212.825194 272.643917 
z
" clip-path="url(#pa61dc4c320)" style="fill: #9aa0aa"/>
   </g>
   <g id="patch_5">
    <path d="M 52.535938 308.592 
L 52.535938 53.568 
" style="fill: none; stroke: #c9ccd2; stroke-width: 0.8; stroke-linejoin: miter; stroke-linecap: square"/>
   </g>
   <g id="patch_6">
    <path d="M 52.535938 308.592 
L 306.172301 308.592 
" style="fill: none; stroke: #c9ccd2; stroke-width: 0.8; stroke-linejoin: miter; stroke-linecap: square"/>
   </g>
   <g id="text_10">
    <!-- 1054 -->
    <g style="fill: #1d1d1f" transform="translate(90.172704 60.712) scale(0.12 -0.12)">
     <defs>
      <path id="MicrosoftYaHei-Bold-31" d="M 2716 4947 
L 2716 0 
L 1700 0 
L 1700 3809 
Q 1513 3647 1188 3517 
Q 863 3388 591 3356 
L 591 4222 
Q 1447 4472 2072 4947 
L 2716 4947 
z
" transform="scale(0.015625)"/>
      <path id="MicrosoftYaHei-Bold-30" d="M 244 2341 
Q 244 3597 706 4259 
Q 1169 4922 2044 4922 
Q 3713 4922 3713 2453 
Q 3713 1238 3259 577 
Q 2806 -84 1950 -84 
Q 244 -84 244 2341 
z
M 1266 2366 
Q 1266 691 1981 691 
Q 2684 691 2684 2416 
Q 2684 4147 2000 4147 
Q 1266 4147 1266 2366 
z
" transform="scale(0.015625)"/>
      <path id="MicrosoftYaHei-Bold-35" d="M 541 125 
L 541 997 
Q 1044 691 1613 691 
Q 2041 691 2283 902 
Q 2525 1113 2525 1472 
Q 2525 2225 1494 2225 
Q 1113 2225 616 2169 
L 797 4841 
L 3359 4841 
L 3359 4009 
L 1613 4009 
L 1544 2991 
Q 1803 3013 2022 3013 
Q 2731 3013 3142 2625 
Q 3553 2238 3553 1575 
Q 3553 844 3056 380 
Q 2559 -84 1706 -84 
Q 1016 -84 541 125 
z
" transform="scale(0.015625)"/>
      <path id="MicrosoftYaHei-Bold-34" d="M 3184 4841 
L 3184 1766 
L 3869 1766 
L 3869 1031 
L 3184 1031 
L 3184 0 
L 2266 0 
L 2266 1031 
L 103 1031 
L 103 1772 
Q 775 2522 1362 3359 
Q 1950 4197 2250 4841 
L 3184 4841 
z
M 997 1766 
L 2266 1766 
L 2266 3541 
Q 2116 3259 1836 2859 
Q 1556 2459 997 1766 
z
" transform="scale(0.015625)"/>
     </defs>
     <use xlink:href="#MicrosoftYaHei-Bold-31"/>
     <use xlink:href="#MicrosoftYaHei-Bold-30" x="61.669922"/>
     <use xlink:href="#MicrosoftYaHei-Bold-35" x="123.339844"/>
     <use xlink:href="#MicrosoftYaHei-Bold-34" x="185.009766"/>
    </g>
   </g>
   <g id="text_11">
    <!-- 156 -->
    <g style="fill: #1d1d1f" transform="translate(242.633347 267.643917) scale(0.12 -0.12)">
     <defs>
      <path id="MicrosoftYaHei-Bold-36" d="M 3378 3938 
Q 3009 4147 2575 4147 
Q 2016 4147 1680 3708 
Q 1344 3269 1344 2572 
L 1363 2572 
Q 1709 3103 2391 3103 
Q 3000 3103 3358 2686 
Q 3716 2269 3716 1600 
Q 3716 869 3250 392 
Q 2784 -84 2059 -84 
Q 1228 -84 786 516 
Q 344 1116 344 2159 
Q 344 3388 917 4155 
Q 1491 4922 2513 4922 
Q 3063 4922 3378 4791 
L 3378 3938 
z
M 1378 1591 
Q 1378 1216 1565 953 
Q 1753 691 2059 691 
Q 2369 691 2547 931 
Q 2725 1172 2725 1534 
Q 2725 2350 2053 2350 
Q 1750 2350 1564 2134 
Q 1378 1919 1378 1591 
z
" transform="scale(0.015625)"/>
     </defs>
     <use xlink:href="#MicrosoftYaHei-Bold-31"/>
     <use xlink:href="#MicrosoftYaHei-Bold-35" x="61.669922"/>
     <use xlink:href="#MicrosoftYaHei-Bold-36" x="123.339844"/>
    </g>
   </g>
   <g id="text_12">
    <!-- 异步 -->
    <g style="fill: #a4233a" transform="translate(227.226847 189.360029) scale(0.13 -0.13)">
     <defs>
      <path id="MicrosoftYaHei-Bold-5f02" d="M 2019 2703 
L 4850 2703 
Q 5100 2703 5245 2789 
Q 5391 2875 5433 3031 
Q 5475 3188 5531 3678 
Q 5881 3553 6294 3434 
Q 6166 2763 6094 2545 
Q 6022 2328 5884 2203 
Q 5747 2078 5534 2015 
Q 5322 1953 5031 1953 
L 1819 1953 
Q 675 1953 675 3047 
L 675 5091 
L 5419 5091 
L 5419 3191 
L 1550 3191 
L 1550 3153 
Q 1550 2703 2019 2703 
z
M 4544 3878 
L 4544 4347 
L 1550 4347 
L 1550 3878 
L 4544 3878 
z
M 150 1341 
L 1688 1341 
Q 1700 1575 1694 1859 
L 2569 1859 
Q 2569 1581 2556 1341 
L 4056 1341 
L 4056 1859 
L 4906 1859 
L 4906 1341 
L 6250 1341 
L 6250 603 
L 4906 603 
L 4906 -728 
L 4056 -728 
L 4056 603 
L 2475 603 
Q 2344 -322 1219 -872 
Q 869 -553 494 -278 
Q 1406 109 1556 603 
L 150 603 
L 150 1341 
z
" transform="scale(0.015625)"/>
      <path id="MicrosoftYaHei-Bold-6b65" d="M 156 3266 
L 1050 3266 
L 1050 4866 
L 1925 4866 
L 1925 3266 
L 2956 3266 
L 2956 5328 
L 3844 5328 
L 3844 4678 
L 5763 4678 
L 5763 3922 
L 3844 3922 
L 3844 3266 
L 6269 3266 
L 6269 2497 
L 156 2497 
L 156 3266 
z
M 5300 1966 
L 5938 1341 
Q 4031 -441 575 -859 
Q 363 -397 131 16 
Q 1700 141 2906 550 
L 2906 2353 
L 3781 2353 
L 3781 906 
Q 4666 1338 5300 1966 
z
M 1725 2266 
L 2338 1728 
Q 1575 1003 719 409 
Q 519 691 194 1066 
Q 1031 1591 1725 2266 
z
" transform="scale(0.015625)"/>
     </defs>
     <use xlink:href="#MicrosoftYaHei-Bold-5f02"/>
     <use xlink:href="#MicrosoftYaHei-Bold-6b65" x="100"/>
    </g>
    <!-- ≈ 6.8× -->
    <g style="fill: #a4233a" transform="translate(218.514815 205.061998) scale(0.13 -0.13)">
     <defs>
      <path id="MicrosoftYaHei-Bold-2248" d="M 4213 3350 
Q 4191 2784 3909 2464 
Q 3628 2144 3169 2144 
Q 2816 2144 2297 2450 
Q 1928 2663 1766 2663 
Q 1344 2663 1325 2125 
L 666 2125 
Q 688 2709 969 3017 
Q 1250 3325 1716 3325 
Q 2100 3325 2522 3066 
Q 2950 2806 3134 2806 
Q 3319 2806 3431 2954 
Q 3544 3103 3550 3350 
L 4213 3350 
z
M 4213 1853 
Q 4191 1288 3911 966 
Q 3631 644 3169 644 
Q 2822 644 2297 953 
Q 1931 1169 1766 1169 
Q 1344 1169 1325 619 
L 666 619 
Q 688 1203 969 1518 
Q 1250 1834 1716 1834 
Q 2094 1834 2522 1572 
Q 2956 1306 3134 1306 
Q 3319 1306 3431 1456 
Q 3544 1606 3550 1853 
L 4213 1853 
z
" transform="scale(0.015625)"/>
      <path id="MicrosoftYaHei-Bold-20" transform="scale(0.015625)"/>
      <path id="MicrosoftYaHei-Bold-2e" d="M 313 453 
Q 313 688 491 838 
Q 669 988 916 988 
Q 1166 988 1337 834 
Q 1509 681 1509 453 
Q 1509 213 1337 64 
Q 1166 -84 903 -84 
Q 659 -84 486 69 
Q 313 222 313 453 
z
" transform="scale(0.015625)"/>
      <path id="MicrosoftYaHei-Bold-38" d="M 269 1303 
Q 269 1725 512 2053 
Q 756 2381 1219 2534 
Q 850 2719 648 3003 
Q 447 3288 447 3634 
Q 447 3997 645 4292 
Q 844 4588 1200 4755 
Q 1556 4922 1997 4922 
Q 2441 4922 2800 4758 
Q 3159 4594 3359 4298 
Q 3559 4003 3559 3647 
Q 3559 3309 3339 3018 
Q 3119 2728 2747 2559 
Q 3200 2403 3453 2076 
Q 3706 1750 3706 1313 
Q 3706 697 3228 309 
Q 2750 -78 1988 -78 
Q 1225 -78 747 309 
Q 269 697 269 1303 
z
M 1278 1394 
Q 1278 1056 1472 853 
Q 1666 650 1991 650 
Q 2303 650 2503 853 
Q 2703 1056 2703 1394 
Q 2703 1709 2500 1920 
Q 2297 2131 1991 2131 
Q 1675 2131 1476 1920 
Q 1278 1709 1278 1394 
z
M 1428 3531 
Q 1428 3266 1592 3077 
Q 1756 2888 2006 2888 
Q 2247 2888 2415 3072 
Q 2584 3256 2584 3531 
Q 2584 3806 2420 3997 
Q 2256 4188 2006 4188 
Q 1750 4188 1589 3997 
Q 1428 3806 1428 3531 
z
" transform="scale(0.015625)"/>
      <path id="MicrosoftYaHei-Bold-d7" d="M 4053 841 
L 3581 372 
L 2441 1522 
L 1294 372 
L 822 847 
L 1972 1981 
L 822 3128 
L 1284 3600 
L 2441 2450 
L 3594 3600 
L 4047 3113 
L 2906 1981 
L 4053 841 
z
" transform="scale(0.015625)"/>
     </defs>
     <use xlink:href="#MicrosoftYaHei-Bold-2248"/>
     <use xlink:href="#MicrosoftYaHei-Bold-20" x="76.220703"/>
     <use xlink:href="#MicrosoftYaHei-Bold-36" x="106.005859"/>
     <use xlink:href="#MicrosoftYaHei-Bold-2e" x="167.675781"/>
     <use xlink:href="#MicrosoftYaHei-Bold-38" x="196.240234"/>
     <use xlink:href="#MicrosoftYaHei-Bold-d7" x="257.910156"/>
    </g>
    <!-- 同步 -->
    <g style="fill: #a4233a" transform="translate(227.226847 220.763967) scale(0.13 -0.13)">
     <defs>
      <path id="MicrosoftYaHei-Bold-540c" d="M 381 5078 
L 6019 5078 
L 6019 291 
Q 6019 -253 5776 -523 
Q 5534 -794 5107 -801 
Q 4681 -809 4075 -809 
Q 3981 -309 3881 59 
Q 4272 19 4597 19 
Q 4847 19 4950 45 
Q 5053 72 5117 165 
Q 5181 259 5181 416 
L 5181 4297 
L 1219 4297 
L 1219 -797 
L 381 -797 
L 381 5078 
z
M 4875 3078 
L 1525 3078 
L 1525 3791 
L 4875 3791 
L 4875 3078 
z
M 1738 2591 
L 4638 2591 
L 4638 403 
L 2550 403 
L 2550 3 
L 1738 3 
L 1738 2591 
z
M 3825 1103 
L 3825 1891 
L 2550 1891 
L 2550 1103 
L 3825 1103 
z
" transform="scale(0.015625)"/>
     </defs>
     <use xlink:href="#MicrosoftYaHei-Bold-540c"/>
     <use xlink:href="#MicrosoftYaHei-Bold-6b65" x="100"/>
    </g>
   </g>
   <g id="text_13">
    <!-- 受理吞吐 -->
    <g style="fill: #1d1d1f" transform="translate(155.354119 47.568) scale(0.12 -0.12)">
     <use xlink:href="#MicrosoftYaHei-53d7"/>
     <use xlink:href="#MicrosoftYaHei-7406" x="100"/>
     <use xlink:href="#MicrosoftYaHei-541e" x="200"/>
     <use xlink:href="#MicrosoftYaHei-5410" x="300"/>
    </g>
   </g>
  </g>
  <g id="axes_2">
   <g id="patch_7">
    <path d="M 356.899574 308.592 
L 610.535937 308.592 
L 610.535937 53.568 
L 356.899574 53.568 
z
" style="fill: #ffffff"/>
   </g>
   <g id="matplotlib.axis_3">
    <g id="xtick_3">
     <g id="line2d_15">
      <g>
       <use xlink:href="#mbb32b8928a" x="409.33759" y="308.592" style="stroke: #000000; stroke-width: 0.8"/>
      </g>
     </g>
     <g id="text_14">
      <!-- 异步 -->
      <g transform="translate(399.33759 323.58575) scale(0.1 -0.1)">
       <use xlink:href="#MicrosoftYaHei-5f02"/>
       <use xlink:href="#MicrosoftYaHei-6b65" x="100"/>
      </g>
      <!-- (Kafka) -->
      <g transform="translate(392.839153 335.664187) scale(0.1 -0.1)">
       <use xlink:href="#MicrosoftYaHei-28"/>
       <use xlink:href="#MicrosoftYaHei-4b" x="33.398438"/>
       <use xlink:href="#MicrosoftYaHei-61" x="96.875"/>
       <use xlink:href="#MicrosoftYaHei-66" x="152.148438"/>
       <use xlink:href="#MicrosoftYaHei-6b" x="186.816406"/>
       <use xlink:href="#MicrosoftYaHei-61" x="241.259766"/>
       <use xlink:href="#MicrosoftYaHei-29" x="296.533203"/>
      </g>
     </g>
    </g>
    <g id="xtick_4">
     <g id="line2d_16">
      <g>
       <use xlink:href="#mbb32b8928a" x="558.097921" y="308.592" style="stroke: #000000; stroke-width: 0.8"/>
      </g>
     </g>
     <g id="text_15">
      <!-- 同步 -->
      <g transform="translate(548.097921 323.58575) scale(0.1 -0.1)">
       <use xlink:href="#MicrosoftYaHei-540c"/>
       <use xlink:href="#MicrosoftYaHei-6b65" x="100"/>
      </g>
      <!-- (写库) -->
      <g transform="translate(544.757296 335.664187) scale(0.1 -0.1)">
       <use xlink:href="#MicrosoftYaHei-28"/>
       <use xlink:href="#MicrosoftYaHei-5199" x="33.398438"/>
       <use xlink:href="#MicrosoftYaHei-5e93" x="133.398438"/>
       <use xlink:href="#MicrosoftYaHei-29" x="233.398438"/>
      </g>
     </g>
    </g>
   </g>
   <g id="matplotlib.axis_4">
    <g id="ytick_7">
     <g id="line2d_17">
      <path d="M 356.899574 308.592 
L 610.535937 308.592 
" clip-path="url(#p572428c31f)" style="fill: none; stroke: #e7e7ec; stroke-linecap: square"/>
     </g>
     <g id="line2d_18">
      <g>
       <use xlink:href="#m1a18082558" x="356.899574" y="308.592" style="stroke: #000000; stroke-width: 0.8"/>
      </g>
     </g>
     <g id="text_16">
      <!-- 0 -->
      <g transform="translate(344.035511 312.588875) scale(0.1 -0.1)">
       <use xlink:href="#MicrosoftYaHei-30"/>
      </g>
     </g>
    </g>
    <g id="ytick_8">
     <g id="line2d_19">
      <path d="M 356.899574 271.55067 
L 610.535937 271.55067 
" clip-path="url(#p572428c31f)" style="fill: none; stroke: #e7e7ec; stroke-linecap: square"/>
     </g>
     <g id="line2d_20">
      <g>
       <use xlink:href="#m1a18082558" x="356.899574" y="271.55067" style="stroke: #000000; stroke-width: 0.8"/>
      </g>
     </g>
     <g id="text_17">
      <!-- 1000 -->
      <g transform="translate(326.443324 275.547545) scale(0.1 -0.1)">
       <use xlink:href="#MicrosoftYaHei-31"/>
       <use xlink:href="#MicrosoftYaHei-30" x="58.642578"/>
       <use xlink:href="#MicrosoftYaHei-30" x="117.285156"/>
       <use xlink:href="#MicrosoftYaHei-30" x="175.927734"/>
      </g>
     </g>
    </g>
    <g id="ytick_9">
     <g id="line2d_21">
      <path d="M 356.899574 234.50934 
L 610.535937 234.50934 
" clip-path="url(#p572428c31f)" style="fill: none; stroke: #e7e7ec; stroke-linecap: square"/>
     </g>
     <g id="line2d_22">
      <g>
       <use xlink:href="#m1a18082558" x="356.899574" y="234.50934" style="stroke: #000000; stroke-width: 0.8"/>
      </g>
     </g>
     <g id="text_18">
      <!-- 2000 -->
      <g transform="translate(326.443324 238.506215) scale(0.1 -0.1)">
       <use xlink:href="#MicrosoftYaHei-32"/>
       <use xlink:href="#MicrosoftYaHei-30" x="58.642578"/>
       <use xlink:href="#MicrosoftYaHei-30" x="117.285156"/>
       <use xlink:href="#MicrosoftYaHei-30" x="175.927734"/>
      </g>
     </g>
    </g>
    <g id="ytick_10">
     <g id="line2d_23">
      <path d="M 356.899574 197.46801 
L 610.535937 197.46801 
" clip-path="url(#p572428c31f)" style="fill: none; stroke: #e7e7ec; stroke-linecap: square"/>
     </g>
     <g id="line2d_24">
      <g>
       <use xlink:href="#m1a18082558" x="356.899574" y="197.46801" style="stroke: #000000; stroke-width: 0.8"/>
      </g>
     </g>
     <g id="text_19">
      <!-- 3000 -->
      <g transform="translate(326.443324 201.464885) scale(0.1 -0.1)">
       <defs>
        <path id="MicrosoftYaHei-33" d="M 447 809 
Q 944 425 1569 425 
Q 2069 425 2361 670 
Q 2653 916 2653 1328 
Q 2653 2247 1338 2247 
L 934 2247 
L 934 2753 
L 1319 2753 
Q 2484 2753 2484 3616 
Q 2484 4413 1594 4413 
Q 1084 4413 634 4069 
L 634 4647 
Q 1109 4922 1744 4922 
Q 2363 4922 2738 4598 
Q 3113 4275 3113 3759 
Q 3113 2809 2144 2538 
L 2144 2525 
Q 2669 2469 2973 2155 
Q 3278 1841 3278 1372 
Q 3278 719 2808 319 
Q 2338 -81 1556 -81 
Q 869 -81 447 175 
L 447 809 
z
" transform="scale(0.015625)"/>
       </defs>
       <use xlink:href="#MicrosoftYaHei-33"/>
       <use xlink:href="#MicrosoftYaHei-30" x="58.642578"/>
       <use xlink:href="#MicrosoftYaHei-30" x="117.285156"/>
       <use xlink:href="#MicrosoftYaHei-30" x="175.927734"/>
      </g>
     </g>
    </g>
    <g id="ytick_11">
     <g id="line2d_25">
      <path d="M 356.899574 160.42668 
L 610.535937 160.42668 
" clip-path="url(#p572428c31f)" style="fill: none; stroke: #e7e7ec; stroke-linecap: square"/>
     </g>
     <g id="line2d_26">
      <g>
       <use xlink:href="#m1a18082558" x="356.899574" y="160.42668" style="stroke: #000000; stroke-width: 0.8"/>
      </g>
     </g>
     <g id="text_20">
      <!-- 4000 -->
      <g transform="translate(326.443324 164.423555) scale(0.1 -0.1)">
       <use xlink:href="#MicrosoftYaHei-34"/>
       <use xlink:href="#MicrosoftYaHei-30" x="58.642578"/>
       <use xlink:href="#MicrosoftYaHei-30" x="117.285156"/>
       <use xlink:href="#MicrosoftYaHei-30" x="175.927734"/>
      </g>
     </g>
    </g>
    <g id="ytick_12">
     <g id="line2d_27">
      <path d="M 356.899574 123.385351 
L 610.535937 123.385351 
" clip-path="url(#p572428c31f)" style="fill: none; stroke: #e7e7ec; stroke-linecap: square"/>
     </g>
     <g id="line2d_28">
      <g>
       <use xlink:href="#m1a18082558" x="356.899574" y="123.385351" style="stroke: #000000; stroke-width: 0.8"/>
      </g>
     </g>
     <g id="text_21">
      <!-- 5000 -->
      <g transform="translate(326.443324 127.382226) scale(0.1 -0.1)">
       <defs>
        <path id="MicrosoftYaHei-35" d="M 3294 1494 
Q 3294 784 2823 350 
Q 2353 -84 1559 -84 
Q 878 -84 544 119 
L 544 744 
Q 1034 425 1544 425 
Q 2050 425 2361 704 
Q 2672 984 2672 1447 
Q 2672 1909 2348 2167 
Q 2025 2425 1434 2425 
Q 978 2425 613 2384 
L 791 4841 
L 3053 4841 
L 3053 4303 
L 1306 4303 
L 1206 2931 
L 1647 2950 
Q 2416 2950 2855 2567 
Q 3294 2184 3294 1494 
z
" transform="scale(0.015625)"/>
       </defs>
       <use xlink:href="#MicrosoftYaHei-35"/>
       <use xlink:href="#MicrosoftYaHei-30" x="58.642578"/>
       <use xlink:href="#MicrosoftYaHei-30" x="117.285156"/>
       <use xlink:href="#MicrosoftYaHei-30" x="175.927734"/>
      </g>
     </g>
    </g>
    <g id="ytick_13">
     <g id="line2d_29">
      <path d="M 356.899574 86.344021 
L 610.535937 86.344021 
" clip-path="url(#p572428c31f)" style="fill: none; stroke: #e7e7ec; stroke-linecap: square"/>
     </g>
     <g id="line2d_30">
      <g>
       <use xlink:href="#m1a18082558" x="356.899574" y="86.344021" style="stroke: #000000; stroke-width: 0.8"/>
      </g>
     </g>
     <g id="text_22">
      <!-- 6000 -->
      <g transform="translate(326.443324 90.340896) scale(0.1 -0.1)">
       <use xlink:href="#MicrosoftYaHei-36"/>
       <use xlink:href="#MicrosoftYaHei-30" x="58.642578"/>
       <use xlink:href="#MicrosoftYaHei-30" x="117.285156"/>
       <use xlink:href="#MicrosoftYaHei-30" x="175.927734"/>
      </g>
     </g>
    </g>
    <g id="text_23">
     <!-- 平均受理延迟 (ms) -->
     <g transform="translate(319.957386 222.900312) rotate(-90) scale(0.1 -0.1)">
      <defs>
       <path id="MicrosoftYaHei-5e73" d="M 169 1934 
L 2938 1934 
L 2938 4547 
L 450 4547 
L 450 5028 
L 5975 5028 
L 5975 4547 
L 3463 4547 
L 3463 1934 
L 6250 1934 
L 6250 1453 
L 3463 1453 
L 3463 -847 
L 2938 -847 
L 2938 1453 
L 169 1453 
L 169 1934 
z
M 3950 2559 
Q 4638 3284 5188 4159 
L 5656 3859 
Q 4950 2891 4338 2234 
L 3950 2559 
z
M 769 3859 
L 1163 4134 
Q 1863 3316 2369 2553 
L 1925 2222 
Q 1444 3003 769 3859 
z
" transform="scale(0.015625)"/>
       <path id="MicrosoftYaHei-5747" d="M 2244 2803 
Q 2931 3953 3338 5322 
L 3838 5172 
Q 3691 4744 3531 4347 
L 6013 4347 
Q 5925 1053 5875 297 
Q 5831 -697 4806 -697 
Q 4188 -697 3706 -672 
Q 3669 -422 3606 -141 
L 3625 -141 
Q 4250 -209 4775 -209 
Q 5350 -209 5394 378 
Q 5456 1447 5513 3891 
L 3341 3891 
Q 3028 3172 2675 2572 
Q 2481 2691 2244 2803 
z
M 81 428 
Q 559 600 1006 769 
L 1006 3253 
L 169 3253 
L 169 3697 
L 1006 3697 
L 1006 5259 
L 1469 5259 
L 1469 3697 
L 2281 3697 
L 2281 3253 
L 1469 3253 
L 1469 947 
Q 1922 1125 2338 1303 
Q 2350 991 2369 784 
Q 1363 403 250 -53 
L 81 428 
z
M 2513 853 
Q 3769 1353 5119 1934 
Q 5150 1641 5188 1434 
Q 4031 947 2706 359 
L 2513 853 
z
M 3138 2909 
L 3481 3216 
Q 4025 2716 4531 2216 
L 4125 1859 
Q 3644 2409 3138 2909 
z
" transform="scale(0.015625)"/>
       <path id="MicrosoftYaHei-5ef6" d="M 600 2066 
Q 825 1325 1234 834 
Q 1594 1525 1688 2391 
L 331 2391 
L 331 2853 
L 1544 4259 
L 150 4259 
L 150 4722 
L 2156 4722 
L 2156 4247 
L 956 2853 
L 2181 2853 
L 2181 2434 
Q 2063 1325 1597 478 
Q 2300 -88 3394 -128 
Q 4706 -184 6319 -97 
Q 6213 -359 6113 -616 
Q 4369 -622 3519 -603 
Q 2188 -597 1344 72 
Q 975 -450 450 -859 
Q 331 -672 125 -459 
Q 631 -72 978 416 
Q 463 997 188 1909 
L 600 2066 
z
M 2813 3547 
L 3300 3547 
L 3300 1134 
L 4144 1134 
L 4144 4416 
Q 3444 4369 2613 4328 
Q 2556 4609 2506 4797 
Q 4213 4853 5944 5053 
L 6050 4578 
Q 5441 4509 4631 4450 
L 4631 3128 
L 5981 3128 
L 5981 2666 
L 4631 2666 
L 4631 1134 
L 6094 1134 
L 6094 666 
L 2813 666 
L 2813 3547 
z
" transform="scale(0.015625)"/>
       <path id="MicrosoftYaHei-8fdf" d="M 2525 4953 
L 5719 4953 
L 5719 2266 
L 5225 2266 
L 5225 2616 
L 3009 2616 
Q 2928 922 2125 184 
Q 1975 372 1775 597 
Q 2525 1253 2525 3091 
L 2525 4953 
z
M 2906 -134 
L 4334 -166 
L 6325 -103 
Q 6219 -359 6125 -609 
L 4344 -622 
L 2844 -603 
Q 1650 -578 1156 134 
Q 744 -228 369 -697 
L 100 -159 
Q 384 88 931 563 
L 931 2672 
L 131 2672 
L 131 3134 
L 1431 3134 
L 1431 475 
Q 1884 -106 2906 -134 
z
M 5225 4491 
L 3019 4491 
L 3019 3078 
L 5225 3078 
L 5225 4491 
z
M 3544 1922 
L 3869 2272 
Q 4944 1534 6106 697 
L 5769 259 
Q 4669 1128 3544 1922 
z
M 794 5278 
Q 1188 4809 1750 4072 
Q 1525 3941 1300 3778 
Q 763 4572 413 5003 
L 794 5278 
z
" transform="scale(0.015625)"/>
       <path id="MicrosoftYaHei-6d" d="M 5522 0 
L 4909 0 
L 4909 1984 
Q 4909 2547 4734 2789 
Q 4559 3031 4159 3031 
Q 3822 3031 3581 2715 
Q 3341 2400 3341 1969 
L 3341 0 
L 2728 0 
L 2728 2047 
Q 2728 3031 1969 3031 
Q 1619 3031 1389 2731 
Q 1159 2431 1159 1966 
L 1159 0 
L 547 0 
L 547 3456 
L 1159 3456 
L 1159 2909 
L 1172 2909 
Q 1541 3538 2250 3538 
Q 2597 3538 2862 3347 
Q 3128 3156 3231 2831 
Q 3616 3538 4381 3538 
Q 5522 3538 5522 2131 
L 5522 0 
z
" transform="scale(0.015625)"/>
      </defs>
      <use xlink:href="#MicrosoftYaHei-5e73"/>
      <use xlink:href="#MicrosoftYaHei-5747" x="100"/>
      <use xlink:href="#MicrosoftYaHei-53d7" x="200"/>
      <use xlink:href="#MicrosoftYaHei-7406" x="300"/>
      <use xlink:href="#MicrosoftYaHei-5ef6" x="400"/>
      <use xlink:href="#MicrosoftYaHei-8fdf" x="500"/>
      <use xlink:href="#MicrosoftYaHei-20" x="600"/>
      <use xlink:href="#MicrosoftYaHei-28" x="629.589844"/>
      <use xlink:href="#MicrosoftYaHei-6d" x="662.988281"/>
      <use xlink:href="#MicrosoftYaHei-73" x="756.689453"/>
      <use xlink:href="#MicrosoftYaHei-29" x="802.978516"/>
     </g>
    </g>
   </g>
   <g id="patch_8">
    <path d="M 368.428499 308.592 
L 450.246681 308.592 
L 450.246681 271.143215 
L 368.428499 271.143215 
z
" clip-path="url(#p572428c31f)" style="fill: #a4233a"/>
   </g>
   <g id="patch_9">
    <path d="M 517.18883 308.592 
L 599.007012 308.592 
L 599.007012 65.712 
L 517.18883 65.712 
z
" clip-path="url(#p572428c31f)" style="fill: #9aa0aa"/>
   </g>
   <g id="patch_10">
    <path d="M 356.899574 308.592 
L 356.899574 53.568 
" style="fill: none; stroke: #c9ccd2; stroke-width: 0.8; stroke-linejoin: miter; stroke-linecap: square"/>
   </g>
   <g id="patch_11">
    <path d="M 356.899574 308.592 
L 610.535937 308.592 
" style="fill: none; stroke: #c9ccd2; stroke-width: 0.8; stroke-linejoin: miter; stroke-linecap: square"/>
   </g>
   <g id="text_24">
    <!-- 1011 -->
    <g style="fill: #1d1d1f" transform="translate(394.53634 266.143215) scale(0.12 -0.12)">
     <use xlink:href="#MicrosoftYaHei-Bold-31"/>
     <use xlink:href="#MicrosoftYaHei-Bold-30" x="61.669922"/>
     <use xlink:href="#MicrosoftYaHei-Bold-31" x="123.339844"/>
     <use xlink:href="#MicrosoftYaHei-Bold-31" x="185.009766"/>
    </g>
   </g>
   <g id="text_25">
    <!-- 6557 -->
    <g style="fill: #1d1d1f" transform="translate(543.296671 60.712) scale(0.12 -0.12)">
     <defs>
      <path id="MicrosoftYaHei-Bold-37" d="M 3675 4225 
Q 3088 3172 2798 2528 
Q 2509 1884 2328 1275 
Q 2147 666 2050 0 
L 966 0 
Q 1122 947 1517 1917 
Q 1913 2888 2609 4009 
L 300 4009 
L 300 4841 
L 3675 4841 
L 3675 4225 
z
" transform="scale(0.015625)"/>
     </defs>
     <use xlink:href="#MicrosoftYaHei-Bold-36"/>
     <use xlink:href="#MicrosoftYaHei-Bold-35" x="61.669922"/>
     <use xlink:href="#MicrosoftYaHei-Bold-35" x="123.339844"/>
     <use xlink:href="#MicrosoftYaHei-Bold-37" x="185.009766"/>
    </g>
   </g>
   <g id="text_26">
    <!-- 平均受理延迟 -->
    <g style="fill: #1d1d1f" transform="translate(447.717756 47.568) scale(0.12 -0.12)">
     <use xlink:href="#MicrosoftYaHei-5e73"/>
     <use xlink:href="#MicrosoftYaHei-5747" x="100"/>
     <use xlink:href="#MicrosoftYaHei-53d7" x="200"/>
     <use xlink:href="#MicrosoftYaHei-7406" x="300"/>
     <use xlink:href="#MicrosoftYaHei-5ef6" x="400"/>
     <use xlink:href="#MicrosoftYaHei-8fdf" x="500"/>
    </g>
   </g>
  </g>
  <g id="text_27">
   <!-- 当 DB 成为瓶颈时（模拟单次写 40ms 远程库，2000 并发全部落库）异步显著占优 -->
   <g style="fill: #1d1d1f" transform="translate(92.615039 17.192187) scale(0.125 -0.125)">
    <defs>
     <path id="MicrosoftYaHei-5f53" d="M 344 -41 
L 5294 -41 
L 5294 1034 
L 725 1034 
L 725 1478 
L 5294 1478 
L 5294 2534 
L 525 2534 
L 525 2978 
L 2944 2978 
L 2944 5297 
L 3463 5297 
L 3463 2978 
L 5813 2978 
L 5813 -859 
L 5294 -859 
L 5294 -484 
L 344 -484 
L 344 -41 
z
M 5725 4653 
Q 5056 3897 4394 3291 
L 4019 3628 
Q 4656 4203 5300 4997 
L 5725 4653 
z
M 725 4678 
L 1075 4991 
Q 1750 4359 2331 3672 
L 1913 3316 
Q 1388 4003 725 4678 
z
" transform="scale(0.015625)"/>
     <path id="MicrosoftYaHei-44" d="M 625 0 
L 625 4841 
L 2006 4841 
Q 3106 4841 3836 4200 
Q 4566 3559 4566 2481 
Q 4566 1356 3836 678 
Q 3106 0 1956 0 
L 625 0 
z
M 1250 4284 
L 1250 553 
L 1953 553 
Q 2875 553 3392 1056 
Q 3909 1559 3909 2466 
Q 3909 3372 3378 3828 
Q 2847 4284 1981 4284 
L 1250 4284 
z
" transform="scale(0.015625)"/>
     <path id="MicrosoftYaHei-42" d="M 625 0 
L 625 4841 
L 2047 4841 
Q 2684 4841 3065 4536 
Q 3447 4231 3447 3728 
Q 3447 3328 3220 3022 
Q 2994 2716 2597 2588 
L 2597 2575 
Q 3091 2519 3386 2201 
Q 3681 1884 3681 1397 
Q 3681 772 3232 386 
Q 2784 0 2084 0 
L 625 0 
z
M 1250 4294 
L 1250 2778 
L 1819 2778 
Q 2272 2778 2530 2998 
Q 2788 3219 2788 3609 
Q 2788 4294 1875 4294 
L 1250 4294 
z
M 1250 2234 
L 1250 547 
L 2000 547 
Q 2491 547 2758 773 
Q 3025 1000 3025 1403 
Q 3025 2234 1897 2234 
L 1250 2234 
z
" transform="scale(0.015625)"/>
     <path id="MicrosoftYaHei-6210" d="M 2750 -347 
Q 3472 138 4038 781 
Q 3675 1703 3609 3759 
L 1250 3759 
L 1250 2809 
L 3050 2809 
Q 3013 1616 2950 803 
Q 2875 -59 2113 -59 
Q 1856 -59 1431 -34 
Q 1394 197 1331 484 
Q 1769 422 2063 422 
Q 2425 422 2469 922 
Q 2519 1497 2544 2347 
L 1247 2347 
Q 1197 175 369 -866 
Q 213 -653 44 -434 
Q 750 503 750 2528 
L 750 4222 
L 3591 4222 
Q 3569 4716 3550 5291 
L 4069 5291 
Q 4066 4850 4084 4222 
L 6238 4222 
L 6238 3759 
L 4100 3759 
Q 4163 2078 4409 1247 
Q 5016 2069 5406 3109 
L 5900 2903 
Q 5363 1631 4609 691 
Q 5069 -244 5506 -244 
Q 5666 -244 5750 47 
Q 5838 503 5888 984 
Q 6156 878 6363 809 
Q 6269 141 6156 -284 
Q 6038 -741 5631 -778 
Q 5250 -803 4900 -522 
Q 4522 -231 4256 278 
Q 3728 -291 3106 -722 
Q 2944 -534 2750 -347 
z
M 4544 4984 
L 4806 5309 
Q 5331 5009 5788 4684 
L 5488 4309 
Q 5038 4666 4544 4984 
z
" transform="scale(0.015625)"/>
     <path id="MicrosoftYaHei-4e3a" d="M 356 3684 
L 2703 3684 
Q 2794 4450 2794 5341 
L 3331 5341 
Q 3331 4413 3244 3684 
L 5900 3684 
Q 5863 1753 5788 497 
Q 5725 -672 4550 -672 
Q 4063 -672 3394 -641 
Q 3369 -397 3300 -59 
Q 3888 -141 4456 -141 
Q 5206 -141 5244 597 
Q 5331 1822 5356 3197 
L 3175 3197 
Q 2716 441 606 -903 
Q 431 -684 225 -441 
Q 2169 706 2628 3197 
L 356 3197 
L 356 3684 
z
M 3325 2072 
L 3669 2378 
Q 4269 1822 4756 1284 
L 4369 934 
Q 3888 1503 3325 2072 
z
M 800 4922 
L 1138 5234 
Q 1656 4784 2138 4309 
L 1756 3953 
Q 1294 4459 800 4922 
z
" transform="scale(0.015625)"/>
     <path id="MicrosoftYaHei-74f6" d="M 113 2341 
L 838 2341 
L 838 3691 
L 225 3691 
L 225 4128 
L 1694 4128 
Q 2025 4641 2375 5334 
L 2838 5066 
Q 2553 4653 2184 4128 
L 3038 4128 
L 3038 3691 
L 2500 3691 
L 2500 2341 
L 3150 2341 
L 3150 1903 
L 2500 1903 
L 2500 -797 
L 2050 -797 
L 2050 1903 
L 1284 1903 
Q 1272 797 1125 309 
Q 956 -253 394 -859 
Q 213 -616 81 -453 
Q 556 34 694 528 
Q 822 947 834 1903 
L 113 1903 
L 113 2341 
z
M 5038 2997 
L 3919 2997 
L 3694 -59 
Q 4181 97 4800 341 
Q 4800 28 4806 -147 
Q 4175 -359 3538 -591 
Q 3388 -653 3250 -734 
L 2988 -303 
Q 3219 -197 3250 22 
L 3575 4428 
L 3013 4428 
L 3013 4878 
L 6075 4878 
L 6075 4428 
L 4025 4428 
L 3953 3441 
L 5488 3441 
L 5438 -34 
Q 5434 -209 5606 -209 
Q 5753 -209 5769 -53 
Q 5831 391 5875 1072 
Q 6075 984 6319 903 
Q 6269 316 6213 -122 
Q 6144 -647 5688 -647 
L 5519 -647 
Q 4984 -647 4994 -72 
L 5038 2997 
z
M 1288 2341 
L 2050 2341 
L 2050 3691 
L 1288 3691 
L 1288 2341 
z
M 4156 2303 
Q 4594 1959 5006 1584 
Q 4844 1403 4681 1234 
Q 4294 1641 3888 1997 
L 4156 2303 
z
M 563 5072 
L 919 5309 
Q 1300 4784 1513 4478 
L 1106 4203 
Q 794 4734 563 5072 
z
" transform="scale(0.015625)"/>
     <path id="MicrosoftYaHei-9888" d="M 2988 3728 
L 4000 3728 
L 4156 4516 
L 2756 4516 
L 2756 4941 
L 6275 4941 
L 6275 4516 
L 4669 4516 
L 4481 3728 
L 6006 3728 
L 6006 459 
L 5531 459 
L 5531 3303 
L 3463 3303 
L 3463 459 
L 2988 459 
L 2988 3728 
z
M 4250 2916 
L 4725 2916 
Q 4731 1341 4594 909 
Q 4575 828 4550 753 
Q 5500 147 6306 -453 
L 5981 -878 
Q 5194 -216 4369 334 
Q 3931 -428 2813 -916 
Q 2688 -747 2488 -509 
Q 3894 53 4131 1053 
Q 4256 1497 4250 2916 
z
M 106 84 
Q 656 147 1219 228 
L 1219 1734 
L 238 1734 
L 238 2159 
L 2619 2159 
L 2619 1734 
L 1688 1734 
L 1688 297 
Q 2206 372 2731 466 
Q 2706 172 2694 -28 
Q 1306 -222 169 -422 
L 106 84 
z
M 263 4541 
L 263 4966 
L 2406 4966 
L 2406 4553 
Q 2175 4066 1869 3659 
Q 2438 3253 2906 2872 
L 2575 2491 
Q 2119 2909 1588 3322 
Q 1044 2728 294 2341 
Q 194 2509 44 2747 
Q 1306 3353 1869 4541 
L 263 4541 
z
" transform="scale(0.015625)"/>
     <path id="MicrosoftYaHei-65f6" d="M 344 4728 
L 2500 4728 
L 2500 -366 
L 2006 -366 
L 2006 153 
L 838 153 
L 838 -441 
L 344 -441 
L 344 4728 
z
M 2706 3941 
L 4925 3941 
L 4925 5322 
L 5425 5322 
L 5425 3941 
L 6313 3941 
L 6313 3478 
L 5425 3478 
L 5425 116 
Q 5425 -722 4625 -722 
Q 4263 -722 3563 -703 
Q 3531 -478 3463 -178 
Q 4119 -228 4488 -228 
Q 4925 -228 4925 216 
L 4925 3478 
L 2706 3478 
L 2706 3941 
z
M 838 616 
L 2006 616 
L 2006 2234 
L 838 2234 
L 838 616 
z
M 2006 4266 
L 838 4266 
L 838 2684 
L 2006 2684 
L 2006 4266 
z
M 3406 2878 
Q 3906 1966 4163 1422 
Q 4000 1347 3663 1172 
Q 3419 1766 2963 2653 
L 3406 2878 
z
" transform="scale(0.015625)"/>
     <path id="MicrosoftYaHei-ff08" d="M 5288 -1100 
Q 4172 119 4172 1850 
Q 4172 3603 5288 4838 
L 5825 4838 
Q 4716 3572 4716 1856 
Q 4716 166 5819 -1100 
L 5288 -1100 
z
" transform="scale(0.015625)"/>
     <path id="MicrosoftYaHei-6a21" d="M 2050 984 
L 3859 984 
Q 3900 1213 3913 1547 
L 2950 1547 
L 2950 1372 
L 2500 1372 
L 2500 3634 
L 5844 3634 
L 5844 1372 
L 5394 1372 
L 5394 1547 
L 4344 1547 
Q 4325 1203 4288 984 
L 6250 984 
L 6250 584 
L 4525 584 
Q 5203 -175 6319 -341 
Q 6144 -572 6013 -809 
Q 4803 -456 4128 466 
Q 3681 -431 2075 -847 
Q 1969 -628 1831 -416 
Q 3303 -106 3713 584 
L 2050 584 
L 2050 984 
z
M 63 1409 
Q 603 2316 922 3509 
L 138 3509 
L 138 3922 
L 1006 3922 
L 1006 5309 
L 1444 5309 
L 1444 3922 
L 2256 3922 
L 2256 3509 
L 1444 3509 
L 1444 2684 
L 1688 2884 
Q 2044 2503 2350 2116 
L 2006 1828 
Q 1719 2244 1444 2563 
L 1444 -822 
L 1006 -822 
L 1006 2581 
Q 672 1438 275 859 
Q 188 1128 63 1409 
z
M 4713 5303 
L 5150 5303 
L 5150 4703 
L 6225 4703 
L 6225 4303 
L 5150 4303 
L 5150 3797 
L 4713 3797 
L 4713 4303 
L 3600 4303 
L 3600 3797 
L 3163 3797 
L 3163 4303 
L 2175 4303 
L 2175 4703 
L 3163 4703 
L 3163 5309 
L 3600 5309 
L 3600 4703 
L 4713 4703 
L 4713 5303 
z
M 5394 3247 
L 2950 3247 
L 2950 2778 
L 5394 2778 
L 5394 3247 
z
M 2950 1934 
L 5394 1934 
L 5394 2403 
L 2950 2403 
L 2950 1934 
z
" transform="scale(0.015625)"/>
     <path id="MicrosoftYaHei-62df" d="M 81 1991 
Q 459 2091 925 2234 
L 925 3647 
L 150 3647 
L 150 4066 
L 925 4066 
L 925 5272 
L 1400 5272 
L 1400 4066 
L 2131 4066 
L 2131 3647 
L 1400 3647 
L 1400 2384 
Q 1756 2500 2156 2634 
Q 2144 2328 2144 2153 
Q 1775 2034 1400 1906 
L 1400 -97 
Q 1400 -722 856 -747 
Q 556 -759 231 -753 
Q 200 -522 150 -234 
Q 456 -272 656 -272 
Q 925 -272 925 9 
L 925 1744 
Q 541 1613 150 1472 
L 81 1991 
z
M 5000 5216 
L 5475 5216 
Q 5463 4141 5444 3341 
Q 5403 1831 5119 1044 
Q 5797 278 6325 -391 
L 5906 -734 
Q 5425 -66 4900 588 
Q 4397 -263 3375 -872 
Q 3219 -659 3031 -478 
Q 4206 184 4644 1184 
Q 4938 1916 4963 3347 
Q 4988 4284 5000 5216 
z
M 3838 1878 
Q 3900 1616 4000 1391 
Q 3444 884 2850 316 
Q 2706 172 2563 -41 
L 2238 372 
Q 2431 597 2431 947 
L 2431 4797 
L 2906 4797 
L 2906 991 
Q 3256 1297 3838 1878 
z
M 3213 5147 
L 3619 5353 
Q 4088 4516 4425 3816 
L 3988 3572 
Q 3563 4497 3213 5147 
z
" transform="scale(0.015625)"/>
     <path id="MicrosoftYaHei-5355" d="M 125 909 
L 2956 909 
L 2956 1616 
L 1225 1616 
L 1225 1322 
L 750 1322 
L 750 4353 
L 2047 4353 
Q 1747 4703 1400 5072 
L 1756 5366 
Q 2219 4922 2569 4547 
L 2338 4353 
L 3803 4353 
Q 4147 4809 4500 5347 
L 5000 5078 
Q 4678 4688 4378 4353 
L 5656 4353 
L 5656 1322 
L 5181 1322 
L 5181 1616 
L 3444 1616 
L 3444 909 
L 6275 909 
L 6275 459 
L 3444 459 
L 3444 -859 
L 2956 -859 
L 2956 459 
L 125 459 
L 125 909 
z
M 3444 2053 
L 5181 2053 
L 5181 2778 
L 3444 2778 
L 3444 2053 
z
M 1225 2053 
L 2956 2053 
L 2956 2778 
L 1225 2778 
L 1225 2053 
z
M 5181 3916 
L 3444 3916 
L 3444 3203 
L 5181 3203 
L 5181 3916 
z
M 1225 3203 
L 2956 3203 
L 2956 3916 
L 1225 3916 
L 1225 3203 
z
" transform="scale(0.015625)"/>
     <path id="MicrosoftYaHei-6b21" d="M 4119 3472 
Q 4113 3159 4091 2856 
Q 4509 728 6319 -284 
Q 6063 -559 5913 -772 
Q 4344 331 3900 1944 
Q 3491 200 1650 -866 
Q 1525 -672 1306 -422 
Q 3225 591 3525 2428 
Q 3613 2878 3619 3472 
L 4119 3472 
z
M 4944 2647 
Q 5225 3166 5450 3766 
L 2991 3766 
Q 2719 3144 2388 2572 
Q 2163 2734 1938 2841 
Q 2669 4034 3000 5309 
L 3506 5166 
Q 3356 4675 3175 4209 
L 5988 4209 
L 5988 3766 
Q 5731 3072 5425 2466 
Q 5213 2572 4944 2647 
z
M 1388 2622 
Q 1675 2403 1875 2284 
Q 1075 859 575 -178 
L 69 153 
Q 713 1128 1388 2622 
z
M 644 4916 
Q 1150 4409 1781 3672 
L 1375 3297 
Q 769 4097 281 4591 
L 644 4916 
z
" transform="scale(0.015625)"/>
     <path id="MicrosoftYaHei-8fdc" d="M 1788 3303 
L 6125 3303 
L 6125 2853 
L 4750 2853 
L 4750 1134 
Q 4750 809 5013 809 
L 5331 809 
Q 5613 809 5650 1072 
Q 5694 1328 5725 1847 
Q 5919 1759 6188 1659 
Q 6131 1141 6081 909 
Q 5988 384 5388 384 
L 4850 384 
Q 4269 384 4269 1028 
L 4269 2853 
L 3344 2853 
Q 3338 2288 3306 1934 
Q 3238 841 2081 184 
Q 1956 378 1769 603 
Q 2756 1097 2831 1991 
Q 2863 2316 2869 2853 
L 1788 2853 
L 1788 3303 
z
M 2688 -191 
L 4119 -216 
L 6300 -166 
Q 6231 -372 6125 -659 
L 4094 -666 
L 2625 -634 
Q 1525 -622 1081 91 
Q 825 -147 331 -747 
L 75 -216 
Q 628 319 875 550 
L 875 2641 
L 131 2641 
L 131 3103 
L 1356 3103 
L 1356 450 
Q 1747 -175 2688 -191 
z
M 2169 4891 
L 5738 4891 
L 5738 4441 
L 2169 4441 
L 2169 4891 
z
M 856 5203 
Q 1175 4816 1731 4022 
L 1288 3709 
Q 781 4503 456 4934 
L 856 5203 
z
" transform="scale(0.015625)"/>
     <path id="MicrosoftYaHei-7a0b" d="M 2750 5028 
L 5850 5028 
L 5850 2884 
L 5375 2884 
L 5375 3141 
L 3225 3141 
L 3225 2884 
L 2750 2884 
L 2750 5028 
z
M 44 903 
Q 663 1806 994 3041 
L 119 3041 
L 119 3453 
L 1094 3453 
L 1094 4431 
Q 700 4375 288 4328 
Q 238 4541 156 4759 
Q 1219 4847 2300 5097 
L 2438 4659 
Q 2003 4572 1544 4497 
L 1544 3453 
L 2413 3453 
L 2413 3041 
L 1544 3041 
L 1544 2216 
L 1788 2428 
Q 2038 2172 2519 1609 
L 2144 1303 
Q 1781 1766 1544 2050 
L 1544 -841 
L 1094 -841 
L 1094 2153 
Q 763 1078 256 359 
Q 156 628 44 903 
z
M 2250 -84 
L 4038 -84 
L 4038 841 
L 2619 841 
L 2619 1259 
L 4038 1259 
L 4038 2109 
L 2469 2109 
L 2469 2528 
L 6113 2528 
L 6113 2109 
L 4538 2109 
L 4538 1259 
L 5956 1259 
L 5956 841 
L 4538 841 
L 4538 -84 
L 6325 -84 
L 6325 -503 
L 2250 -503 
L 2250 -84 
z
M 5375 4603 
L 3225 4603 
L 3225 3566 
L 5375 3566 
L 5375 4603 
z
" transform="scale(0.015625)"/>
     <path id="MicrosoftYaHei-ff0c" d="M 1931 775 
L 1403 -891 
L 966 -891 
L 1350 775 
L 1931 775 
z
" transform="scale(0.015625)"/>
     <path id="MicrosoftYaHei-5e76" d="M 125 2172 
L 1778 2172 
Q 1781 2272 1781 3684 
L 394 3684 
L 394 4172 
L 2169 4172 
Q 1772 4697 1438 5059 
L 1813 5341 
Q 2325 4828 2619 4447 
L 2222 4172 
L 3784 4172 
Q 4178 4694 4581 5347 
L 5075 5041 
Q 4684 4538 4366 4172 
L 6006 4172 
L 6006 3684 
L 4681 3684 
L 4681 2172 
L 6275 2172 
L 6275 1684 
L 4681 1684 
L 4681 -816 
L 4169 -816 
L 4169 1684 
L 2266 1684 
Q 2188 28 744 -872 
Q 513 -566 394 -434 
Q 1713 403 1747 1684 
L 125 1684 
L 125 2172 
z
M 2291 2172 
L 4169 2172 
L 4169 3684 
L 2294 3684 
Q 2294 2384 2291 2172 
z
" transform="scale(0.015625)"/>
     <path id="MicrosoftYaHei-53d1" d="M 944 3909 
L 2266 3909 
Q 2419 4563 2525 5334 
L 3056 5266 
Q 2950 4556 2797 3909 
L 6250 3909 
L 6250 3447 
L 2678 3447 
Q 2566 3034 2431 2653 
L 5531 2653 
L 5531 2222 
Q 5119 1200 4247 456 
Q 5125 -75 6294 -291 
Q 6013 -603 5856 -816 
Q 4856 -484 3844 153 
Q 3031 -381 1519 -859 
Q 1344 -609 1144 -397 
Q 2681 3 3441 450 
Q 2619 1153 2269 2222 
Q 1584 509 406 -591 
Q 238 -353 75 -166 
Q 1484 1106 2147 3447 
L 413 3447 
L 413 3916 
Q 669 4509 881 5109 
L 1388 4972 
Q 1169 4422 944 3909 
z
M 4981 2222 
L 2722 2222 
Q 3003 1356 3838 731 
Q 4647 1400 4981 2222 
z
M 4019 4903 
L 4294 5253 
Q 4906 4866 5469 4447 
L 5131 4041 
Q 4588 4503 4019 4903 
z
" transform="scale(0.015625)"/>
     <path id="MicrosoftYaHei-5168" d="M 369 -103 
L 2950 -103 
L 2950 984 
L 925 984 
L 925 1441 
L 2950 1441 
L 2950 2403 
L 1156 2403 
L 1156 2859 
L 5269 2859 
L 5269 2403 
L 3469 2403 
L 3469 1441 
L 5500 1441 
L 5500 984 
L 3469 984 
L 3469 -103 
L 6044 -103 
L 6044 -566 
L 369 -566 
L 369 -103 
z
M 3656 5234 
L 3531 5078 
Q 4581 3703 6319 3009 
Q 6125 2734 5988 2509 
Q 4338 3322 3219 4691 
Q 2263 3453 394 2428 
Q 269 2641 81 2897 
Q 2013 3866 3000 5234 
L 3656 5234 
z
" transform="scale(0.015625)"/>
     <path id="MicrosoftYaHei-90e8" d="M 6288 1247 
Q 6288 172 5444 84 
Q 5125 47 4594 109 
Q 4563 334 4513 659 
Q 4969 584 5294 584 
Q 5844 584 5794 1341 
Q 5769 2009 4838 2709 
Q 5244 3516 5663 4503 
L 4388 4503 
L 4388 -828 
L 3913 -828 
L 3913 4966 
L 6163 4966 
L 6163 4453 
Q 5919 3822 5406 2816 
Q 6288 2128 6288 1247 
z
M 575 1753 
L 3275 1753 
L 3275 -791 
L 2813 -791 
L 2813 -328 
L 1038 -328 
L 1038 -797 
L 575 -797 
L 575 1753 
z
M 2813 1334 
L 1038 1334 
L 1038 103 
L 2813 103 
L 2813 1334 
z
M 125 2822 
L 2125 2822 
Q 2497 3466 2731 3997 
L 3194 3759 
Q 2922 3284 2616 2822 
L 3706 2822 
L 3706 2403 
L 125 2403 
L 125 2822 
z
M 263 4472 
L 1825 4472 
Q 1703 4753 1456 5159 
L 1888 5359 
Q 2169 4891 2288 4616 
L 1981 4472 
L 3594 4472 
L 3594 4053 
L 263 4053 
L 263 4472 
z
M 681 3728 
L 1063 3959 
Q 1375 3516 1631 3072 
L 1206 2828 
Q 1013 3222 681 3728 
z
" transform="scale(0.015625)"/>
     <path id="MicrosoftYaHei-843d" d="M 1663 2447 
Q 2500 3172 2919 4053 
L 3388 3953 
Q 3278 3744 3156 3547 
L 5594 3547 
L 5594 3147 
Q 5178 2559 4447 2122 
Q 5256 1813 6344 1753 
Q 6219 1491 6138 1272 
Q 4850 1447 3969 1866 
Q 3063 1438 1781 1191 
Q 1694 1384 1569 1616 
Q 2675 1772 3513 2116 
Q 3009 2434 2681 2856 
Q 2369 2456 2000 2109 
Q 1856 2272 1663 2447 
z
M 2288 1203 
L 5519 1203 
L 5519 -822 
L 5056 -822 
L 5056 -491 
L 2750 -491 
L 2750 -822 
L 2288 -822 
L 2288 1203 
z
M 138 4691 
L 1863 4691 
L 1863 5328 
L 2338 5328 
L 2338 4691 
L 4075 4691 
L 4075 5328 
L 4550 5328 
L 4550 4691 
L 6263 4691 
L 6263 4266 
L 4550 4266 
L 4550 3809 
L 4075 3809 
L 4075 4266 
L 2338 4266 
L 2338 3784 
L 1863 3784 
L 1863 4266 
L 138 4266 
L 138 4691 
z
M 5056 791 
L 2750 791 
L 2750 -78 
L 5056 -78 
L 5056 791 
z
M 181 -622 
Q 619 278 1031 1478 
Q 1244 1359 1500 1247 
Q 1119 322 700 -834 
L 181 -622 
z
M 5069 3147 
L 2972 3147 
Q 3381 2656 3981 2334 
Q 4622 2675 5069 3147 
z
M 44 2459 
L 325 2828 
Q 850 2522 1356 2172 
Q 1181 1953 1038 1759 
Q 575 2122 44 2459 
z
M 475 3641 
L 756 3991 
Q 1350 3616 1738 3316 
Q 1569 3109 1438 2928 
Q 956 3316 475 3641 
z
" transform="scale(0.015625)"/>
     <path id="MicrosoftYaHei-ff09" d="M 1113 -1100 
L 575 -1100 
Q 1684 163 1684 1888 
Q 1684 3581 581 4838 
L 1113 4838 
Q 2222 3628 2222 1888 
Q 2222 128 1113 -1100 
z
" transform="scale(0.015625)"/>
     <path id="MicrosoftYaHei-663e" d="M 875 5041 
L 5525 5041 
L 5525 2209 
L 5044 2209 
L 5044 2434 
L 1356 2434 
L 1356 2209 
L 875 2209 
L 875 5041 
z
M 156 -147 
L 2238 -147 
L 2238 2259 
L 2713 2259 
L 2713 -147 
L 3656 -147 
L 3656 2259 
L 4131 2259 
L 4131 -147 
L 6244 -147 
L 6244 -597 
L 156 -597 
L 156 -147 
z
M 5044 4591 
L 1356 4591 
L 1356 3947 
L 5044 3947 
L 5044 4591 
z
M 1356 2884 
L 5044 2884 
L 5044 3528 
L 1356 3528 
L 1356 2884 
z
M 506 1734 
L 875 2009 
Q 1519 1178 1888 597 
L 1456 284 
Q 1038 984 506 1734 
z
M 5925 1753 
Q 5413 941 4938 309 
L 4531 591 
Q 5006 1216 5481 2009 
L 5925 1753 
z
" transform="scale(0.015625)"/>
     <path id="MicrosoftYaHei-8457" d="M 63 1159 
Q 1588 1578 2994 2278 
L 200 2278 
L 200 2691 
L 2788 2691 
L 2788 3247 
L 863 3247 
L 863 3647 
L 2788 3647 
L 2788 4103 
L 3263 4103 
L 3263 3647 
L 4600 3647 
L 4600 3247 
L 3263 3247 
L 3263 2691 
L 3769 2691 
Q 4669 3200 5519 3828 
L 5850 3491 
Q 5250 3069 4619 2691 
L 6244 2691 
L 6244 2278 
L 3897 2278 
Q 3347 1978 2772 1709 
L 5400 1709 
L 5400 -822 
L 4938 -822 
L 4938 -528 
L 1825 -528 
L 1825 -822 
L 1363 -822 
L 1363 1106 
Q 841 906 300 728 
Q 250 834 63 1159 
z
M 200 4778 
L 1863 4778 
L 1863 5328 
L 2338 5328 
L 2338 4778 
L 4050 4778 
L 4050 5328 
L 4525 5328 
L 4525 4778 
L 6213 4778 
L 6213 4366 
L 4525 4366 
L 4525 3966 
L 4050 3966 
L 4050 4366 
L 2338 4366 
L 2338 3966 
L 1863 3966 
L 1863 4366 
L 200 4366 
L 200 4778 
z
M 1825 -128 
L 4938 -128 
L 4938 397 
L 1825 397 
L 1825 -128 
z
M 4938 1309 
L 1866 1309 
Q 1844 1300 1825 1291 
L 1825 784 
L 4938 784 
L 4938 1309 
z
" transform="scale(0.015625)"/>
     <path id="MicrosoftYaHei-5360" d="M 863 2434 
L 2775 2434 
L 2775 5259 
L 3288 5259 
L 3288 4209 
L 6150 4209 
L 6150 3747 
L 3288 3747 
L 3288 2434 
L 5525 2434 
L 5525 -841 
L 5025 -841 
L 5025 -453 
L 1363 -453 
L 1363 -853 
L 863 -853 
L 863 2434 
z
M 5025 1984 
L 1363 1984 
L 1363 -9 
L 5025 -9 
L 5025 1984 
z
" transform="scale(0.015625)"/>
     <path id="MicrosoftYaHei-4f18" d="M 1825 3609 
L 3184 3609 
Q 3216 4322 3213 5272 
L 3713 5272 
Q 3719 4338 3688 3609 
L 6188 3609 
L 6188 3153 
L 4475 3153 
L 4475 228 
Q 4475 -122 4838 -122 
L 5244 -122 
Q 5656 -122 5700 303 
Q 5750 659 5781 1266 
Q 6031 1166 6294 1066 
Q 6244 528 6175 109 
Q 6100 -291 5900 -447 
Q 5713 -603 5275 -597 
L 4763 -597 
Q 4325 -597 4150 -422 
Q 3969 -259 3969 184 
L 3969 3153 
L 3663 3153 
Q 3600 791 1950 -803 
Q 1775 -597 1575 -397 
Q 3100 1028 3159 3153 
L 1825 3153 
L 1825 3609 
z
M 88 2334 
Q 1056 3641 1556 5291 
L 2063 5122 
Q 1753 4253 1388 3522 
L 1388 -809 
L 913 -809 
L 913 2666 
Q 616 2184 288 1778 
Q 194 2047 88 2334 
z
M 4600 5184 
Q 5269 4759 5713 4391 
Q 5538 4197 5388 3991 
Q 4875 4447 4325 4841 
L 4600 5184 
z
" transform="scale(0.015625)"/>
    </defs>
    <use xlink:href="#MicrosoftYaHei-5f53"/>
    <use xlink:href="#MicrosoftYaHei-20" x="100"/>
    <use xlink:href="#MicrosoftYaHei-44" x="129.589844"/>
    <use xlink:href="#MicrosoftYaHei-42" x="205.761719"/>
    <use xlink:href="#MicrosoftYaHei-20" x="268.505859"/>
    <use xlink:href="#MicrosoftYaHei-6210" x="298.095703"/>
    <use xlink:href="#MicrosoftYaHei-4e3a" x="398.095703"/>
    <use xlink:href="#MicrosoftYaHei-74f6" x="498.095703"/>
    <use xlink:href="#MicrosoftYaHei-9888" x="598.095703"/>
    <use xlink:href="#MicrosoftYaHei-65f6" x="698.095703"/>
    <use xlink:href="#MicrosoftYaHei-ff08" x="798.095703"/>
    <use xlink:href="#MicrosoftYaHei-6a21" x="898.095703"/>
    <use xlink:href="#MicrosoftYaHei-62df" x="998.095703"/>
    <use xlink:href="#MicrosoftYaHei-5355" x="1098.095703"/>
    <use xlink:href="#MicrosoftYaHei-6b21" x="1198.095703"/>
    <use xlink:href="#MicrosoftYaHei-5199" x="1298.095703"/>
    <use xlink:href="#MicrosoftYaHei-20" x="1398.095703"/>
    <use xlink:href="#MicrosoftYaHei-34" x="1427.685547"/>
    <use xlink:href="#MicrosoftYaHei-30" x="1486.328125"/>
    <use xlink:href="#MicrosoftYaHei-6d" x="1544.970703"/>
    <use xlink:href="#MicrosoftYaHei-73" x="1638.671875"/>
    <use xlink:href="#MicrosoftYaHei-20" x="1684.960938"/>
    <use xlink:href="#MicrosoftYaHei-8fdc" x="1714.550781"/>
    <use xlink:href="#MicrosoftYaHei-7a0b" x="1814.550781"/>
    <use xlink:href="#MicrosoftYaHei-5e93" x="1914.550781"/>
    <use xlink:href="#MicrosoftYaHei-ff0c" x="2014.550781"/>
    <use xlink:href="#MicrosoftYaHei-32" x="2114.550781"/>
    <use xlink:href="#MicrosoftYaHei-30" x="2173.193359"/>
    <use xlink:href="#MicrosoftYaHei-30" x="2231.835938"/>
    <use xlink:href="#MicrosoftYaHei-30" x="2290.478516"/>
    <use xlink:href="#MicrosoftYaHei-20" x="2349.121094"/>
    <use xlink:href="#MicrosoftYaHei-5e76" x="2378.710938"/>
    <use xlink:href="#MicrosoftYaHei-53d1" x="2478.710938"/>
    <use xlink:href="#MicrosoftYaHei-5168" x="2578.710938"/>
    <use xlink:href="#MicrosoftYaHei-90e8" x="2678.710938"/>
    <use xlink:href="#MicrosoftYaHei-843d" x="2778.710938"/>
    <use xlink:href="#MicrosoftYaHei-5e93" x="2878.710938"/>
    <use xlink:href="#MicrosoftYaHei-ff09" x="2978.710938"/>
    <use xlink:href="#MicrosoftYaHei-5f02" x="3078.710938"/>
    <use xlink:href="#MicrosoftYaHei-6b65" x="3178.710938"/>
    <use xlink:href="#MicrosoftYaHei-663e" x="3278.710938"/>
    <use xlink:href="#MicrosoftYaHei-8457" x="3378.710938"/>
    <use xlink:href="#MicrosoftYaHei-5360" x="3478.710938"/>
    <use xlink:href="#MicrosoftYaHei-4f18" x="3578.710938"/>
   </g>
  </g>
 </g>
 <defs>
  <clipPath id="pa61dc4c320">
   <rect x="52.535938" y="53.568" width="253.636364" height="255.024"/>
  </clipPath>
  <clipPath id="p572428c31f">
   <rect x="356.899574" y="53.568" width="253.636364" height="255.024"/>
  </clipPath>
 </defs>
</svg>
